<svg width="18" height="19" viewBox="0 0 18 19" fill="none" xmlns="http://www.w3.org/2000/svg">
<path d="M8.4375 14.1875H6.75C5.925 14.1875 5.25 14.8625 5.25 15.6875V15.875H4.5C4.1925 15.875 3.9375 16.13 3.9375 16.4375C3.9375 16.745 4.1925 17 4.5 17H13.5C13.8075 17 14.0625 16.745 14.0625 16.4375C14.0625 16.13 13.8075 15.875 13.5 15.875H12.75V15.6875C12.75 14.8625 12.075 14.1875 11.25 14.1875H9.5625V12.47C9.375 12.4925 9.1875 12.5 9 12.5C8.8125 12.5 8.625 12.4925 8.4375 12.47V14.1875Z" fill="#0076FF"/>
<path d="M13.86 9.23C14.355 9.0425 14.79 8.735 15.135 8.39C15.8325 7.6175 16.29 6.695 16.29 5.615C16.29 4.535 15.4425 3.6875 14.3625 3.6875H13.9425C13.455 2.69 12.435 2 11.25 2H6.74996C5.56496 2 4.54496 2.69 4.05746 3.6875H3.63746C2.55746 3.6875 1.70996 4.535 1.70996 5.615C1.70996 6.695 2.16746 7.6175 2.86496 8.39C3.20996 8.735 3.64496 9.0425 4.13996 9.23C4.91996 11.15 6.79496 12.5 8.99996 12.5C11.205 12.5 13.08 11.15 13.86 9.23ZM11.13 6.8375L10.665 7.4075C10.59 7.49 10.5375 7.655 10.545 7.7675L10.59 8.5025C10.62 8.9525 10.2975 9.185 9.87746 9.02L9.19496 8.75C9.08996 8.7125 8.90996 8.7125 8.80496 8.75L8.12246 9.02C7.70246 9.185 7.37996 8.9525 7.40996 8.5025L7.45496 7.7675C7.46246 7.655 7.40996 7.49 7.33496 7.4075L6.86996 6.8375C6.57746 6.4925 6.70496 6.11 7.13996 5.9975L7.85246 5.8175C7.96496 5.7875 8.09996 5.6825 8.15996 5.585L8.55746 4.97C8.80496 4.5875 9.19496 4.5875 9.44246 4.97L9.83996 5.585C9.89996 5.6825 10.035 5.7875 10.1475 5.8175L10.86 5.9975C11.295 6.11 11.4225 6.4925 11.13 6.8375Z" fill="#0076FF"/>
</svg>
