<svg width="19" height="19" viewBox="0 0 19 19" fill="none" xmlns="http://www.w3.org/2000/svg">
<path fill-rule="evenodd" clip-rule="evenodd" d="M6.86592 2.35231C7.08559 2.13264 7.44175 2.13264 7.66142 2.35231L9.16142 3.85231C9.32229 4.01319 9.37042 4.25513 9.28335 4.46532C9.19629 4.67551 8.99118 4.81256 8.76367 4.81256H7.26367C4.67484 4.81256 2.57617 6.91123 2.57617 9.50006C2.57617 12.0889 4.67502 14.1876 7.26388 14.1876H7.63867C7.94933 14.1876 8.20117 14.4394 8.20117 14.7501C8.20117 15.0607 7.94933 15.3126 7.63867 15.3126H7.26388C4.05375 15.3126 1.45117 12.7102 1.45117 9.50006C1.45117 6.28991 4.05352 3.68756 7.26367 3.68756H7.40568L6.86592 3.14781C6.64625 2.92814 6.64625 2.57198 6.86592 2.35231ZM10.8262 4.25006C10.8262 3.9394 11.078 3.68756 11.3887 3.68756H11.7637C14.9738 3.68756 17.5762 6.28991 17.5762 9.50006C17.5762 12.7102 14.9738 15.3126 11.7637 15.3126H11.6217L12.1614 15.8523C12.3811 16.072 12.3811 16.4281 12.1614 16.6478C11.9417 16.8675 11.5856 16.8675 11.3659 16.6478L9.86592 15.1478C9.70505 14.9869 9.65693 14.745 9.74399 14.5348C9.83105 14.3246 10.0362 14.1876 10.2637 14.1876H11.7637C14.3525 14.1876 16.4512 12.0889 16.4512 9.50006C16.4512 6.91123 14.3525 4.81256 11.7637 4.81256H11.3887C11.078 4.81256 10.8262 4.56072 10.8262 4.25006Z" fill="#0076FF"/>
</svg>
