<svg width="816" height="596" viewBox="0 0 816 596" fill="none" xmlns="http://www.w3.org/2000/svg">
<path d="M127.851 280.227C150.967 274.563 174.844 268.557 198.808 263.1C200.698 262.666 204.74 265.366 205.371 267.448C209.874 282.201 215.18 296.887 217.467 312.051C220.602 332.911 221.044 354.181 223.18 375.224C223.922 382.406 225.402 389.862 228.163 396.427C232.773 407.27 241.51 412.991 252.982 412.401C264.171 411.833 271.057 404.951 275.79 394.478C277.765 390.065 281.284 385.4 285.303 383.137C312.066 368.007 338.938 353.036 366.245 339.026C375.63 334.226 386.384 332.332 396.552 329.271C400.571 328.06 404.808 327.582 408.74 326.234C418.473 322.944 425.228 316.337 427.05 305.405C428.828 294.748 424.61 286.512 416.786 280.06C408.223 273.012 399.052 266.605 391.162 258.803C369.014 236.861 347.431 214.279 325.544 192.017C320.784 187.19 315.676 182.774 309.438 176.939C323.624 168.688 336.44 160.505 349.887 153.625C381.496 137.467 413.496 122.178 445.147 106.111C455.944 100.649 466.437 94.4091 476.603 87.7345C494.785 75.8253 498.383 49.5247 484.884 30.3764C475.971 17.7024 463.454 10.928 449.329 7.08034C425.818 0.7134 401.83 -1.26239 377.843 1.38177C338.713 5.73566 299.474 9.8836 260.758 16.9136C221.455 24.0577 182.631 34.038 143.829 43.9498C127.078 48.2205 110.85 54.9157 94.7081 61.3823C70.7457 70.9565 46.3042 77.3286 20.557 77.7993C9.4977 78.001 2.93758 83.0304 0.854738 91.9951C-1.22813 100.96 2.88164 110.59 12.9429 114.413C22.7433 118.145 33.5648 121.488 43.7332 120.989C62.5925 120.081 81.3423 116.589 100.027 113.531C124.556 109.537 148.955 104.721 173.441 100.682C195.515 97.0303 217.567 93.4019 239.75 90.6885C284.638 85.1703 329.591 80.2239 374.544 75.3232C380.519 74.6622 386.625 75.5565 394.599 75.811C390.059 79.4459 386.866 82.4408 383.303 84.7723C350.675 106.213 317.917 127.472 285.333 148.958C280.489 152.136 276.816 151.471 272.578 147.879C265.623 141.975 258.451 136.346 251.149 130.946C238.805 121.793 225.095 122.634 217.102 132.695C208.958 142.961 209.571 157.782 220.873 168.261C235.066 181.463 250.127 193.75 265.775 205.009C301.504 230.683 331.781 262.875 363.623 293.237C363.97 293.557 364.014 294.289 364.21 294.952C335.319 315.663 306.406 336.351 276.147 358.044C275.384 352.12 274.905 348.689 274.47 345.259C269.764 308.388 262.56 272.226 245.341 239.194C242.666 234.047 239.688 229.037 236.297 224.415C225.928 210.437 214.607 207.483 198.552 212.257C166.854 221.645 134.961 230.233 103.22 239.392C97.9187 240.9 94.4854 239.801 90.9423 235.202C85.7036 228.362 79.9436 221.887 73.7926 215.916C66.4028 208.731 57.7983 207.676 50.7165 212.065C43.3524 216.659 39.5748 225.715 42.946 235.939C46.4912 246.667 50.4711 257.807 56.7969 266.844C89.1433 313.33 111.366 365.851 138.239 415.583C176.003 485.423 225.843 541.362 295.948 575.466C305.054 579.883 314.485 583.684 324.046 586.843C380.74 605.596 431.057 593.447 476.39 553.233C508.494 524.748 534.447 490.793 560.139 456.336C577.883 432.534 595.691 408.754 614.565 385.958C625.511 372.743 638.131 360.969 650.816 349.538C669.822 332.369 692.026 327.117 716.602 332.638C732.617 336.234 747.915 341.5 761.042 352.163C770.866 360.172 770.672 366.644 761.006 374.669C758.312 376.909 756.206 379.904 753.817 382.556C756.838 384.913 759.555 388.048 762.923 389.536C777.961 396.22 793.69 391.148 804.527 376.583C817.58 359.046 818.55 336.701 806.941 317.302C797.049 300.716 782.662 289.778 765.69 282.751C709.69 259.607 658.742 268.119 612.541 309.339C583.999 334.807 560.847 365.308 537.065 395.284C514.174 424.139 492.413 454.092 468.174 481.62C453.535 498.219 435.506 511.661 418.28 525.537C406.051 535.39 391.386 539.845 375.916 540.068C311.885 541.073 256.82 519.325 215.107 466.729C204.673 453.597 196.151 438.224 189.171 422.692C168.231 375.821 148.53 328.516 127.851 280.227Z" fill="url(#paint0_linear_346_6870)" fill-opacity="0.1"/>
<defs>
<linearGradient id="paint0_linear_346_6870" x1="-237" y1="134.895" x2="960.523" y2="241.861" gradientUnits="userSpaceOnUse">
<stop stop-color="white"/>
<stop offset="1" stop-color="white" stop-opacity="0"/>
</linearGradient>
</defs>
</svg>
