<svg width="127" height="45" viewBox="0 0 127 45" fill="none" xmlns="http://www.w3.org/2000/svg">
<path fill-rule="evenodd" clip-rule="evenodd" d="M1.7216 16.1357C1.93885 16.2112 2.09762 16.1811 2.18531 16.0479C2.28185 15.9015 2.35669 15.97 2.45536 16.2951C2.53042 16.5424 2.51073 16.8082 2.41151 16.8857C2.12486 17.1095 2.34177 17.5112 2.8571 17.7108C3.11766 17.8116 3.36068 17.9924 3.39716 18.1126C3.4788 18.3816 3.2366 18.4757 3.03386 18.2535C2.95194 18.1638 2.95778 18.2315 3.0468 18.4042C3.16128 18.6265 3.13933 18.7135 2.97173 18.7018C2.84138 18.6928 2.75793 18.7617 2.7862 18.8548C2.81446 18.9479 2.92388 18.9988 3.02953 18.9678C3.15735 18.9304 3.1598 18.9832 3.03664 19.1262C2.87782 19.3105 2.90526 19.3617 3.23007 19.488C3.43808 19.5688 3.78762 19.6526 4.00655 19.6741C4.23289 19.6964 4.38169 19.8004 4.35141 19.9149C4.31419 20.0557 4.23942 20.0661 4.10351 19.9495C3.95549 19.8222 3.92509 19.857 3.9762 20.096C4.01317 20.2685 4.06047 20.4932 4.08121 20.5952C4.102 20.6973 4.08376 20.8471 4.04044 20.9281C3.8428 21.2986 4.09242 21.3446 4.70702 21.0508C5.42415 20.708 5.49437 20.7277 5.24195 21.2009C5.09361 21.4792 5.10393 21.5177 5.33232 21.5334C5.47428 21.5432 5.58253 21.6602 5.57298 21.7935C5.56318 21.9287 5.64764 22.0086 5.76385 21.9744C5.92461 21.9271 5.93 21.963 5.78769 22.1317C5.62995 22.3184 5.64214 22.3388 5.87165 22.2706C6.04023 22.2204 6.17591 22.3087 6.23625 22.5076C6.28916 22.6819 6.46704 22.896 6.63157 22.9835C6.79609 23.071 7.00232 23.3785 7.08981 23.6668C7.17735 23.9552 7.31277 24.1716 7.39081 24.1477C7.58009 24.0897 8.31024 24.8699 8.25657 25.0727C8.23328 25.1607 8.27916 25.2127 8.35842 25.1884C8.53132 25.1354 9.7692 26.4334 9.87349 26.7771C9.91392 26.9103 10.1021 27.0208 10.2917 27.0225C10.4812 27.0244 10.6312 27.1152 10.6247 27.2243C10.6114 27.4492 11.4397 28.2476 11.8396 28.3954C12.0641 28.4782 12.078 28.5413 11.9321 28.8147C11.7158 29.2201 11.8039 29.5485 12.0725 29.3386C12.4046 29.0794 12.7802 29.1907 12.8996 29.5839C12.9693 29.8138 13.3522 30.1397 13.918 30.4511C14.5534 30.8006 14.8235 31.0418 14.8208 31.2572C14.8178 31.487 14.8703 31.5229 15.0286 31.3995C15.2404 31.234 15.3477 31.3637 15.4555 31.9156C15.4853 32.0679 15.6299 32.2009 15.7768 32.2111C15.9339 32.2219 16.0992 32.4116 16.1782 32.6719C16.2614 32.9458 16.3928 33.0897 16.5234 33.0497C16.6392 33.0142 16.8408 33.0552 16.9712 33.141C17.1089 33.2315 17.3996 33.2131 17.6647 33.0969C18.0453 32.9302 18.1175 32.9455 18.0999 33.1896C18.0884 33.3505 18.1135 33.4172 18.1558 33.3379C18.2414 33.1778 18.9225 33.4483 18.9895 33.669C19.0396 33.8341 19.5539 34.1268 19.71 34.079C19.8245 34.0439 20.3038 34.3233 21.2929 35.0017C21.6245 35.229 21.955 35.3968 22.0276 35.3746C22.2165 35.3167 23.2539 35.8748 23.4682 36.1498C23.5676 36.2775 23.7471 36.352 23.8671 36.3152C23.9869 36.2785 24.156 36.3396 24.2427 36.4509C24.3294 36.5622 24.5402 36.6104 24.7113 36.558C24.8822 36.5056 25.0484 36.5495 25.0805 36.6553C25.1126 36.7613 25.3124 36.8943 25.5245 36.951C25.8085 37.0268 25.8786 37.1126 25.7907 37.2773C25.7252 37.4002 25.6956 37.5722 25.7249 37.6598C25.7543 37.7473 25.8119 37.6771 25.853 37.5035C25.963 37.0393 26.1344 37.0476 27.1049 37.5635C27.5878 37.8202 28.0084 37.983 28.0393 37.9251C28.0702 37.8671 28.2268 37.8288 28.3875 37.8399C28.6103 37.8552 28.6502 37.9155 28.5553 38.0934C28.3506 38.477 28.4885 38.6019 28.7867 38.3026C29.0133 38.075 29.1128 38.0589 29.3224 38.216C29.464 38.3222 29.6583 38.385 29.7543 38.3556C29.8502 38.3262 29.9496 38.371 29.9751 38.4551C30.0006 38.5392 30.1248 38.5764 30.251 38.5377C30.3785 38.4986 30.5218 38.6033 30.5734 38.7732C30.6259 38.9462 30.7683 39.0478 30.9011 39.0071C31.0304 38.9675 31.3245 38.9898 31.5549 39.0568C31.7853 39.1237 32.1631 39.1372 32.3946 39.0866C32.6406 39.0329 32.8864 39.0979 32.9861 39.2428C33.0799 39.3792 33.2085 39.4317 33.2718 39.3599C33.3353 39.2878 33.5726 39.2891 33.7997 39.3627C34.0266 39.4364 34.3347 39.4592 34.4844 39.4133C34.6339 39.3675 34.7854 39.4259 34.8209 39.543C34.9062 39.8238 35.3412 39.8439 35.7673 39.587C35.9644 39.4681 36.13 39.4478 36.1576 39.5388C36.2126 39.72 37.2046 39.9169 37.5415 39.8137C37.7333 39.7549 37.7467 39.7916 37.6333 40.0632C37.5116 40.3547 37.5242 40.3544 37.784 40.0588C38.0174 39.793 38.1004 39.7649 38.2547 39.8997C38.3577 39.9896 38.6319 40.0271 38.8638 39.983C39.0959 39.9387 39.4371 39.9726 39.622 40.0582C39.8069 40.1438 40.2063 40.1631 40.5095 40.1013C40.8126 40.0394 41.2238 40.0649 41.4231 40.1581C41.6225 40.2511 41.8639 40.2659 41.9598 40.191C42.0557 40.1162 42.1982 40.1113 42.2765 40.1802C42.3549 40.2491 42.7586 40.2524 43.1737 40.1879C43.5889 40.1232 44.0735 40.1351 44.2507 40.2147C44.428 40.2941 44.6954 40.3071 44.8448 40.2436C45.321 40.0414 45.5085 40.0409 45.5694 40.2415C45.61 40.3754 45.8305 40.3628 46.2664 40.2021C46.617 40.0729 47.0761 40.0172 47.2863 40.0783C47.4965 40.1394 47.8428 40.1618 48.0558 40.1279C48.2689 40.0942 48.5583 40.1441 48.6991 40.2389C48.8556 40.3442 48.9361 40.3414 48.906 40.2318C48.8582 40.0571 49.1553 40.027 50.2906 40.0921C50.4778 40.1028 50.9377 40.0224 51.3126 39.9135C51.7699 39.7805 52.0635 39.782 52.2054 39.9182C52.3738 40.0797 52.4507 40.0695 52.5833 39.8684C52.7066 39.681 52.8504 39.6321 53.1394 39.6789C53.3538 39.7137 53.7843 39.7148 54.0961 39.6813C54.4079 39.6479 54.7445 39.641 54.8441 39.666C55.0816 39.7257 55.2597 39.6976 56.8386 39.3495C57.5715 39.188 58.2326 39.1075 58.3077 39.1705C58.3829 39.2336 58.8502 39.1614 59.3461 39.0101C59.842 38.8586 60.9405 38.6615 61.7872 38.5717C62.6338 38.4821 63.9108 38.2261 64.6249 38.0028C65.339 37.7796 66.3593 37.5455 66.8921 37.4827C67.8014 37.3753 69.2992 36.8946 69.5254 36.6374C69.5812 36.5738 69.7335 36.5499 69.8637 36.584C69.994 36.6181 70.3312 36.5145 70.6128 36.3536C70.8946 36.1927 71.1998 36.0808 71.2912 36.1048C71.3828 36.1287 71.7427 36.0759 72.0913 35.9871C72.4398 35.8985 72.775 35.8964 72.8361 35.9825C72.9124 36.09 73.0254 36.0646 73.1974 35.901C73.3351 35.7702 73.557 35.5602 73.6904 35.4342C73.8265 35.3057 74.1883 35.1858 74.5145 35.1611C74.8751 35.1338 75.1378 35.0386 75.2062 34.9103C75.2823 34.7677 75.4031 34.7397 75.595 34.8198C75.7954 34.9036 75.8882 34.8799 75.9266 34.7348C75.958 34.6162 76.4001 34.4137 77.0043 34.2416C77.5677 34.081 78.2757 33.8222 78.5775 33.6664C78.999 33.4488 79.2144 33.4247 79.5075 33.5621C79.7172 33.6606 79.8664 33.6674 79.839 33.5771C79.8117 33.4871 79.6908 33.3989 79.5705 33.3813C79.4501 33.3637 79.6107 33.3021 79.9273 33.2444C80.244 33.1866 80.5501 33.0508 80.6078 32.9427C80.6655 32.8346 80.9286 32.6408 81.1925 32.5123C81.4563 32.3836 81.8289 32.1528 82.0208 31.999C82.5214 31.5977 83.3413 31.2903 83.715 31.3638C83.9053 31.4011 84.0191 31.3694 83.9938 31.2861C83.9588 31.1709 84.8411 30.6394 85.4784 30.3918C85.5607 30.3597 85.6839 30.2692 85.7522 30.1904C85.8205 30.1115 86.2423 29.9561 86.6897 29.8449C87.2199 29.7132 87.4524 29.5983 87.3574 29.5148C87.2663 29.4347 87.3454 29.3811 87.5677 29.3718C87.7634 29.3636 87.9436 29.2813 87.968 29.1891C87.9924 29.0967 88.0828 29.0397 88.169 29.0623C88.2551 29.0849 88.3458 29.027 88.3705 28.9338C88.3951 28.8407 88.9338 28.5524 89.5675 28.2935C90.2012 28.0345 90.7858 27.7256 90.8667 27.6071C91.0169 27.3868 91.4316 27.169 92.3122 26.8476C92.5848 26.748 92.826 26.5981 92.8481 26.5144C92.8702 26.4308 93.1115 26.294 93.3843 26.2104C93.6571 26.1267 93.9398 25.9467 94.0126 25.8102C94.1179 25.6128 94.1883 25.5996 94.3584 25.746C94.4759 25.8472 94.5503 25.8547 94.5238 25.7627C94.4449 25.4888 95.0292 25.0677 95.4198 25.1169C95.8025 25.1649 96.8039 24.45 96.7237 24.186C96.6989 24.1042 96.895 24.0172 97.1657 23.9901C97.4427 23.9622 97.7213 23.836 97.8129 23.697C97.9367 23.5091 98.0038 23.4934 98.1036 23.6288C98.1918 23.7483 98.3217 23.6275 98.5075 23.2529C98.7116 22.8414 98.8556 22.717 99.0736 22.764C99.3398 22.8215 99.5388 22.7207 100.432 22.0757C100.545 21.9939 100.804 21.8552 101.007 21.7673C101.21 21.6796 101.597 21.4877 101.867 21.3411C102.243 21.1363 102.419 21.1215 102.627 21.2771C102.875 21.4629 102.897 21.4481 102.902 21.0982C102.907 20.6756 103.025 20.4342 103.446 19.9888C103.684 19.7375 103.755 19.7225 103.889 19.8949C104.097 20.1617 104.343 20.0847 104.251 19.7819C104.194 19.5935 104.251 19.5611 104.54 19.6179C104.827 19.6743 104.971 19.597 105.246 19.2404C105.436 18.9938 105.831 18.7187 106.124 18.6289C106.527 18.5052 106.653 18.386 106.643 18.1354C106.63 17.7893 106.927 17.579 107.016 17.8717C107.045 17.9649 107.155 17.9728 107.262 17.8895C107.368 17.8061 107.514 17.8099 107.585 17.8977C107.657 17.9856 107.682 17.9275 107.641 17.7689C107.582 17.5403 107.663 17.4655 108.029 17.4094C108.366 17.3578 108.454 17.29 108.353 17.16C108.26 17.0404 108.305 16.9877 108.489 17.0006C108.676 17.0135 108.739 16.9356 108.685 16.7574C108.633 16.5872 108.695 16.5015 108.862 16.513C109.003 16.5227 109.099 16.4672 109.075 16.3895C109.052 16.3118 109.26 16.1288 109.539 15.9829C109.818 15.837 110.063 15.652 110.084 15.5721C110.105 15.4921 110.394 15.2905 110.727 15.124C111.059 14.9575 111.431 14.649 111.553 14.4384C111.675 14.2278 111.934 14.0067 112.128 13.947C112.323 13.8874 112.461 13.7698 112.436 13.6857C112.41 13.6016 112.492 13.5012 112.619 13.4625C112.745 13.4238 112.867 13.455 112.891 13.5318C112.914 13.6087 113.115 13.5306 113.339 13.3582C113.562 13.186 113.715 12.9762 113.679 12.8922C113.514 12.5048 113.555 12.3569 113.821 12.3753C114.013 12.3886 114.052 12.3475 113.941 12.25C113.836 12.1581 113.885 12.0714 114.074 12.0134C114.239 11.963 114.381 11.813 114.391 11.6799C114.4 11.5467 114.764 11.2427 115.199 11.0041C115.769 10.6914 115.991 10.479 115.994 10.2431C115.998 9.89708 116.661 9.14426 116.905 9.20822C117.07 9.25131 117.405 8.56802 117.334 8.3345C117.308 8.24962 117.431 8.05312 117.606 7.89783C117.796 7.73023 117.866 7.53955 117.78 7.42835C117.572 7.16119 117.813 6.689 118.221 6.56389C118.412 6.50532 118.577 6.34253 118.587 6.20205C118.606 5.93625 119.223 5.72933 119.462 5.90888C119.536 5.96478 119.621 5.91988 119.651 5.80927C119.68 5.6985 119.631 5.63027 119.542 5.65756C119.453 5.68485 119.346 5.59665 119.305 5.46146C119.257 5.30088 119.157 5.27322 119.018 5.38163C118.901 5.47297 118.667 5.52052 118.498 5.48717C118.323 5.45287 118.115 5.51169 118.017 5.62357C117.918 5.73549 117.71 5.7942 117.534 5.75968C117.346 5.72279 117.098 5.79783 116.9 5.95092C116.511 6.25289 115.951 6.18289 116.219 5.86579C116.315 5.75164 116.06 5.79119 115.584 5.9639C115.146 6.123 114.785 6.33478 114.783 6.4346C114.78 6.53437 114.68 6.64601 114.561 6.68254C114.442 6.71912 114.376 6.85221 114.414 6.97838C114.467 7.15456 114.288 7.2677 113.642 7.46568C112.943 7.67979 112.786 7.67831 112.717 7.45667C112.67 7.306 112.604 7.27128 112.567 7.37714C112.531 7.4802 112.397 7.72564 112.269 7.92247C112.059 8.24538 111.986 8.27136 111.529 8.18762C111.077 8.1048 111.002 8.1296 110.828 8.42053C110.667 8.68852 110.519 8.7494 109.995 8.76342C109.068 8.78815 108.792 8.90963 108.806 9.28661C108.816 9.5433 108.736 9.61983 108.461 9.6144C108.265 9.61034 107.986 9.65144 107.841 9.70577C107.697 9.76021 107.548 9.70571 107.512 9.58474C107.425 9.3009 107.286 9.34955 107.048 9.74657C106.943 9.92184 106.698 10.1334 106.502 10.2169C106.307 10.3004 106.079 10.4455 105.996 10.5395C105.898 10.6514 105.814 10.6035 105.752 10.4001C105.688 10.1878 105.594 10.1399 105.456 10.2478C105.345 10.3347 105.311 10.4555 105.38 10.5166C105.45 10.5776 105.195 10.723 104.814 10.8396C104.279 11.0038 104.064 10.994 103.865 10.7961C103.563 10.4944 103.201 10.5615 103.175 10.9242C103.163 11.0886 103.252 11.1559 103.423 11.1121C103.57 11.0743 103.622 11.0988 103.54 11.1666C103.457 11.2341 103.062 11.2782 102.661 11.2646C102.26 11.2509 101.886 11.2915 101.83 11.3551C101.774 11.4187 101.699 11.3719 101.662 11.2509C101.625 11.1301 101.458 10.974 101.291 10.904C101.039 10.7988 101.013 10.7377 101.142 10.5529C101.228 10.4298 101.351 10.0355 101.414 9.67664C101.533 9.00743 101.784 8.67783 102.111 8.76336C102.227 8.7937 102.233 8.88438 102.128 9.00686C101.991 9.16553 102.003 9.18915 102.192 9.13355C102.319 9.09581 102.467 8.90105 102.522 8.70061C102.576 8.50017 102.731 8.30214 102.867 8.2605C103.061 8.2009 103.09 8.24197 103.001 8.45396C102.926 8.63128 102.947 8.72459 103.062 8.72763C103.399 8.73635 104.736 8.15527 104.695 8.0184C104.672 7.94255 104.545 7.91346 104.412 7.95397C104.196 8.02019 104.189 7.99652 104.335 7.72136C104.469 7.47058 104.564 7.43261 104.86 7.51157C105.16 7.59161 105.257 7.54646 105.439 7.24381C105.648 6.89497 105.667 6.88911 105.891 7.1046C106.086 7.29185 106.155 7.28441 106.304 7.05969C106.401 6.91117 106.564 6.81143 106.666 6.83803C106.767 6.86462 107.019 6.72125 107.226 6.5197C107.509 6.24251 107.737 6.15053 108.16 6.14281C108.853 6.13021 108.81 6.14844 108.734 5.89886C108.663 5.66366 109.915 5.02156 110.382 5.05382C110.582 5.06764 110.617 5.01596 110.505 4.87227C110.393 4.72843 110.471 4.61298 110.781 4.46635C111.095 4.3173 111.209 4.32269 111.197 4.48544C111.186 4.63517 111.313 4.66902 111.58 4.58742C111.799 4.52018 111.956 4.39223 111.929 4.30322C111.902 4.21422 111.974 4.16575 112.088 4.19585C112.233 4.23356 112.233 4.13009 112.09 3.85829L111.884 3.46609L112.76 3.25202C113.543 3.06069 113.656 3.07488 113.825 3.38424C114.137 3.95657 114.458 3.81766 114.268 3.19233C114.083 2.5823 114.159 2.52204 115.005 2.60561C115.515 2.65582 115.573 2.63779 115.442 2.4698C115.336 2.33462 115.374 2.282 115.566 2.29526C115.728 2.30637 115.818 2.23624 115.784 2.12475C115.701 1.85009 116.931 1.67599 117.4 1.89609C117.618 1.99822 117.752 1.99804 117.721 1.89542C117.692 1.79831 117.585 1.74411 117.484 1.77506C117.351 1.81595 117.332 1.77119 117.417 1.61193C117.716 1.05263 122.05 0.608704 122.673 1.07341C122.744 1.12675 122.911 1.15366 123.043 1.13338C123.38 1.0819 124.356 1.51973 124.861 1.94871C125.094 2.14716 125.399 2.35311 125.538 2.40618C125.733 2.48038 125.826 2.72284 125.94 3.4531C126.074 4.30938 126.052 4.41452 125.725 4.51478C125.366 4.62493 125.326 5.01249 125.589 5.8518C125.634 5.99854 125.559 6.23241 125.42 6.37149C125.281 6.51073 125.221 6.67129 125.286 6.72832C125.351 6.78535 125.327 6.94837 125.233 7.09077C125.14 7.23317 125.092 7.44443 125.127 7.5602C125.162 7.67612 125.103 7.7978 124.996 7.83063C124.877 7.86711 124.86 8.11592 124.953 8.47066C125.2 9.41515 125.192 9.62937 124.893 10.2015C124.696 10.5778 124.665 10.8387 124.792 11.0461C124.894 11.2115 124.917 11.5494 124.844 11.7992C124.771 12.0484 124.76 12.4134 124.82 12.6107C124.88 12.8078 124.868 13.1337 124.794 13.3348C124.72 13.5359 124.715 13.8905 124.782 14.1226C124.861 14.3933 124.823 14.5698 124.676 14.615C124.549 14.6536 124.475 14.7812 124.511 14.8983C124.546 15.0155 124.48 15.1859 124.363 15.277C124.223 15.3865 124.215 15.5357 124.34 15.7171C124.471 15.9081 124.442 16.1551 124.242 16.5296C124.081 16.8305 124 17.2738 124.058 17.5356C124.114 17.7933 124.073 18.1207 123.966 18.2633C123.859 18.4061 123.824 18.6983 123.89 18.9129C123.964 19.1586 123.882 19.498 123.666 19.8298C123.478 20.1195 123.357 20.4642 123.397 20.5957C123.437 20.7273 123.366 20.8667 123.24 20.9053C123.112 20.9444 123.052 21.1116 123.103 21.2815C123.154 21.4498 123.136 21.6057 123.063 21.6281C122.803 21.7078 123.13 23.0072 123.46 23.2043C123.737 23.37 123.755 23.4389 123.63 23.864C123.473 24.3998 123.571 24.4492 123.83 23.9642C124.12 23.4195 124.215 23.7069 123.987 24.4411C123.868 24.823 123.79 25.1968 123.813 25.2722C123.836 25.3475 123.7 25.3788 123.51 25.3415C123.321 25.3044 123.017 25.3386 122.834 25.4174C122.558 25.537 122.451 25.4676 122.191 24.9996C121.987 24.6319 121.92 24.3643 121.996 24.2237C122.078 24.0706 122.105 24.0995 122.089 24.3254C122.072 24.5748 122.125 24.6096 122.338 24.49C122.487 24.4065 122.569 24.2638 122.519 24.1729C122.47 24.0819 122.527 24.0142 122.647 24.0224C122.78 24.0316 122.827 23.915 122.769 23.7237C122.701 23.4989 122.592 23.4483 122.384 23.545C122.158 23.6507 121.989 23.539 121.611 23.0325C121.141 22.4019 121.135 22.3769 121.371 22.0748C121.505 21.9044 121.545 21.7046 121.461 21.6309C121.378 21.5573 121.409 21.4666 121.53 21.4294C121.651 21.3922 121.745 21.2056 121.737 21.0147C121.73 20.8237 121.811 20.6906 121.918 20.7185C122.024 20.7465 122.089 20.6965 122.062 20.6075C122.035 20.5184 121.952 20.4642 121.878 20.4869C121.804 20.5097 121.665 20.4017 121.57 20.247C121.475 20.0923 121.46 19.9466 121.536 19.9232C121.612 19.8998 121.633 19.743 121.582 19.5748C121.531 19.4066 121.562 19.2466 121.651 19.2193C121.74 19.192 121.75 19.1139 121.672 19.0457C121.595 18.9775 121.604 18.8994 121.693 18.8721C121.782 18.8448 121.808 18.6657 121.749 18.4742C121.691 18.2826 121.696 17.9614 121.76 17.7607C121.823 17.5597 121.885 16.9976 121.896 16.5116C121.907 16.0256 121.979 15.6084 122.057 15.5848C122.134 15.561 122.135 15.3371 122.06 15.0874C121.899 14.5587 122.216 12.546 122.493 12.329C122.744 12.1336 122.63 11.7925 122.307 11.7701C121.915 11.743 121.854 11.2678 122.138 10.4527C122.28 10.0464 122.376 9.47553 122.352 9.18424C122.328 8.89279 122.376 8.63361 122.459 8.6081C122.542 8.58264 122.527 8.44033 122.424 8.29177C122.129 7.8627 122.09 6.90021 122.344 6.30784C122.59 5.73245 122.417 5.27782 122.001 5.40532C121.87 5.44569 121.625 5.41794 121.457 5.34364C121.289 5.26939 120.829 5.25909 120.433 5.3207C119.924 5.40005 119.795 5.4574 119.991 5.5175C120.237 5.59279 120.248 5.62781 120.087 5.83193C119.926 6.03605 119.93 6.05104 120.128 5.96666C120.564 5.78016 120.744 5.79423 120.813 6.02026C120.851 6.14643 120.947 6.22987 121.026 6.20572C121.228 6.14391 121.365 7.31907 121.186 7.57741C121.105 7.69407 121.051 8.09109 121.066 8.45977C121.091 9.0897 120.71 9.97978 120.372 10.0834C120.289 10.109 120.244 10.2167 120.274 10.3225C120.336 10.5495 119.927 11.125 119.486 11.4287C119.309 11.5501 119.212 11.7667 119.261 11.9283C119.31 12.09 119.213 12.3065 119.036 12.4279C118.604 12.726 118.185 13.3055 118.245 13.5239C118.303 13.734 117.809 14.1414 117.216 14.373C117.079 14.4265 117.026 14.502 117.099 14.5407C117.171 14.5794 117.072 14.8733 116.877 15.1938C116.49 15.8289 116.074 16.0751 116.104 15.65C116.12 15.4307 116.078 15.4343 115.836 15.6735C115.679 15.8296 115.528 16.0092 115.501 16.0725C115.319 16.5059 114.604 17.2001 114.219 17.3179C113.781 17.4521 113.294 17.8077 112.308 18.713C112.036 18.9628 111.517 19.2176 110.962 19.3739C110.043 19.6324 109.882 19.8231 110.455 19.9722C110.731 20.0442 110.721 20.0658 110.38 20.1377C109.929 20.2324 109.404 20.7791 109.49 21.0641C109.522 21.1699 109.477 21.2784 109.39 21.3051C109.281 21.3386 109.253 21.2467 109.301 21.0094C109.393 20.5438 109.311 20.3265 109.07 20.4003C108.959 20.4343 108.894 20.7713 108.923 21.1555C108.986 21.9805 108.665 22.2349 107.983 21.8994C107.523 21.6728 107.523 21.673 107.705 21.9698C107.844 22.1965 107.818 22.2886 107.593 22.3574C107.431 22.4071 107.195 22.5898 107.069 22.7633C106.775 23.1694 106.631 23.2149 106.544 22.9295C106.506 22.8033 106.406 22.7212 106.322 22.747C106.238 22.7728 106.2 22.8971 106.238 23.0233C106.277 23.1495 106.205 23.2844 106.078 23.323C105.952 23.3617 105.87 23.4622 105.895 23.5463C105.921 23.6304 105.838 23.7309 105.712 23.7696C105.586 23.8083 105.462 23.7705 105.436 23.6858C105.408 23.5943 105.284 23.6493 105.132 23.8206C104.915 24.0644 104.831 24.0773 104.595 23.903C104.441 23.7894 104.271 23.7097 104.217 23.7262C104.163 23.7428 104.156 23.8768 104.2 24.024C104.258 24.2153 104.146 24.3439 103.806 24.4746C103.545 24.5752 103.305 24.758 103.272 24.8808C103.24 25.0034 102.965 25.1722 102.662 25.2557C102.334 25.3463 102.134 25.4802 102.167 25.5878C102.271 25.9321 101.782 26.4876 101.355 26.5097C101.105 26.5225 100.967 26.5963 100.999 26.7003C101.027 26.7935 100.896 26.9197 100.708 26.9806C100.519 27.0417 100.223 27.2427 100.049 27.4274C99.6192 27.8837 98.9871 28.0629 98.5766 27.8447C98.2566 27.6745 98.2488 27.6812 98.441 27.9606C98.6178 28.2175 98.5757 28.2936 98.126 28.529C97.8406 28.6785 97.5506 28.7709 97.4816 28.7342C97.4126 28.6975 97.2494 28.8534 97.1191 29.0803C96.9563 29.3639 96.6495 29.5743 96.1397 29.7517C95.7314 29.8941 95.3744 30.0802 95.3462 30.1656C95.3008 30.303 94.1254 30.8559 93.4297 31.0671C93.2879 31.1101 93.1199 31.2691 93.0564 31.4202C92.9929 31.5714 92.7168 31.7638 92.4429 31.8478C92.1689 31.9318 91.7284 32.1799 91.4639 32.399C91.1995 32.6183 90.5018 33.0153 89.9133 33.2811C89.3249 33.547 88.555 33.9297 88.2023 34.1317C87.8497 34.3336 87.3253 34.5285 87.037 34.5647C86.6937 34.6079 86.4085 34.7555 86.211 34.9925C86.0451 35.1916 85.6146 35.4459 85.2543 35.5577C84.894 35.6694 84.3463 35.9461 84.0368 36.1725C83.4746 36.5842 82.979 36.7395 82.4128 36.6812C82.2471 36.6643 82.1308 36.5781 82.1543 36.4897C82.1776 36.4013 82.1024 36.4026 81.9869 36.4926C81.8715 36.5829 81.7937 36.7113 81.814 36.7782C81.8683 36.9572 81.0565 37.5367 80.3706 37.8085C80.0422 37.9386 79.0806 38.3042 78.2339 38.6208C76.7031 39.1934 76.6938 39.1946 76.5782 38.8486C76.4639 38.5065 76.4613 38.5068 76.4293 38.8633C76.3873 39.3316 76.0436 39.5943 75.5896 39.5051C75.392 39.4663 75.0613 39.5369 74.855 39.6622C74.4015 39.9372 72.132 40.6494 71.975 40.5658C71.9136 40.5332 71.7555 40.6147 71.6239 40.747C71.4635 40.9081 71.3689 40.9366 71.3375 40.8331C71.3101 40.7428 71.1104 40.7758 70.8568 40.9125C70.4761 41.1176 70.4257 41.107 70.4448 40.8256C70.4655 40.5201 70.4577 40.5215 70.2777 40.8553C70.1738 41.048 69.917 41.2584 69.7071 41.3227C69.4972 41.387 69.2138 41.5517 69.0774 41.6887C68.8921 41.8748 68.8144 41.8881 68.7696 41.7412C68.7237 41.591 68.1512 41.7083 66.3347 42.24C65.026 42.623 63.8025 42.9042 63.6094 42.8663C63.4166 42.8284 63.0822 42.8515 62.8663 42.9176C62.5953 43.0007 62.4478 42.9553 62.3902 42.7711C62.3189 42.5435 62.2953 42.5445 62.2308 42.7781C62.1716 42.9925 61.8552 43.1377 60.7775 43.4458C60.0197 43.6623 59.2298 43.8061 59.0219 43.7652C58.814 43.7244 58.297 43.7943 57.8731 43.9207C57.3587 44.074 57.0532 44.0877 56.9552 43.9618C56.8743 43.858 56.7544 43.8344 56.6888 43.909C56.6231 43.9836 56.3228 44.0725 56.0213 44.1064C55.5985 44.1541 55.4742 44.1024 55.4776 43.8804C55.4811 43.6523 55.4639 43.6467 55.3946 43.8533C55.2918 44.1599 54.1585 44.4081 52.6984 44.4439C52.1962 44.4561 51.5155 44.5034 51.1858 44.5489C50.8559 44.5945 50.4793 44.5615 50.3485 44.4755C50.2179 44.3897 49.9559 44.3668 49.7664 44.4249C49.5769 44.483 49.106 44.5173 48.72 44.5012C48.334 44.4852 47.9286 44.542 47.8189 44.6276C47.5885 44.8075 45.9384 44.7638 45.8815 44.5763C45.8606 44.5073 45.6835 44.5472 45.4882 44.6651C45.289 44.7851 45.0128 44.8291 44.8596 44.7651C44.7092 44.7022 44.4655 44.702 44.318 44.7644C43.8546 44.9608 43.7684 44.9335 43.8955 44.6308C44.0038 44.3728 43.9744 44.3716 43.6538 44.6203C43.353 44.8537 43.2139 44.8671 42.8641 44.6969C42.6305 44.5831 42.1659 44.5282 41.8318 44.5749C41.4974 44.6217 41.2081 44.6076 41.1887 44.5435C41.1693 44.4796 41.0688 44.4587 40.9656 44.4972C40.8622 44.5356 40.4671 44.601 40.0874 44.6423C39.6054 44.6949 39.4242 44.6528 39.4872 44.5028C39.5513 44.3503 39.3831 44.343 38.9071 44.4777C38.5383 44.582 38.028 44.6067 37.7731 44.5327C37.5181 44.4585 37.2005 44.4313 37.0672 44.4722C36.6672 44.5948 35.7851 44.3728 35.7117 44.1311C35.674 44.007 35.5458 43.9355 35.4264 43.9721C35.3072 44.0086 35.1489 43.9632 35.0745 43.871C34.9664 43.737 34.9485 43.7425 34.9853 43.8983C35.039 44.1261 34.5941 44.3061 34.5266 44.0839C34.5016 44.0014 34.3013 43.9431 34.0813 43.9546C33.8615 43.9659 33.6217 43.8982 33.5483 43.804C33.4749 43.71 33.1373 43.6717 32.798 43.7192C32.4585 43.7667 32.0445 43.7017 31.8777 43.5748C31.7108 43.4481 31.4924 43.4082 31.3925 43.4863C31.2821 43.5725 31.1721 43.5181 31.1124 43.348C31.0584 43.1939 31.0057 43.1601 30.9952 43.2731C30.9719 43.527 30.5071 43.5141 30.4291 43.2574C30.3979 43.1544 30.1758 43.0425 29.9355 43.0086C29.6953 42.9748 29.2854 42.9185 29.0245 42.8835C28.7639 42.8485 28.4034 42.752 28.2238 42.6692C26.991 42.1005 26.6868 41.9887 26.3636 41.9856C26.0791 41.9829 25.9956 41.8956 25.9805 41.5858C25.9611 41.1856 25.6802 41.0977 25.6687 41.4881C25.6638 41.6528 25.5588 41.6788 25.1891 41.6069C24.8472 41.5403 24.6791 41.3944 24.5842 41.0818C24.4854 40.7563 24.3797 40.6713 24.1577 40.7394C23.9955 40.7891 23.7281 40.7582 23.5635 40.6707C23.399 40.5832 23.2199 40.5253 23.1654 40.542C23.1109 40.5587 22.4391 40.238 21.6724 39.8295C20.9058 39.4208 20.214 39.1063 20.135 39.1305C20.056 39.1547 19.9741 39.1173 19.9529 39.0474C19.9317 38.9775 19.7143 38.881 19.4697 38.833C19.2251 38.7849 18.9986 38.6585 18.9664 38.5523C18.9341 38.446 18.7504 38.3575 18.558 38.3556C18.2831 38.353 18.2041 38.2642 18.1883 37.9402C18.1652 37.4629 17.7906 37.1523 17.5061 37.3745C17.3976 37.4593 17.0778 37.4038 16.7887 37.2501C16.5019 37.0976 16.2027 36.9925 16.1238 37.0167C16.045 37.0409 15.9693 36.9325 15.9557 36.7757C15.9419 36.619 15.7929 36.4203 15.6247 36.3339C15.258 36.1457 15.0449 35.68 15.2851 35.5917C15.3792 35.557 15.2825 35.5137 15.0701 35.4957C14.8577 35.4776 14.6519 35.3575 14.6127 35.2286C14.5708 35.0905 14.6816 34.947 14.883 34.8791C15.2158 34.7668 15.2136 34.7626 14.7911 34.7141C14.5528 34.6868 14.2701 34.7079 14.1628 34.761C13.8762 34.9029 13.3807 34.4827 13.3806 34.0978C13.3806 33.8083 13.3566 33.8011 13.1972 34.043C12.9237 34.4581 12.6054 34.291 12.5246 33.6898C12.4788 33.3498 12.3929 33.1891 12.2775 33.2282C11.6796 33.4296 11.5455 33.3881 11.4159 32.9613C11.3394 32.7091 11.1714 32.5112 11.0254 32.5011C10.8845 32.4915 10.7163 32.3093 10.6517 32.0963C10.5782 31.8542 10.4482 31.7356 10.3047 31.7796C10.1579 31.8245 10.0304 31.7026 9.95117 31.4414C9.88299 31.2168 9.6787 30.9443 9.49725 30.8357C9.31584 30.7273 9.09671 30.4418 9.01019 30.2014C8.92382 29.9609 8.72119 29.6773 8.5599 29.5713C8.30559 29.404 8.29214 29.3332 8.45887 29.0356C8.64095 28.7103 8.65177 28.714 8.66415 29.1064C8.67414 29.4231 8.69867 29.4549 8.76826 29.2417C8.83596 29.0344 8.8756 29.0145 8.92301 29.1641C9.00302 29.4173 9.61956 29.1447 9.62638 28.8531C9.62965 28.7146 9.55228 28.7044 9.40004 28.8232C9.24889 28.9413 9.04814 28.9174 8.82159 28.7544C8.61323 28.6047 8.26809 28.552 7.95769 28.6225C7.50152 28.7264 7.43875 28.6953 7.42226 28.3572C7.40223 27.9451 7.04705 27.6797 6.67033 27.7952C6.4226 27.8711 6.27346 27.3224 6.47826 27.0885C6.62421 26.9219 6.30627 26.5041 5.81826 26.2209C5.24993 25.8913 5.02544 25.4107 5.23335 24.9693C5.40841 24.5978 5.40128 24.5903 4.9912 24.7159C4.65441 24.8191 4.57289 24.7858 4.58973 24.5515C4.60142 24.3899 4.57816 24.3188 4.5383 24.3936C4.39364 24.6647 3.57213 23.5896 3.26102 22.7221C3.08592 22.2334 2.90715 21.8444 2.86385 21.8577C2.8205 21.8708 2.63714 21.4606 2.45632 20.9459C2.27571 20.4312 2.05625 19.9908 1.96879 19.9671C1.7328 19.9032 1.27037 18.8055 1.33766 18.4685C1.37195 18.296 1.262 17.9651 1.06899 17.6604C0.766484 17.1827 0.766228 17.1026 1.06671 16.5828C1.34544 16.1003 1.438 16.0372 1.7216 16.1357ZM5.82095 23.8945C5.83098 23.9275 5.94249 23.9229 6.06872 23.8843C6.19496 23.8456 6.27801 23.7472 6.25327 23.6657C6.22858 23.5844 6.11707 23.589 6.0055 23.676C5.89398 23.7631 5.81093 23.8615 5.82095 23.8945ZM8.17502 26.132C8.19446 26.2005 8.26622 26.1928 8.3346 26.1151C8.40297 26.0373 8.42254 25.8576 8.37815 25.7157C8.30838 25.4936 8.28631 25.4958 8.21856 25.7327C8.1753 25.8839 8.15575 26.0636 8.17502 26.132ZM8.07066 27.4496C8.09619 27.5337 8.18593 27.5814 8.27008 27.5556C8.35424 27.5298 8.40222 27.4399 8.37669 27.3558C8.35116 27.2717 8.26141 27.224 8.17726 27.2498C8.0931 27.2756 8.04513 27.3655 8.07066 27.4496ZM14.7936 32.2426C14.7671 32.3427 14.8568 32.3904 14.993 32.3486C15.1292 32.3069 15.1772 32.217 15.0996 32.1488C15.0221 32.0806 14.9323 32.0329 14.9002 32.0428C14.8681 32.0526 14.8201 32.1425 14.7936 32.2426ZM13.303 33.1173C13.3413 33.2435 13.4843 33.3125 13.6208 33.2706C13.8241 33.2083 13.8221 33.1636 13.609 33.0235C13.4659 32.9295 13.3229 32.8605 13.2912 32.8702C13.2594 32.8799 13.2647 32.9911 13.303 33.1173ZM14.3835 33.3712C14.409 33.4553 14.5029 33.5018 14.592 33.4745C14.681 33.4472 14.6906 33.369 14.613 33.3009C14.5355 33.2327 14.4418 33.1862 14.4046 33.1976C14.3674 33.209 14.358 33.2871 14.3835 33.3712ZM15.3152 33.3354C15.4017 33.4463 15.5284 33.4733 15.597 33.3953C15.6736 33.3081 15.6262 33.2276 15.474 33.1858C15.1419 33.0948 15.1338 33.1023 15.3152 33.3354ZM15.1006 34.0807C15.1403 34.2117 15.2289 34.2555 15.2973 34.1777C15.3656 34.0999 15.402 33.9716 15.3779 33.8924C15.3539 33.8131 15.2654 33.7696 15.1812 33.7953C15.0971 33.8211 15.0608 33.9496 15.1006 34.0807ZM113.412 4.64247C113.571 4.63585 113.724 4.70569 113.752 4.7976C113.78 4.88951 113.831 4.9108 113.867 4.84486C113.973 4.64524 113.647 4.45405 113.377 4.55761C113.148 4.64518 113.152 4.65346 113.412 4.64247ZM116.083 4.96249C116.17 5.0738 116.26 5.15883 116.284 5.15147C116.308 5.14411 116.336 5.02268 116.347 4.88165C116.358 4.72698 116.278 4.65202 116.145 4.69268C116.013 4.73333 115.988 4.84036 116.083 4.96249ZM105.58 8.1811C105.48 8.42073 105.511 8.45307 105.768 8.37434C105.937 8.32238 106.085 8.16448 106.095 8.02344C106.106 7.87372 106.027 7.79335 105.907 7.83021C105.794 7.86491 105.647 8.02281 105.58 8.1811ZM15.6015 36.0067C15.5746 36.1082 15.7093 36.1397 15.906 36.078C16.1897 35.9889 16.2049 35.9522 15.984 35.8895C15.6435 35.7929 15.6594 35.788 15.6015 36.0067ZM105.261 9.40946C105.431 9.49938 105.468 9.46401 105.409 9.26994C105.366 9.12695 105.403 8.98759 105.492 8.9603C105.581 8.93301 105.59 8.85449 105.512 8.7857C105.425 8.70885 105.306 8.78161 105.203 8.97499C105.077 9.20943 105.093 9.31965 105.261 9.40946ZM119.171 4.8693C119.237 4.9045 119.371 4.86954 119.468 4.79154C119.575 4.70533 119.528 4.6802 119.347 4.72749C119.184 4.77034 119.105 4.8341 119.171 4.8693ZM125.468 3.17291C125.493 3.25702 125.583 3.30474 125.667 3.27895C125.751 3.25315 125.799 3.16323 125.774 3.07912C125.748 2.99501 125.659 2.94729 125.574 2.97308C125.49 2.99888 125.442 3.0888 125.468 3.17291ZM106.677 9.35984C107.055 9.56078 107.045 9.44141 106.655 9.10167C106.499 8.96588 106.369 8.93075 106.367 9.02345C106.364 9.11634 106.504 9.26758 106.677 9.35984ZM106.477 9.85989C106.563 9.96682 106.588 9.91946 106.542 9.73904C106.499 9.57584 106.436 9.49668 106.4 9.56302C106.365 9.62936 106.4 9.76303 106.477 9.85989ZM111.314 8.33642C111.338 8.41564 111.302 8.54395 111.233 8.62173C111.165 8.69952 111.076 8.65578 111.036 8.52472C110.997 8.39366 111.033 8.2652 111.117 8.23941C111.201 8.21362 111.29 8.25721 111.314 8.33642ZM118.728 6.31498C118.739 6.35214 118.83 6.40384 118.93 6.43004C119.03 6.45625 119.09 6.40471 119.063 6.31571C119.036 6.2267 118.945 6.17485 118.861 6.20065C118.776 6.22644 118.717 6.27782 118.728 6.31498ZM109.314 9.31424C109.242 9.45069 109.132 9.53548 109.071 9.50277C109.01 9.47011 109.069 9.3586 109.202 9.25486C109.395 9.10515 109.418 9.11719 109.314 9.31424ZM103.268 20.6742C103.241 20.7743 103.288 20.835 103.372 20.8092C103.457 20.7834 103.547 20.6805 103.574 20.5804C103.6 20.4804 103.553 20.4196 103.469 20.4454C103.385 20.4712 103.294 20.5742 103.268 20.6742ZM40.2032 43.8769C40.289 43.9838 40.3142 43.9364 40.2675 43.756C40.2252 43.5928 40.1617 43.5137 40.1263 43.58C40.0909 43.6463 40.1254 43.78 40.2032 43.8769ZM44.9451 42.9947C45.0113 43.0299 45.145 42.9949 45.2419 42.9169C45.3492 42.8307 45.302 42.8056 45.1215 42.8529C44.9582 42.8957 44.8789 42.9595 44.9451 42.9947ZM43.5189 43.4045C43.5679 43.5658 43.8821 43.5437 43.9266 43.3756C43.9535 43.274 43.8681 43.2237 43.737 43.2639C43.6059 43.3041 43.5077 43.3673 43.5189 43.4045ZM60.4259 39.3177C60.3986 39.4207 60.4678 39.4276 60.5881 39.3337C60.8223 39.1508 60.8375 39.0262 60.6175 39.0937C60.5382 39.118 60.4521 39.2188 60.4259 39.3177ZM122.374 22.1836C122.426 22.3568 122.523 22.4377 122.588 22.3633C122.653 22.2889 122.637 22.1389 122.553 22.03C122.335 21.7511 122.261 21.8143 122.374 22.1836ZM59.5124 41.271C59.4859 41.3711 59.5716 41.42 59.7028 41.3798C59.8339 41.3397 59.9204 41.2379 59.8949 41.1538C59.8694 41.0697 59.7837 41.0207 59.7045 41.045C59.6252 41.0693 59.5389 41.171 59.5124 41.271ZM121.851 22.9648C121.981 23.0396 122.331 22.6364 122.221 22.5391C122.152 22.4787 122.029 22.5431 121.948 22.6821C121.866 22.8211 121.822 22.9483 121.851 22.9648ZM121.824 23.6794C121.85 23.7635 121.797 23.8547 121.708 23.882C121.619 23.9093 121.568 23.8498 121.595 23.7497C121.621 23.6497 121.673 23.5586 121.71 23.5472C121.747 23.5358 121.799 23.5953 121.824 23.6794ZM72.1688 39.7146C72.1915 39.7897 72.3216 39.8589 72.4577 39.8683C72.6233 39.8797 72.6548 39.8206 72.5529 39.6898C72.3866 39.4764 72.102 39.4947 72.1688 39.7146ZM75.3732 39.2519C75.3988 39.3361 75.4885 39.3838 75.5727 39.358C75.6568 39.3322 75.7048 39.2423 75.6793 39.1582C75.6537 39.074 75.564 39.0263 75.4798 39.0521C75.3957 39.0779 75.3477 39.1678 75.3732 39.2519ZM123.258 25.0966C123.324 25.3166 123.571 25.1722 123.59 24.9018C123.602 24.7362 123.543 24.7048 123.412 24.8071C123.304 24.8913 123.235 25.0216 123.258 25.0966ZM123.346 25.8346C123.249 25.9126 123.115 25.9475 123.049 25.9123C122.983 25.8771 123.062 25.8134 123.225 25.7705C123.406 25.7232 123.453 25.7484 123.346 25.8346Z" fill="white"/>
</svg>
