<svg width="152" height="39" viewBox="0 0 152 39" fill="none" xmlns="http://www.w3.org/2000/svg">
<path fill-rule="evenodd" clip-rule="evenodd" d="M66.3196 0.120694C65.9789 0.181707 65.6097 0.287299 65.4991 0.35548C65.3885 0.423661 65.2486 0.399361 65.188 0.301635C65.0471 0.0743657 64.3975 0.0689457 64.3975 0.295166C64.3975 0.399011 64.2248 0.387649 63.9577 0.266322C63.6136 0.109855 63.4169 0.120169 63.0527 0.313873C62.7028 0.499709 62.5698 0.508975 62.5166 0.351635C62.4628 0.191847 62.3417 0.1894 62.0069 0.34167C61.707 0.477857 61.5301 0.4838 61.4488 0.360026C61.3834 0.260377 60.9987 0.167197 60.5938 0.153036C60.015 0.132757 59.7995 0.209854 59.5859 0.51422C59.4365 0.726979 59.3142 0.818936 59.3142 0.718762C59.3142 0.517716 57.2861 0.406529 56.9869 0.590966C56.8854 0.653553 56.2942 0.686245 55.6729 0.663867C54.7141 0.629253 54.481 0.681699 54.1294 1.01107C53.8077 1.31246 53.6612 1.35442 53.4733 1.19883C53.125 0.910368 51.7311 1.00023 51.489 1.32679C51.3266 1.5462 51.2393 1.55564 51.024 1.37767C50.8351 1.22103 50.7404 1.21456 50.6936 1.35494C50.6519 1.47942 50.0836 1.55267 49.1427 1.55494C48.326 1.55686 47.2238 1.68204 46.6936 1.83326C46.1633 1.98448 45.4692 2.08797 45.1511 2.0635C44.8329 2.03885 44.4743 2.10021 44.3542 2.19951C44.2341 2.29898 43.9817 2.38307 43.7933 2.3864C43.0771 2.39916 42.0362 2.6287 41.6986 2.84828C41.5055 2.97397 41.0239 3.07205 40.6288 3.06611C40.2336 3.06034 39.7603 3.13551 39.5771 3.23324C39.3938 3.33114 38.8693 3.46715 38.4113 3.53568C37.9533 3.60421 37.5787 3.72991 37.5787 3.81522C37.5787 3.90036 37.4385 3.97011 37.2672 3.97011C37.0958 3.97011 36.7866 4.08812 36.5803 4.23235C36.3738 4.37658 36.0807 4.44703 35.9289 4.38881C35.7771 4.33077 35.3398 4.44598 34.9571 4.64493C34.5224 4.87098 34.22 4.94021 34.1515 4.82954C34.0847 4.72185 33.962 4.71433 33.8383 4.81066C33.7263 4.89772 32.9762 5.2166 32.1713 5.51939C31.3664 5.82201 30.5134 6.22235 30.2758 6.40871C30.0382 6.59525 29.7304 6.70434 29.592 6.65137C29.4197 6.58546 29.3403 6.67794 29.3403 6.94472C29.3403 7.23633 29.285 7.28912 29.1211 7.15398C28.9686 7.02829 28.6892 7.04752 28.2009 7.21744C27.8153 7.35153 27.4799 7.46255 27.4559 7.46394C27.4319 7.46534 27.4109 7.64366 27.4095 7.85992C27.4075 8.144 27.3653 8.18806 27.2577 8.01866C27.1332 7.82285 27.0465 7.82268 26.7345 8.01691C26.5287 8.14505 26.3604 8.2996 26.3604 8.36044C26.3604 8.4211 26.0252 8.52285 25.6154 8.58648C24.5315 8.75466 23.3805 9.22546 23.3805 9.5008C23.3805 9.63192 23.2662 9.73926 23.1267 9.73926C22.987 9.73926 22.6615 9.93454 22.4035 10.173C22.1453 10.4116 21.8673 10.5656 21.7856 10.5153C21.7039 10.465 21.499 10.5844 21.3304 10.7807C21.1619 10.9772 20.8443 11.1378 20.6247 11.1378C20.3837 11.1378 20.2254 11.2436 20.2254 11.4044C20.2254 11.5509 20.0282 11.7457 19.7872 11.8371C19.5461 11.9286 19.3477 12.1429 19.3463 12.3135C19.3442 12.5432 19.3062 12.5649 19.1994 12.3971C19.0844 12.2165 18.9432 12.2342 18.5021 12.4845C18.1978 12.6574 17.9484 12.8971 17.9477 13.0172C17.9472 13.1375 17.7889 13.2357 17.5961 13.2357C17.4033 13.2357 17.2455 13.2987 17.2455 13.3757C17.2455 13.4527 16.8906 13.6876 16.4567 13.8979C16.0229 14.1081 15.6679 14.3598 15.6679 14.4572C15.6679 14.5546 15.5496 14.6343 15.405 14.6343C15.259 14.6343 15.1421 14.7897 15.1421 14.9839C15.1421 15.1782 15.0252 15.3336 14.8792 15.3336C14.7345 15.3336 14.6162 15.4123 14.6162 15.5084C14.6162 15.6046 14.5177 15.6834 14.3971 15.6836C14.0699 15.6843 12.8983 16.7297 13.2139 16.7395C13.3586 16.7439 13.2008 16.8467 12.8634 16.9678C12.5259 17.0888 12.0215 17.4002 11.7422 17.6594C11.463 17.9187 11.1673 18.1308 11.0849 18.1308C11.0025 18.1308 10.9352 18.2467 10.9352 18.3884C10.9352 18.5302 10.7154 18.7596 10.4465 18.8982C10.1778 19.0369 9.64968 19.511 9.27299 19.9517C8.8963 20.3924 8.50278 20.7531 8.39848 20.7531C8.15974 20.7531 7.25457 21.769 7.25317 22.0386C7.25246 22.1489 7.01863 22.3714 6.73362 22.5333C6.44843 22.695 6.16429 23.0295 6.10206 23.2763C6.04001 23.5232 5.90346 23.7251 5.79864 23.7251C5.49084 23.7251 4.62493 24.6382 4.62493 24.9628C4.62493 25.1268 4.50661 25.3063 4.362 25.3618C4.21739 25.417 4.09907 25.5932 4.09907 25.7532C4.09907 25.9133 3.96112 26.1722 3.79232 26.3287C3.37338 26.7173 3.04735 27.325 3.04735 27.7168C3.04735 27.8958 2.8945 28.2178 2.70765 28.4327C2.52097 28.6476 2.40808 28.9271 2.45681 29.0538C2.5108 29.1941 2.42807 29.2743 2.24559 29.2582C1.78529 29.218 1.7618 29.5857 2.20984 29.8204C2.42947 29.9355 2.48276 29.9946 2.32815 29.9521C2.08608 29.8853 1.46978 30.3764 1.46978 30.636C1.46978 30.6849 1.26259 31.0524 1.0093 31.4524C0.627529 32.0555 0.584233 32.2368 0.756364 32.5117C0.905357 32.7494 0.910791 32.9073 0.775646 33.0697C0.573716 33.3122 0.703779 33.8648 0.962676 33.8648C1.04874 33.8648 1.11921 33.9361 1.11921 34.0232C1.11921 34.1104 0.961449 34.1405 0.768634 34.0903C0.533576 34.0289 0.418062 34.0849 0.418062 34.2601C0.418062 34.4038 0.300796 34.6183 0.157587 34.7368C-0.0702848 34.9254 -0.059417 35.0073 0.24523 35.3936C0.625075 35.8751 0.709738 36.4871 0.396677 36.4871C0.254871 36.4871 0.252767 36.5508 0.389315 36.7148C0.493435 36.8399 0.534101 37.1125 0.479587 37.3203C0.347772 37.8231 0.823674 38.2971 1.30659 38.1441C1.52552 38.0749 1.63262 37.9308 1.57565 37.7826C1.52289 37.6453 1.58582 37.5361 1.71781 37.5361C1.97408 37.5361 2.15935 38.0132 2.04016 38.3665C1.99967 38.4868 1.85471 38.585 1.71816 38.585C1.40212 38.585 1.39423 38.8684 1.70694 38.988C1.83735 39.038 2.07399 38.9275 2.2328 38.7425C2.54779 38.3756 2.61895 37.8857 2.35708 37.8857C2.15848 37.8857 2.18249 37.1403 2.38565 36.9988C2.46488 36.9436 2.56584 36.7116 2.60984 36.4831C2.65401 36.2546 2.81002 36.0008 2.95638 35.9191C3.10274 35.8373 3.22264 35.5532 3.22264 35.2878C3.22264 34.9814 3.42597 34.5978 3.77952 34.2372C4.1769 33.8317 4.34026 33.4966 4.3492 33.0681C4.35884 32.6174 4.4386 32.4671 4.66875 32.4667C4.94833 32.4662 5.04596 32.2951 4.93168 32.0056C4.90749 31.9444 5.0556 31.8325 5.26051 31.757C5.54588 31.6515 5.61301 31.5138 5.54693 31.1687C5.48278 30.8346 5.53379 30.718 5.74378 30.718C5.89978 30.718 6.02721 30.6393 6.02721 30.5432C6.02721 30.447 6.14553 30.3683 6.29014 30.3683C6.43475 30.3683 6.55307 30.2841 6.55307 30.1811C6.55307 30.078 6.67647 29.8706 6.82722 29.7203C7.02109 29.5269 7.04685 29.3923 6.91486 29.2607C6.63318 28.9797 6.69085 28.7733 7.03511 28.8309C7.21373 28.8608 7.34186 28.7729 7.34186 28.6201C7.34186 28.4759 7.49962 28.3115 7.69243 28.2549C7.88525 28.1984 8.02337 28.0607 7.99918 27.949C7.97517 27.8374 8.06001 27.746 8.18779 27.746C8.31557 27.746 8.59866 27.5565 8.81689 27.3249C9.18692 26.9318 9.192 26.8979 8.89121 26.8207C8.66737 26.763 8.71172 26.7315 9.03617 26.7173C9.36343 26.7032 9.6786 26.4752 10.0879 25.9572C10.9652 24.8464 11.2681 24.5817 11.5989 24.6366C11.7966 24.6695 11.9184 24.5522 11.9554 24.2932C11.989 24.056 12.1333 23.8999 12.3189 23.8999C12.4958 23.8999 12.7733 23.6216 12.9726 23.2443C13.1629 22.8838 13.3938 22.5781 13.4855 22.5651C14.0772 22.4817 14.493 22.2181 14.6579 21.8218C14.7626 21.5706 14.8353 21.3059 14.8197 21.2339C14.8043 21.1618 14.89 21.0907 15.0106 21.0762C15.131 21.0615 15.3086 21.0312 15.405 21.0089C15.5014 20.9865 15.7275 20.9592 15.9076 20.948C16.1449 20.9335 16.2096 20.8319 16.143 20.5783C16.0701 20.3001 16.1377 20.2286 16.4732 20.2286C16.7051 20.2286 16.8949 20.1393 16.8949 20.0302C16.8949 19.7732 17.6525 19.0751 18.2855 18.7487C18.5577 18.6082 18.8271 18.3724 18.8839 18.2246C18.9409 18.0769 19.143 17.9559 19.3332 17.9559C19.5232 17.9559 19.7163 17.8954 19.7621 17.8217C19.8078 17.7477 19.5167 17.7086 19.1151 17.7346C18.4629 17.7767 18.4273 17.7601 18.7823 17.5787C19.056 17.4386 19.1477 17.2755 19.0771 17.0538C18.9519 16.6603 19.1328 16.6411 19.5358 17.0049C19.8121 17.2542 19.8769 17.2386 20.2946 16.822C20.5458 16.5715 20.7512 16.449 20.7512 16.5495C20.7512 16.7883 21.2296 16.7869 21.3095 16.5479C21.3434 16.4465 21.5274 16.3402 21.7185 16.3119C21.9356 16.2796 22.0659 16.1252 22.0659 15.9C22.0659 15.3995 22.2717 15.2436 22.5875 15.5049C22.7653 15.6519 22.8547 15.6614 22.8547 15.5331C22.8547 15.4271 23.0519 15.2909 23.2929 15.2306C23.5339 15.1703 23.7311 15.0114 23.7311 14.8777C23.7311 14.7226 23.9264 14.6343 24.2692 14.6343C24.7914 14.6343 26.0431 13.9149 26.5218 13.3397C26.6477 13.1885 26.8156 13.1048 26.8948 13.1535C26.9741 13.2025 27.3201 13.0848 27.6636 12.8924C28.0074 12.6999 28.2885 12.5824 28.2885 12.6314C28.2885 12.8125 29.436 12.1233 29.6589 11.8081C29.7862 11.6286 29.9671 11.5291 30.061 11.587C30.1552 11.645 30.3271 11.6158 30.4435 11.5223C30.5597 11.4287 31.0099 11.2969 31.4437 11.2295C31.8775 11.1618 32.5266 10.9169 32.8861 10.6852C33.2454 10.4534 33.7015 10.2637 33.8996 10.2637C34.0975 10.2637 34.5527 10.1337 34.9112 9.97457C35.2697 9.81549 35.6328 9.70098 35.7184 9.72021C35.8039 9.73944 36.05 9.59014 36.2653 9.38857C36.5485 9.12319 36.7813 9.05308 37.1081 9.1349C37.3973 9.20728 37.7032 9.14766 37.9587 8.96917C38.1782 8.81585 38.6977 8.69033 39.1132 8.69033C39.6045 8.69033 39.9018 8.60344 39.9642 8.44155C40.0168 8.30484 40.1761 8.14838 40.3182 8.09401C40.462 8.03894 40.5298 8.07093 40.4709 8.16586C40.411 8.26271 40.4828 8.29156 40.6371 8.23264C40.7868 8.1753 40.9154 7.99925 40.923 7.84121C40.9305 7.68317 40.9707 7.63475 41.012 7.73335C41.1014 7.94611 42.4867 7.84768 42.4867 7.62845C42.4867 7.54541 42.611 7.52513 42.7631 7.58335C42.9957 7.67233 43.6399 7.51901 45.2913 6.98143C45.6527 6.86378 46.2361 6.7914 47.5497 6.70119C48.1653 6.65906 48.7174 6.5484 48.7767 6.45539C48.8792 6.29473 49.3204 6.24788 51.3386 6.18337C51.8207 6.16798 52.268 6.08215 52.3327 5.99264C52.3974 5.90313 52.7918 5.80907 53.2091 5.78372C53.6265 5.7582 54.0149 5.7332 54.0721 5.72796C54.1294 5.72271 54.3981 5.52831 54.6691 5.29597C55.0817 4.9423 55.2002 4.91188 55.3976 5.10873C55.5271 5.23793 55.6332 5.42342 55.6332 5.52079C55.6332 5.77061 58.0886 5.55121 58.5087 5.26398C58.7517 5.09772 58.9354 5.08531 59.1845 5.21817C59.3808 5.32307 59.7983 5.34737 60.1652 5.27534C60.5166 5.20646 62.7366 5.12534 65.0986 5.09527C67.4606 5.06503 69.5714 5.03478 69.7893 5.02797C70.0073 5.02097 70.3623 4.83916 70.578 4.62395L70.9707 4.23235L71.0294 4.64615C71.0818 5.01555 71.1547 5.04912 71.7085 4.95961C72.0496 4.90437 72.4767 4.7257 72.6576 4.56241C72.9689 4.28147 72.9865 4.28444 72.9865 4.61941C72.9865 4.90716 73.1095 4.97832 73.6438 4.99999C75.1872 5.06258 76.0336 5.00629 76.2506 4.82657C76.4226 4.68409 76.552 4.70402 76.7523 4.90384C77.0871 5.23775 80.355 5.28338 80.565 4.95699C80.6473 4.82884 80.6947 4.86678 80.6964 5.06276C80.6992 5.39072 81.2035 5.45471 81.8382 5.20768C82.0652 5.1194 82.2505 5.15401 82.3641 5.30576C82.4607 5.4346 83.0128 5.58478 83.5913 5.6395C84.1697 5.69422 84.8789 5.76712 85.1674 5.80156C85.456 5.836 85.7403 5.78617 85.7994 5.69089C85.8661 5.5832 85.9992 5.60523 86.1513 5.74911C86.4376 6.02008 87.7105 6.14491 87.7105 5.9019C87.7105 5.81082 88.0006 5.85715 88.3554 6.00487C88.71 6.1526 89.2919 6.24578 89.6486 6.21186C90.1175 6.16728 90.2735 6.21152 90.212 6.3713C90.1365 6.5678 90.4909 6.68494 90.9266 6.60749C91.0085 6.59298 91.5607 6.71168 92.1536 6.8713C92.7468 7.03091 93.6264 7.18213 94.1084 7.2073C94.5905 7.23248 95.1426 7.30486 95.3354 7.36849C95.6133 7.45992 95.7563 7.35346 96.0248 6.85486C96.2985 6.34718 96.3933 6.27847 96.5163 6.49805C96.6003 6.6477 96.6206 6.84805 96.5616 6.9435C96.5025 7.03895 96.5474 7.11692 96.6611 7.11692C96.8173 7.11692 96.8189 7.17636 96.6678 7.35783C96.5093 7.54821 96.5507 7.62094 96.8655 7.70503C97.4837 7.87023 97.5581 7.84104 97.4426 7.47811C97.3516 7.19227 97.4178 7.14227 97.8688 7.15503C98.3081 7.16745 98.4029 7.24297 98.4029 7.58055C98.4029 8.18579 99.01 8.72057 99.5449 8.58666C99.7881 8.52582 100.28 8.59697 100.658 8.74784C101.162 8.94889 101.385 8.96742 101.533 8.82022C101.681 8.67302 101.823 8.72075 102.09 9.00675C102.364 9.29906 102.594 9.37318 103.054 9.31619C103.404 9.27301 103.715 9.3279 103.792 9.44661C103.865 9.55954 104.201 9.75098 104.538 9.8723C105.055 10.0581 105.181 10.0522 105.342 9.83454C105.486 9.63821 105.581 9.62528 105.736 9.78034C105.848 9.89241 105.94 10.0775 105.94 10.1921C105.94 10.4903 107.388 11.1275 108.358 11.2557C108.812 11.3156 109.339 11.4711 109.529 11.6009C109.719 11.7308 109.99 11.8371 110.131 11.8371C110.272 11.8371 110.747 12.0134 111.187 12.2287C111.695 12.4775 112.314 12.621 112.881 12.6221C113.564 12.6235 113.77 12.6854 113.757 12.8861C113.747 13.0476 113.926 13.1696 114.222 13.2035C114.488 13.234 114.705 13.3238 114.705 13.4032C114.705 13.6006 116.018 14.1098 116.527 14.1098C116.754 14.1098 117.038 14.2278 117.159 14.3721C117.396 14.6581 118.035 14.7324 118.035 14.474C118.035 14.3859 117.936 14.2742 117.816 14.2256C117.681 14.1714 117.711 14.132 117.894 14.1236C118.057 14.1161 118.331 14.3474 118.503 14.6378C118.675 14.9282 118.916 15.1273 119.039 15.0803C119.162 15.0334 119.262 15.0633 119.262 15.1469C119.262 15.2306 119.552 15.2908 119.907 15.2808C120.27 15.2705 120.584 15.3549 120.623 15.4729C120.662 15.5885 120.796 15.6832 120.92 15.6832C121.045 15.6832 121.245 15.8012 121.365 15.9455C121.485 16.0897 121.732 16.2077 121.913 16.2077C122.094 16.2077 122.407 16.3727 122.61 16.5745C122.847 16.8108 123.125 16.9131 123.392 16.8621C123.62 16.8185 123.843 16.8699 123.888 16.976C123.941 17.1054 124.023 17.0906 124.135 16.9309C124.277 16.7297 124.32 16.7297 124.412 16.9309C124.495 17.114 124.544 17.1191 124.622 16.9523C124.7 16.7855 124.783 16.7941 124.978 16.9885C125.118 17.1278 125.368 17.1984 125.534 17.1453C125.765 17.0713 125.78 17.0885 125.597 17.2184C125.397 17.361 125.397 17.4119 125.597 17.5407C125.728 17.6248 125.954 17.7017 126.098 17.7115C126.243 17.7213 126.499 17.7411 126.668 17.7552C126.836 17.7694 126.975 17.8991 126.975 18.0433C126.975 18.2259 127.159 18.3056 127.579 18.3056C127.945 18.3056 128.245 18.4134 128.337 18.5788C128.422 18.729 128.615 18.8702 128.767 18.8925C128.918 18.9147 129.165 19.0342 129.315 19.158C129.465 19.282 129.737 19.3358 129.921 19.2776C130.119 19.2152 130.346 19.2809 130.477 19.4379C130.599 19.5844 130.827 19.7047 130.984 19.7054C131.141 19.7059 131.506 19.8627 131.795 20.0538C132.084 20.2449 132.459 20.4017 132.628 20.4022C132.796 20.4029 132.934 20.4653 132.934 20.5409C132.934 20.6779 133.344 20.7489 134.147 20.751C134.38 20.7517 134.71 20.8781 134.881 21.0319C135.051 21.186 135.26 21.269 135.345 21.2167C135.43 21.1643 135.61 21.2746 135.746 21.4618C135.881 21.6489 136.083 21.802 136.194 21.802C136.306 21.802 136.495 21.92 136.615 22.0643C136.897 22.4024 137.316 22.4024 137.316 22.0643C137.316 21.92 137.238 21.802 137.141 21.802C137.045 21.802 136.966 21.7307 136.966 21.6436C136.966 21.5566 137.157 21.5753 137.391 21.6852C137.706 21.8335 137.768 21.9426 137.632 22.1059C137.531 22.2272 137.518 22.3345 137.602 22.3445C137.686 22.3545 138.055 22.3877 138.421 22.4183C139.144 22.4784 139.595 22.7538 139.595 23.1345C139.595 23.267 139.677 23.3754 139.777 23.3754C139.876 23.3754 140.164 23.5102 140.416 23.6749C140.669 23.8398 140.993 23.9919 141.138 24.013C141.282 24.0342 141.46 24.1469 141.532 24.2634C141.604 24.38 141.79 24.4266 141.945 24.3674C142.121 24.3001 142.309 24.3894 142.444 24.6041C142.562 24.7938 142.79 24.9488 142.949 24.9488C143.111 24.9488 143.286 25.1404 143.348 25.3859C143.409 25.6263 143.581 25.8229 143.73 25.8229C143.972 25.8229 143.973 25.8521 143.739 26.0852C143.595 26.2294 143.392 26.3474 143.289 26.3474C143.185 26.3474 143.101 26.4282 143.101 26.5268C143.101 26.6287 142.874 26.5887 142.573 26.434C142.194 26.2385 141.954 26.2109 141.72 26.3359C141.541 26.4317 141.34 26.456 141.274 26.3901C141.208 26.3242 141.083 26.3836 140.997 26.5224C140.862 26.7413 140.828 26.7406 140.742 26.5173C140.66 26.3016 140.24 26.2742 138.147 26.3474C136.775 26.3955 135.544 26.5039 135.412 26.5883C135.259 26.6871 135.119 26.656 135.021 26.5009C134.899 26.309 134.867 26.3069 134.865 26.4909C134.864 26.618 134.76 26.8243 134.635 26.9493C134.448 27.1357 134.339 27.1217 134.029 26.8714C133.725 26.6259 133.504 26.5946 132.898 26.7116C132.484 26.7913 132.086 26.86 132.014 26.8642C131.942 26.8684 131.883 26.9899 131.883 27.1341C131.883 27.2783 131.801 27.3964 131.702 27.3964C131.602 27.3964 131.476 27.2783 131.42 27.1341C131.3 26.8228 130.979 26.7943 130.702 27.0705C130.47 27.3018 130.847 27.7831 131.221 27.7339C131.74 27.6658 131.906 27.7682 131.876 28.1393C131.802 29.0526 131.875 29.3114 132.176 29.1962C132.398 29.111 132.442 29.1547 132.357 29.3764C132.29 29.551 132.33 29.6701 132.458 29.6715C132.575 29.6727 132.849 29.7213 133.066 29.7792C133.356 29.8568 133.46 29.8098 133.46 29.6021C133.46 29.2799 133.69 29.2428 134.153 29.49C134.407 29.625 134.492 29.5886 134.564 29.3152C134.614 29.1252 134.746 28.9698 134.858 28.9698C134.981 28.9698 135.018 29.1068 134.95 29.3184C134.863 29.5928 134.902 29.6432 135.132 29.5551C135.292 29.4935 135.484 29.5411 135.558 29.6605C135.632 29.7799 135.979 29.8911 136.329 29.9075C136.832 29.9311 136.966 29.8725 136.966 29.6283C136.966 29.2066 137.429 29.2362 137.542 29.6652C137.624 29.9783 137.752 30.004 138.907 29.9386C139.773 29.8895 140.332 29.9435 140.649 30.107C141.045 30.3115 141.186 30.3113 141.582 30.1061C141.839 29.9732 142.049 29.925 142.049 29.9988C142.049 30.0725 142.286 30.0982 142.575 30.0559C142.864 30.0136 143.101 29.8783 143.101 29.7552C143.101 29.4206 143.582 29.3014 143.7 29.607C143.844 29.9813 143.828 30.0552 143.629 29.9325C143.528 29.8701 143.501 29.9446 143.566 30.1117C143.654 30.3409 143.705 30.3514 143.826 30.1645C143.95 29.9736 144.009 29.9788 144.153 30.1935C144.298 30.411 144.354 30.4152 144.481 30.2185C144.585 30.0587 144.672 30.0426 144.751 30.1692C144.815 30.2725 145.121 30.3503 145.43 30.3418C145.74 30.3334 146.072 30.3453 146.168 30.3682C146.532 30.4545 146.643 30.3601 146.45 30.128C146.289 29.9351 146.334 29.8876 146.676 29.8876C146.946 29.8876 147.135 30.008 147.189 30.2154C147.307 30.6664 147.618 30.6274 147.71 30.1498L147.786 29.7565L147.81 30.1498C147.842 30.6844 148.71 30.7265 148.71 30.1935C148.71 30.0012 148.782 29.8439 148.869 29.8439C148.956 29.8439 148.99 29.987 148.944 30.162C148.843 30.5475 149.276 30.9439 149.71 30.8626C149.883 30.83 150.102 30.6276 150.197 30.4127C150.292 30.1979 150.45 30.0306 150.548 30.0411C150.998 30.0891 151.128 29.9816 151.229 29.4776C151.315 29.0486 151.256 28.871 150.944 28.6189C150.591 28.3334 150.572 28.2448 150.759 27.7502C150.943 27.2617 150.924 27.1565 150.586 26.8196C150.376 26.6107 150.227 26.2813 150.254 26.0876C150.291 25.8249 150.262 25.7958 150.142 25.9728C150.03 26.1383 149.945 26.1516 149.861 26.0165C149.795 25.91 149.596 25.8229 149.42 25.8229C149.05 25.8229 148.885 25.4918 148.885 24.7494C148.885 24.4632 148.82 24.2688 148.741 24.3177C148.58 24.417 148.009 23.8169 148.009 23.5483C148.009 23.4532 147.901 23.3754 147.77 23.3754C147.611 23.3754 147.559 23.2317 147.614 22.9434C147.678 22.6125 147.561 22.3976 147.115 22.0256C146.022 21.1122 145.537 20.573 145.649 20.3931C145.8 20.1498 145.259 19.3545 144.943 19.3545C144.79 19.3545 144.729 19.2508 144.79 19.0923C144.857 18.918 144.782 18.8281 144.566 18.8244C144.05 18.8157 143.627 18.3951 143.627 17.8914C143.627 17.4711 143.594 17.4488 143.274 17.6484C142.963 17.8416 142.867 17.8047 142.476 17.3439C142.231 17.0556 141.916 16.5638 141.775 16.2514C141.487 15.614 141.271 15.5387 141.019 15.9878C140.772 16.4282 140.563 16.1156 140.583 15.3366C140.597 14.8198 140.543 14.6852 140.351 14.7586C140.194 14.8184 140.063 14.7142 140.003 14.4822C139.949 14.2773 139.803 14.1098 139.679 14.1098C139.533 14.1098 139.487 14.2488 139.549 14.5032L139.646 14.8965L139.275 14.4824C138.77 13.9179 138.627 13.4049 138.919 13.1987C139.093 13.0756 139.055 13.0527 138.776 13.1133C138.502 13.1728 138.421 13.1275 138.488 12.9537C138.539 12.8203 138.488 12.7112 138.373 12.7112C138.259 12.7112 137.858 12.3925 137.483 12.003C137.108 11.6135 136.7 11.3083 136.577 11.3246C135.76 11.4321 135.564 11.3142 135.564 10.7172C135.564 10.2165 135.51 10.1356 135.228 10.2092C134.999 10.2688 134.796 10.1504 134.591 9.83769C134.425 9.58524 134.333 9.33525 134.386 9.2821C134.508 9.16042 133.966 8.61323 133.43 8.31638C133.025 8.09243 132.92 8.05485 132.584 8.01289C132.487 8.00082 132.408 7.83369 132.408 7.64139C132.408 7.44244 132.292 7.29174 132.137 7.29174C131.988 7.29174 131.732 7.05626 131.568 6.76832C131.203 6.1297 130.906 6.09718 130.759 6.67987C130.698 6.92025 130.527 7.11692 130.378 7.11692C130.186 7.11692 130.139 7.01413 130.217 6.76832C130.3 6.50854 130.262 6.4449 130.071 6.51815C129.652 6.67864 129.59 7.28038 129.969 7.51622C130.154 7.63125 130.305 7.83772 130.305 7.97478C130.305 8.11201 130.356 8.1732 130.418 8.11096C130.545 7.98527 131.519 9.19521 131.527 9.48717C131.532 9.67528 132.709 10.2637 133.081 10.2637C133.193 10.2637 133.285 10.1361 133.285 9.98017C133.285 9.74783 133.332 9.73577 133.548 9.91408C133.692 10.0338 133.812 10.2597 133.813 10.4162C133.816 10.6595 133.84 10.6635 133.979 10.4436C134.069 10.3022 134.203 10.2475 134.278 10.3219C134.447 10.4903 133.975 10.8018 133.756 10.6669C133.608 10.5758 133.294 10.9076 133.287 11.1611C133.286 11.2221 133.442 11.3128 133.635 11.363C133.827 11.4132 134.04 11.5994 134.108 11.7768C134.3 12.2782 134.912 12.7203 135.32 12.6541C135.607 12.6078 135.672 12.667 135.607 12.9149C135.561 13.0913 135.451 13.2357 135.364 13.2357C135.276 13.2357 135.337 13.4371 135.499 13.6833C135.681 13.9602 135.838 14.0579 135.911 13.9396C136.129 13.5892 136.594 13.9546 136.649 14.518C136.698 15.02 136.764 15.0764 137.361 15.1257C137.968 15.1757 138.004 15.2079 137.822 15.5455C137.653 15.8605 137.668 15.8949 137.931 15.7946C138.163 15.7056 138.216 15.7521 138.153 15.9918C138.051 16.3783 138.469 16.7981 138.821 16.6633C138.99 16.5986 139.14 16.7205 139.251 17.0124C139.466 17.5752 139.306 17.8752 138.95 17.5799C138.805 17.46 138.437 17.3505 138.133 17.3367C137.235 17.296 137.141 17.2677 137.141 17.0369C137.141 16.826 136.02 16.3825 135.487 16.3825C135.346 16.3825 135.166 16.2684 135.088 16.129C135.006 15.982 134.595 15.8453 134.111 15.8039C133.651 15.7645 133.228 15.6846 133.17 15.6264C133.111 15.5684 132.928 15.5932 132.762 15.6818C132.507 15.8177 132.473 15.7759 132.542 15.4135C132.592 15.1544 132.543 14.9839 132.419 14.9839C132.305 14.9839 132.261 15.0626 132.321 15.1588C132.608 15.6215 131.919 15.2675 131.118 14.5406C130.883 14.3271 129.631 13.9453 129.253 13.9717C128.389 14.032 127.851 13.9153 127.851 13.6674C127.851 13.52 127.713 13.3507 127.544 13.2911C127.376 13.2313 127.119 13.0838 126.975 12.963C126.83 12.8424 126.475 12.7181 126.186 12.6869C125.897 12.6558 125.396 12.4883 125.073 12.3147C124.751 12.1412 124.337 12.0466 124.153 12.1046C123.967 12.1635 123.819 12.1277 123.819 12.0237C123.819 11.9211 123.622 11.8371 123.381 11.8371C123.14 11.8371 122.943 11.7537 122.943 11.652C122.943 11.5502 122.864 11.5158 122.766 11.5756C122.669 11.6354 122.361 11.5221 122.082 11.3237C121.803 11.1253 121.488 10.963 121.382 10.963C121.277 10.963 121.19 10.8844 121.19 10.7882C121.19 10.692 121.009 10.6134 120.787 10.6134C120.565 10.6134 120.309 10.5433 120.217 10.4574C120.126 10.3718 119.384 10.1004 118.568 9.85447C117.393 9.49993 117.031 9.4508 116.825 9.61706C116.618 9.78419 116.594 9.77965 116.705 9.59468C116.871 9.32004 116.296 8.7148 115.972 8.82267C115.854 8.86183 115.491 8.73019 115.166 8.53001C114.841 8.32967 114.357 8.16586 114.09 8.16586C113.823 8.16586 113.516 8.04925 113.409 7.90694C113.302 7.76446 113.057 7.61901 112.864 7.58352C112.671 7.54803 112.395 7.47478 112.251 7.42076C111.364 7.0893 110.827 6.98021 110.502 7.06517C110.268 7.12619 110.051 7.05276 109.914 6.86658C109.795 6.70329 109.446 6.56413 109.134 6.55522C108.824 6.54648 108.57 6.46413 108.57 6.37235C108.57 6.28057 108.46 6.24735 108.326 6.29875C108.192 6.34998 107.91 6.23179 107.699 6.03599C107.425 5.7811 107.175 5.70803 106.819 5.779C106.488 5.84509 106.292 5.79893 106.231 5.6402C106.181 5.50925 105.562 5.27184 104.857 5.11258C104.151 4.95349 103.394 4.70664 103.175 4.56416C102.955 4.42168 102.708 4.34651 102.626 4.39703C102.544 4.44756 102.234 4.36801 101.937 4.22011C101.408 3.95683 100.406 3.9612 99.7614 4.22955C99.515 4.332 99.4547 4.26749 99.4547 3.90141C99.4547 3.61278 99.3582 3.44565 99.1917 3.44565C99.0471 3.44565 98.9288 3.37974 98.9288 3.29915C98.9288 3.21855 98.6436 3.14198 98.295 3.12887C97.9463 3.11576 97.5575 3.01943 97.4308 2.91453C97.1672 2.69636 96.2741 2.53062 95.5242 2.56104C95.2424 2.57241 94.9556 2.49094 94.8869 2.3801C94.8182 2.26909 94.3388 2.14357 93.8217 2.10108C92.4518 1.9885 92.2239 1.99252 91.7756 2.13745C91.4571 2.24024 91.3515 2.19462 91.2804 1.92347C91.1878 1.57032 91.1747 1.5677 88.9375 1.43693C88.0321 1.38414 87.5971 1.29305 87.4234 1.11981C87.3564 1.05285 86.9361 0.998129 86.4893 0.998129C86.0427 0.998129 85.6023 0.924004 85.5107 0.833271C85.3739 0.697958 84.2621 0.625582 82.8025 0.657225C82.6579 0.660372 82.1846 0.578204 81.7508 0.474709C80.5792 0.194993 79.5877 0.138351 79.3429 0.33695C79.2212 0.43555 78.9902 0.451283 78.817 0.372613C78.4035 0.185203 75.0899 0.12524 75.0899 0.305132C75.0899 0.383103 74.8703 0.337649 74.6019 0.204084C74.3001 0.0539116 73.6813 -0.0217869 72.9802 0.00548548C71.8077 0.051289 71.3306 0.205657 71.5029 0.4838C71.5575 0.572086 71.4801 0.597611 71.3304 0.540444C71.1807 0.483102 71.0583 0.356355 71.0583 0.258804C71.0583 0.156358 70.947 0.173315 70.7954 0.298838C70.5817 0.475584 70.5325 0.467892 70.5325 0.257056C70.5325 0.043947 70.2774 0.00863225 69.1028 0.0589812C68.3165 0.0927219 67.6357 0.157757 67.5898 0.203385C67.544 0.249189 67.3789 0.224189 67.2229 0.148141C67.0667 0.0720932 66.6604 0.0596812 66.3196 0.120694ZM128.596 4.44563C128.476 4.48864 128.386 4.7729 128.397 5.07727C128.411 5.44946 128.446 5.51625 128.504 5.28128C128.551 5.08898 128.672 4.83147 128.771 4.70891C128.983 4.44878 128.907 4.33479 128.596 4.44563ZM80.1732 4.84423C80.1732 4.94038 80.0896 5.01905 79.9876 5.01905C79.8856 5.01905 79.8507 4.94038 79.9103 4.84423C79.9699 4.74808 80.0533 4.6694 80.0959 4.6694C80.1385 4.6694 80.1732 4.74808 80.1732 4.84423ZM129.429 5.31922C129.429 5.66152 129.739 6.06799 130 6.06799C130.083 6.06799 130.089 5.96974 130.013 5.84946C129.938 5.72935 129.874 5.51974 129.871 5.38373C129.864 5.00454 129.429 4.94108 129.429 5.31922ZM49.2754 5.64911C49.2172 5.70715 49.0659 5.71345 48.9395 5.66292C48.7996 5.60715 48.8412 5.56572 49.0454 5.55733C49.2301 5.54981 49.3336 5.59107 49.2754 5.64911ZM128.99 5.89316C128.931 5.98932 129.005 6.06799 129.155 6.06799C129.306 6.06799 129.429 5.98932 129.429 5.89316C129.429 5.79701 129.354 5.71834 129.264 5.71834C129.173 5.71834 129.05 5.79701 128.99 5.89316ZM46.343 6.42795C46.343 6.5185 46.2641 6.59245 46.1677 6.59245C46.0713 6.59245 45.9924 6.46973 45.9924 6.31991C45.9924 6.17008 46.0713 6.09596 46.1677 6.1554C46.2641 6.21484 46.343 6.33739 46.343 6.42795ZM37.4034 6.49473C37.4034 6.53721 37.3245 6.62043 37.2281 6.67987C37.1317 6.73931 37.0528 6.70451 37.0528 6.60277C37.0528 6.50102 37.1317 6.41763 37.2281 6.41763C37.3245 6.41763 37.4034 6.45225 37.4034 6.49473ZM36.9936 8.20956C36.945 8.32984 36.9052 8.23142 36.9052 7.99104C36.9052 7.75065 36.945 7.6524 36.9936 7.77251C37.0423 7.89279 37.0423 8.08946 36.9936 8.20956ZM34.9494 9.56444C34.9494 9.66059 34.8113 9.73804 34.6427 9.73664C34.3804 9.73437 34.3741 9.70919 34.5988 9.56444C34.9296 9.35116 34.9494 9.35116 34.9494 9.56444ZM114.552 10.8356C114.267 11.1198 114.104 10.8538 114.38 10.5546C114.511 10.4134 114.645 10.3758 114.68 10.4711C114.715 10.5662 114.658 10.7302 114.552 10.8356ZM31.7066 10.6134C31.7662 10.7095 31.7313 10.7882 31.6293 10.7882C31.5273 10.7882 31.4437 10.7095 31.4437 10.6134C31.4437 10.5172 31.4784 10.4386 31.521 10.4386C31.5636 10.4386 31.647 10.5172 31.7066 10.6134ZM134.862 11.9245C134.862 12.0688 134.784 12.1868 134.687 12.1868C134.591 12.1868 134.512 12.0688 134.512 11.9245C134.512 11.7803 134.591 11.6623 134.687 11.6623C134.784 11.6623 134.862 11.7803 134.862 11.9245ZM140.822 18.3056C140.822 18.4017 140.787 18.4804 140.745 18.4804C140.702 18.4804 140.619 18.4017 140.559 18.3056C140.5 18.2094 140.535 18.1308 140.637 18.1308C140.739 18.1308 140.822 18.2094 140.822 18.3056ZM139.946 27.1341C139.946 27.2783 139.867 27.3964 139.77 27.3964C139.674 27.3964 139.595 27.2783 139.595 27.1341C139.595 26.9899 139.674 26.8719 139.77 26.8719C139.867 26.8719 139.946 26.9899 139.946 27.1341ZM6.37779 27.4734C6.37779 27.5159 6.29891 27.5991 6.2025 27.6586C6.10609 27.718 6.02721 27.6832 6.02721 27.5815C6.02721 27.4797 6.10609 27.3964 6.2025 27.3964C6.29891 27.3964 6.37779 27.431 6.37779 27.4734ZM140.997 27.6586C140.997 27.8028 140.919 27.9208 140.822 27.9208C140.726 27.9208 140.647 28.0519 140.647 28.2122C140.647 28.3724 140.598 28.4547 140.538 28.3951C140.38 28.2378 140.622 27.3964 140.825 27.3964C140.92 27.3964 140.997 27.5144 140.997 27.6586ZM134.694 28.4411C134.342 28.6582 134.119 28.4775 134.382 28.1885C134.521 28.0355 134.662 28.0102 134.773 28.1175C134.887 28.2275 134.86 28.3386 134.694 28.4411ZM136.246 28.1609C136.457 28.4142 136.337 28.9698 136.071 28.9698C135.985 28.9698 135.914 28.8517 135.914 28.7075C135.914 28.5633 135.786 28.4453 135.63 28.4453C135.397 28.4453 135.385 28.3979 135.564 28.1831C135.834 27.8581 135.99 27.853 136.246 28.1609ZM147.68 28.3171C147.507 28.4885 147.487 28.4684 147.582 28.2192C147.648 28.0469 147.746 27.9498 147.8 28.0037C147.854 28.0574 147.8 28.1984 147.68 28.3171ZM132.929 28.5764C132.924 28.9888 132.898 29.0135 132.744 28.7498C132.645 28.5808 132.613 28.3645 132.672 28.2691C132.853 27.9766 132.934 28.0736 132.929 28.5764ZM138.543 28.9801C138.543 29.178 138.465 29.2914 138.368 29.232C138.272 29.1726 138.193 29.0107 138.193 28.872C138.193 28.7334 138.272 28.6201 138.368 28.6201C138.465 28.6201 138.543 28.7822 138.543 28.9801ZM142.575 29.232C142.575 29.3762 142.459 29.4942 142.318 29.4942C142.161 29.4942 142.1 29.3918 142.161 29.232C142.217 29.0878 142.332 28.9698 142.418 28.9698C142.505 28.9698 142.575 29.0878 142.575 29.232ZM3.21913 30.1103C3.09713 30.2568 2.96129 30.3407 2.91712 30.2968C2.79564 30.1755 3.04262 29.8439 3.25436 29.8439C3.37075 29.8439 3.35743 29.9442 3.21913 30.1103ZM4.80021 31.4944C4.80021 31.5369 4.72133 31.6201 4.62493 31.6795C4.52852 31.7389 4.44964 31.7042 4.44964 31.6024C4.44964 31.5007 4.52852 31.4173 4.62493 31.4173C4.72133 31.4173 4.80021 31.4519 4.80021 31.4944Z" fill="white"/>
</svg>
