<svg width="20" height="20" viewBox="0 0 20 20" fill="none" xmlns="http://www.w3.org/2000/svg">
<path d="M17.0834 4.37501H15.625V2.91667C15.625 2.57501 15.3417 2.29167 15 2.29167C14.6584 2.29167 14.375 2.57501 14.375 2.91667V4.37501H12.9167C12.575 4.37501 12.2917 4.65834 12.2917 5.00001C12.2917 5.34167 12.575 5.62501 12.9167 5.62501H14.375V7.08334C14.375 7.42501 14.6584 7.70834 15 7.70834C15.3417 7.70834 15.625 7.42501 15.625 7.08334V5.62501H17.0834C17.425 5.62501 17.7084 5.34167 17.7084 5.00001C17.7084 4.65834 17.425 4.37501 17.0834 4.37501Z" fill="#00BAFB"/>
<path d="M9.20835 12.4583L7.66669 14C7.34169 14.325 6.82502 14.325 6.49169 14.0083C6.40002 13.9167 6.30835 13.8333 6.21669 13.7417C5.35835 12.875 4.58335 11.9667 3.89169 11.0167C3.20835 10.0667 2.65835 9.11667 2.25835 8.17501C1.86669 7.22501 1.66669 6.31667 1.66669 5.45001C1.66669 4.88334 1.76669 4.34167 1.96669 3.84167C2.16669 3.33334 2.48335 2.86667 2.92502 2.45001C3.45835 1.92501 4.04169 1.66667 4.65835 1.66667C4.89169 1.66667 5.12502 1.71667 5.33335 1.81667C5.55002 1.91667 5.74169 2.06667 5.89169 2.28334L7.82502 5.00834C7.97502 5.21667 8.08335 5.40834 8.15835 5.59167C8.23335 5.76667 8.27502 5.94167 8.27502 6.10001C8.27502 6.3 8.21669 6.5 8.10002 6.69167C7.99169 6.88334 7.83335 7.08334 7.63335 7.28334L7.00002 7.94167C6.90835 8.03334 6.86669 8.14167 6.86669 8.27501C6.86669 8.34167 6.87502 8.4 6.89169 8.46667C6.91669 8.53334 6.94169 8.58334 6.95835 8.63334C7.10835 8.90834 7.36669 9.26667 7.73335 9.70001C8.10835 10.1333 8.50835 10.575 8.94169 11.0167C9.02502 11.1 9.11669 11.1833 9.20002 11.2667C9.53335 11.5917 9.54169 12.125 9.20835 12.4583Z" fill="#00BAFB"/>
<path d="M18.3083 15.275C18.3083 15.5083 18.2667 15.75 18.1833 15.9833C18.1583 16.05 18.1333 16.1167 18.1 16.1833C17.9583 16.4833 17.775 16.7667 17.5333 17.0333C17.125 17.4833 16.675 17.8083 16.1667 18.0167C16.1583 18.0167 16.15 18.025 16.1417 18.025C15.65 18.225 15.1167 18.3333 14.5417 18.3333C13.6917 18.3333 12.7833 18.1333 11.825 17.725C10.8667 17.3167 9.90833 16.7667 8.95833 16.075C8.63333 15.8333 8.30833 15.5917 8 15.3333L10.725 12.6083C10.9583 12.7833 11.1667 12.9167 11.3417 13.0083C11.3833 13.025 11.4333 13.05 11.4917 13.075C11.5583 13.1 11.625 13.1083 11.7 13.1083C11.8417 13.1083 11.95 13.0583 12.0417 12.9667L12.675 12.3417C12.8833 12.1333 13.0833 11.975 13.275 11.875C13.4667 11.7583 13.6583 11.7 13.8667 11.7C14.025 11.7 14.1917 11.7333 14.375 11.8083C14.5583 11.8833 14.75 11.9917 14.9583 12.1333L17.7167 14.0917C17.9333 14.2417 18.0833 14.4167 18.175 14.625C18.2583 14.8333 18.3083 15.0417 18.3083 15.275Z" fill="#00BAFB"/>
</svg>
