<svg width="20" height="20" viewBox="0 0 20 20" fill="none" xmlns="http://www.w3.org/2000/svg">
<path d="M16 12.3167C15.2833 12.975 14.3333 13.3417 13.3583 13.3333H5.30832C1.91665 13.0917 1.90832 8.16667 5.30832 7.92501H5.34165C3.01665 1.45834 12.8417 -1.11666 13.9667 5.66667C17.1083 6.06667 18.3833 10.2417 16 12.3167Z" fill="#0076FF"/>
<path d="M15.625 17.5C15.625 17.8417 15.3417 18.125 15 18.125H11.6667C11.625 18.125 11.5917 18.125 11.55 18.1083C11.3083 18.725 10.7 19.1667 10 19.1667C9.3 19.1667 8.69167 18.725 8.45 18.1083C8.40833 18.125 8.375 18.125 8.33333 18.125H5C4.65833 18.125 4.375 17.8417 4.375 17.5C4.375 17.1583 4.65833 16.875 5 16.875H8.33333C8.375 16.875 8.40833 16.875 8.45 16.8917C8.61667 16.4583 8.95833 16.1167 9.39167 15.95C9.375 15.9083 9.375 15.875 9.375 15.8333V13.3333H10.625V15.8333C10.625 15.875 10.625 15.9083 10.6083 15.95C11.0417 16.1167 11.3833 16.4583 11.55 16.8917C11.5917 16.875 11.625 16.875 11.6667 16.875H15C15.3417 16.875 15.625 17.1583 15.625 17.5Z" fill="#0076FF"/>
</svg>
