<svg width="14" height="14" viewBox="0 0 14 14" fill="none" xmlns="http://www.w3.org/2000/svg">
<path d="M9.33329 7.52496V9.97496C9.33329 12.0166 8.51663 12.8333 6.47496 12.8333H4.02496C1.98329 12.8333 1.16663 12.0166 1.16663 9.97496V7.52496C1.16663 5.48329 1.98329 4.66663 4.02496 4.66663H6.47496C8.51663 4.66663 9.33329 5.48329 9.33329 7.52496Z" fill="#54C7FC"/>
<path opacity="0.4" d="M9.97499 1.16663H7.52499C5.51249 1.16663 4.69582 1.96579 4.67249 3.93746H6.47499C8.92499 3.93746 10.0625 5.07496 10.0625 7.52496V9.32746C12.0342 9.30412 12.8333 8.48746 12.8333 6.47496V4.02496C12.8333 1.98329 12.0167 1.16663 9.97499 1.16663Z" fill="#54C7FC"/>
</svg>
