<svg width="118" height="131" viewBox="0 0 118 131" fill="none" xmlns="http://www.w3.org/2000/svg">
<g opacity="0.5">
<rect width="1.92788" height="1.93104" fill="#6F6F6F"/>
<rect x="12.8522" width="1.92788" height="1.93104" fill="#6F6F6F"/>
<rect x="25.7051" width="1.92788" height="1.93104" fill="#6F6F6F"/>
<rect x="38.5577" width="1.92788" height="1.93104" fill="#6F6F6F"/>
<rect x="51.4099" width="1.92788" height="1.93104" fill="#6F6F6F"/>
<rect x="64.2628" width="1.92788" height="1.93104" fill="#6F6F6F"/>
<rect x="77.1154" width="1.92788" height="1.93104" fill="#6F6F6F"/>
<rect x="89.968" width="1.92788" height="1.93104" fill="#6F6F6F"/>
<rect x="102.821" width="1.92788" height="1.93104" fill="#6F6F6F"/>
<rect x="115.672" width="1.92788" height="1.93104" fill="#6F6F6F"/>
<rect y="12.8732" width="1.92788" height="1.93104" fill="#6F6F6F"/>
<rect x="12.8522" y="12.8732" width="1.92788" height="1.93104" fill="#6F6F6F"/>
<rect x="25.7051" y="12.8732" width="1.92788" height="1.93104" fill="#6F6F6F"/>
<rect x="38.5577" y="12.8732" width="1.92788" height="1.93104" fill="#6F6F6F"/>
<rect x="51.4099" y="12.8732" width="1.92788" height="1.93104" fill="#6F6F6F"/>
<rect x="64.2628" y="12.8732" width="1.92788" height="1.93104" fill="#6F6F6F"/>
<rect x="77.1154" y="12.8732" width="1.92788" height="1.93104" fill="#6F6F6F"/>
<rect x="89.968" y="12.8732" width="1.92788" height="1.93104" fill="#6F6F6F"/>
<rect x="102.821" y="12.8732" width="1.92788" height="1.93104" fill="#6F6F6F"/>
<rect x="115.672" y="12.8732" width="1.92788" height="1.93104" fill="#6F6F6F"/>
<rect y="25.7472" width="1.92788" height="1.93104" fill="#6F6F6F"/>
<rect x="12.8522" y="25.7472" width="1.92788" height="1.93104" fill="#6F6F6F"/>
<rect x="25.7051" y="25.7472" width="1.92788" height="1.93104" fill="#6F6F6F"/>
<rect x="38.5577" y="25.7472" width="1.92788" height="1.93104" fill="#6F6F6F"/>
<rect x="51.4099" y="25.7472" width="1.92788" height="1.93104" fill="#6F6F6F"/>
<rect x="64.2628" y="25.7472" width="1.92788" height="1.93104" fill="#6F6F6F"/>
<rect x="77.1154" y="25.7472" width="1.92788" height="1.93104" fill="#6F6F6F"/>
<rect x="89.968" y="25.7472" width="1.92788" height="1.93104" fill="#6F6F6F"/>
<rect x="102.821" y="25.7472" width="1.92788" height="1.93104" fill="#6F6F6F"/>
<rect x="115.672" y="25.7472" width="1.92788" height="1.93104" fill="#6F6F6F"/>
<rect y="38.6212" width="1.92788" height="1.93104" fill="#6F6F6F"/>
<rect x="12.8522" y="38.6212" width="1.92788" height="1.93104" fill="#6F6F6F"/>
<rect x="25.7051" y="38.6212" width="1.92788" height="1.93104" fill="#6F6F6F"/>
<rect x="38.5577" y="38.6212" width="1.92788" height="1.93104" fill="#6F6F6F"/>
<rect x="51.4099" y="38.6212" width="1.92788" height="1.93104" fill="#6F6F6F"/>
<rect x="64.2628" y="38.6212" width="1.92788" height="1.93104" fill="#6F6F6F"/>
<rect x="77.1154" y="38.6212" width="1.92788" height="1.93104" fill="#6F6F6F"/>
<rect x="89.968" y="38.6212" width="1.92788" height="1.93104" fill="#6F6F6F"/>
<rect x="102.821" y="38.6212" width="1.92788" height="1.93104" fill="#6F6F6F"/>
<rect x="115.672" y="38.6212" width="1.92788" height="1.93104" fill="#6F6F6F"/>
<rect y="51.4945" width="1.92788" height="1.93104" fill="#6F6F6F"/>
<rect x="12.8522" y="51.4945" width="1.92788" height="1.93104" fill="#6F6F6F"/>
<rect x="25.7051" y="51.4945" width="1.92788" height="1.93104" fill="#6F6F6F"/>
<rect x="38.5577" y="51.4945" width="1.92788" height="1.93104" fill="#6F6F6F"/>
<rect x="51.4099" y="51.4945" width="1.92788" height="1.93104" fill="#6F6F6F"/>
<rect x="64.2628" y="51.4945" width="1.92788" height="1.93104" fill="#6F6F6F"/>
<rect x="77.1154" y="51.4945" width="1.92788" height="1.93104" fill="#6F6F6F"/>
<rect x="89.968" y="51.4945" width="1.92788" height="1.93104" fill="#6F6F6F"/>
<rect x="102.821" y="51.4945" width="1.92788" height="1.93104" fill="#6F6F6F"/>
<rect x="115.672" y="51.4945" width="1.92788" height="1.93104" fill="#6F6F6F"/>
<rect y="64.3685" width="1.92788" height="1.93104" fill="#6F6F6F"/>
<rect x="12.8522" y="64.3685" width="1.92788" height="1.93104" fill="#6F6F6F"/>
<rect x="25.7051" y="64.3685" width="1.92788" height="1.93104" fill="#6F6F6F"/>
<rect x="38.5577" y="64.3685" width="1.92788" height="1.93104" fill="#6F6F6F"/>
<rect x="51.4099" y="64.3685" width="1.92788" height="1.93104" fill="#6F6F6F"/>
<rect x="64.2628" y="64.3685" width="1.92788" height="1.93104" fill="#6F6F6F"/>
<rect x="77.1154" y="64.3685" width="1.92788" height="1.93104" fill="#6F6F6F"/>
<rect x="89.968" y="64.3685" width="1.92788" height="1.93104" fill="#6F6F6F"/>
<rect x="102.821" y="64.3685" width="1.92788" height="1.93104" fill="#6F6F6F"/>
<rect x="115.672" y="64.3685" width="1.92788" height="1.93104" fill="#6F6F6F"/>
<rect y="77.2417" width="1.92788" height="1.93104" fill="#6F6F6F"/>
<rect x="12.8522" y="77.2417" width="1.92788" height="1.93104" fill="#6F6F6F"/>
<rect x="25.7051" y="77.2417" width="1.92788" height="1.93104" fill="#6F6F6F"/>
<rect x="38.5577" y="77.2417" width="1.92788" height="1.93104" fill="#6F6F6F"/>
<rect x="51.4099" y="77.2417" width="1.92788" height="1.93104" fill="#6F6F6F"/>
<rect x="64.2628" y="77.2417" width="1.92788" height="1.93104" fill="#6F6F6F"/>
<rect x="77.1154" y="77.2417" width="1.92788" height="1.93104" fill="#6F6F6F"/>
<rect x="89.968" y="77.2417" width="1.92788" height="1.93104" fill="#6F6F6F"/>
<rect x="102.821" y="77.2417" width="1.92788" height="1.93104" fill="#6F6F6F"/>
<rect x="115.672" y="77.2417" width="1.92788" height="1.93104" fill="#6F6F6F"/>
<rect y="90.115" width="1.92788" height="1.93104" fill="#6F6F6F"/>
<rect x="12.8522" y="90.1157" width="1.92788" height="1.93104" fill="#6F6F6F"/>
<rect x="25.7051" y="90.1157" width="1.92788" height="1.93104" fill="#6F6F6F"/>
<rect x="38.5577" y="90.1157" width="1.92788" height="1.93104" fill="#6F6F6F"/>
<rect x="51.4099" y="90.1157" width="1.92788" height="1.93104" fill="#6F6F6F"/>
<rect x="64.2628" y="90.1157" width="1.92788" height="1.93104" fill="#6F6F6F"/>
<rect x="77.1154" y="90.1157" width="1.92788" height="1.93104" fill="#6F6F6F"/>
<rect x="89.968" y="90.1157" width="1.92788" height="1.93104" fill="#6F6F6F"/>
<rect x="102.821" y="90.1157" width="1.92788" height="1.93104" fill="#6F6F6F"/>
<rect x="115.672" y="90.1157" width="1.92788" height="1.93104" fill="#6F6F6F"/>
<rect y="102.989" width="1.92788" height="1.93104" fill="#6F6F6F"/>
<rect x="12.8522" y="102.989" width="1.92788" height="1.93104" fill="#6F6F6F"/>
<rect x="25.7051" y="102.989" width="1.92788" height="1.93104" fill="#6F6F6F"/>
<rect x="38.5577" y="102.989" width="1.92788" height="1.93104" fill="#6F6F6F"/>
<rect x="51.4099" y="102.989" width="1.92788" height="1.93104" fill="#6F6F6F"/>
<rect x="64.2628" y="102.989" width="1.92788" height="1.93104" fill="#6F6F6F"/>
<rect x="77.1154" y="102.989" width="1.92788" height="1.93104" fill="#6F6F6F"/>
<rect x="89.968" y="102.989" width="1.92788" height="1.93104" fill="#6F6F6F"/>
<rect x="102.821" y="102.989" width="1.92788" height="1.93104" fill="#6F6F6F"/>
<rect x="115.672" y="102.989" width="1.92788" height="1.93104" fill="#6F6F6F"/>
<rect y="115.862" width="1.92788" height="1.93104" fill="#6F6F6F"/>
<rect x="12.8522" y="115.862" width="1.92788" height="1.93104" fill="#6F6F6F"/>
<rect x="25.7051" y="115.862" width="1.92788" height="1.93104" fill="#6F6F6F"/>
<rect x="38.5577" y="115.862" width="1.92788" height="1.93104" fill="#6F6F6F"/>
<rect x="51.4099" y="115.862" width="1.92788" height="1.93104" fill="#6F6F6F"/>
<rect x="64.2628" y="115.862" width="1.92788" height="1.93104" fill="#6F6F6F"/>
<rect x="77.1154" y="115.862" width="1.92788" height="1.93104" fill="#6F6F6F"/>
<rect x="89.968" y="115.862" width="1.92788" height="1.93104" fill="#6F6F6F"/>
<rect x="102.821" y="115.862" width="1.92788" height="1.93104" fill="#6F6F6F"/>
<rect x="115.672" y="115.862" width="1.92788" height="1.93104" fill="#6F6F6F"/>
<rect y="128.736" width="1.92788" height="1.93104" fill="#6F6F6F"/>
<rect x="12.8522" y="128.737" width="1.92788" height="1.93104" fill="#6F6F6F"/>
<rect x="25.7051" y="128.737" width="1.92788" height="1.93104" fill="#6F6F6F"/>
<rect x="38.5577" y="128.737" width="1.92788" height="1.93104" fill="#6F6F6F"/>
<rect x="51.4099" y="128.737" width="1.92788" height="1.93104" fill="#6F6F6F"/>
<rect x="64.2628" y="128.737" width="1.92788" height="1.93104" fill="#6F6F6F"/>
<rect x="77.1154" y="128.737" width="1.92788" height="1.93104" fill="#6F6F6F"/>
<rect x="89.968" y="128.737" width="1.92788" height="1.93104" fill="#6F6F6F"/>
<rect x="102.821" y="128.737" width="1.92788" height="1.93104" fill="#6F6F6F"/>
<rect x="115.672" y="128.737" width="1.92788" height="1.93104" fill="#6F6F6F"/>
</g>
</svg>
