<svg width="40" height="40" viewBox="0 0 40 40" fill="none" xmlns="http://www.w3.org/2000/svg">
<path d="M19.9 3.68334L15.8833 13.0333H11.8666C11.2 13.0333 10.55 13.0833 9.91663 13.2167L11.5833 9.21667L11.65 9.06667L11.75 8.8C11.8 8.68334 11.8333 8.58334 11.8833 8.5C13.8166 4.01667 15.9833 2.61667 19.9 3.68334Z" fill="#0076FF"/>
<path d="M31.2166 13.4833L31.1833 13.4666C30.1833 13.1833 29.1666 13.0333 28.1333 13.0333H17.7L21.45 4.31662L21.5 4.19995C21.7333 4.28328 21.9833 4.39995 22.2333 4.48328L25.9166 6.03328C27.9666 6.88328 29.4 7.76662 30.2833 8.83328C30.4333 9.03329 30.5666 9.21662 30.7 9.43328C30.85 9.66662 30.9666 9.89995 31.0333 10.15C31.1 10.3 31.1499 10.4333 31.1833 10.5833C31.4333 11.4333 31.45 12.4 31.2166 13.4833Z" fill="#0076FF"/>
<path d="M30.4833 15.8667C29.7333 15.65 28.9499 15.5333 28.1333 15.5333H11.8666C10.7333 15.5333 9.66661 15.75 8.66661 16.1833C5.76661 17.4333 3.73328 20.3167 3.73328 23.6667V26.9167C3.73328 27.3167 3.76661 27.7 3.81661 28.1C4.18328 33.4 7.01661 36.2333 12.3166 36.5833C12.6999 36.6333 13.0833 36.6667 13.4999 36.6667H26.4999C32.6666 36.6667 35.9166 33.7333 36.2333 27.9C36.2499 27.5833 36.2666 27.25 36.2666 26.9167V23.6667C36.2666 19.9833 33.8166 16.8833 30.4833 15.8667ZM24.1666 27.9167H15.8333C15.1499 27.9167 14.5833 27.35 14.5833 26.6667C14.5833 25.9833 15.1499 25.4167 15.8333 25.4167H24.1666C24.8499 25.4167 25.4166 25.9833 25.4166 26.6667C25.4166 27.35 24.8499 27.9167 24.1666 27.9167Z" fill="#0076FF"/>
</svg>
