<svg width="64" height="64" viewBox="0 0 64 64" fill="none" xmlns="http://www.w3.org/2000/svg">
<path fill-rule="evenodd" clip-rule="evenodd" d="M15.1024 7.23575L5.04136 28.369C5.00308 28.4476 4.99095 28.5364 5.00674 28.6224C5.02254 28.7084 5.06543 28.787 5.12915 28.8469L32.3016 54.8847C32.3788 54.9587 32.4816 55 32.5885 55C32.6955 55 32.7983 54.9587 32.8754 54.8847L60.0479 28.8485C60.1116 28.7887 60.1545 28.71 60.1703 28.624C60.1861 28.538 60.174 28.4492 60.1357 28.3706L50.0746 7.23737C50.0422 7.1664 49.9899 7.10628 49.9242 7.06419C49.8585 7.0221 49.782 6.99983 49.704 7.00003H15.4763C15.3979 6.99906 15.3208 7.02079 15.2545 7.06262C15.1882 7.10444 15.1353 7.16457 15.1024 7.23575Z" fill="white"/>
<path fill-rule="evenodd" clip-rule="evenodd" d="M36.0796 30.5392C35.8845 30.5538 34.8766 30.614 32.6284 30.614C30.8402 30.614 29.5705 30.5603 29.1251 30.5392C22.2146 30.2352 17.0564 29.0322 17.0564 27.5919C17.0564 26.1516 22.2146 24.9503 29.1251 24.6414V29.3411C29.577 29.3736 30.871 29.45 32.6592 29.45C34.8051 29.45 35.8796 29.3606 36.0731 29.3427V24.6446C42.969 24.9519 48.1158 26.1549 48.1158 27.5919C48.1158 29.029 42.9706 30.2319 36.0731 30.5376L36.0796 30.5392ZM36.0796 24.1586V19.9531H45.7033V13.5399H19.5014V19.9531H29.1235V24.157C21.3026 24.5162 15.421 26.0654 15.421 27.9219C15.421 29.7784 21.3026 31.326 29.1235 31.6869V45.1634H36.0779V31.682C43.881 31.3227 49.7528 29.7751 49.7528 27.9203C49.7528 26.0654 43.8859 24.5178 36.0779 24.157L36.0796 24.1586Z" fill="#0076FF"/>
</svg>
