<svg width="136" height="40" viewBox="0 0 136 40" fill="none" xmlns="http://www.w3.org/2000/svg">
<path d="M130.664 40H5.66406C2.86406 40 0.664062 37.8 0.664062 35V5C0.664062 2.2 2.86406 0 5.66406 0H130.664C133.464 0 135.664 2.2 135.664 5V35C135.664 37.7 133.464 40 130.664 40Z" fill="black"/>
<path d="M48.0645 10.1999C48.0645 10.9999 47.8645 11.6999 47.3645 12.1999C46.7645 12.7999 46.0645 13.0999 45.1645 13.0999C44.2645 13.0999 43.5645 12.7999 42.9645 12.1999C42.3645 11.5999 42.0645 10.8999 42.0645 9.9999C42.0645 9.0999 42.3645 8.3999 42.9645 7.7999C43.5645 7.1999 44.2645 6.8999 45.1645 6.8999C45.5645 6.8999 45.9645 6.9999 46.3645 7.1999C46.7645 7.3999 47.0645 7.5999 47.2645 7.8999L46.7645 8.3999C46.3645 7.8999 45.8645 7.6999 45.1645 7.6999C44.5645 7.6999 43.9645 7.8999 43.5645 8.3999C43.0645 8.7999 42.8645 9.3999 42.8645 10.0999C42.8645 10.7999 43.0645 11.3999 43.5645 11.7999C44.0645 12.1999 44.5645 12.4999 45.1645 12.4999C45.8645 12.4999 46.3645 12.2999 46.8645 11.7999C47.1645 11.4999 47.3645 11.0999 47.3645 10.5999H45.1645V9.8999H48.0645C48.0645 9.8999 48.0645 10.0999 48.0645 10.1999Z" fill="white" stroke="white" stroke-width="0.2" stroke-miterlimit="10"/>
<path d="M52.6641 7.7H49.9641V9.6H52.4641V10.3H49.9641V12.2H52.6641V13H49.1641V7H52.6641V7.7Z" fill="white" stroke="white" stroke-width="0.2" stroke-miterlimit="10"/>
<path d="M55.9639 13H55.1639V7.7H53.4639V7H57.6639V7.7H55.9639V13Z" fill="white" stroke="white" stroke-width="0.2" stroke-miterlimit="10"/>
<path d="M60.5645 13V7H61.3644V13H60.5645Z" fill="white" stroke="white" stroke-width="0.2" stroke-miterlimit="10"/>
<path d="M64.7637 13H63.9637V7.7H62.2637V7H66.3637V7.7H64.6637V13H64.7637Z" fill="white" stroke="white" stroke-width="0.2" stroke-miterlimit="10"/>
<path d="M74.2639 12.1999C73.6639 12.7999 72.9639 13.0999 72.0639 13.0999C71.1639 13.0999 70.4639 12.7999 69.8639 12.1999C69.2639 11.5999 68.9639 10.8999 68.9639 9.9999C68.9639 9.0999 69.2639 8.3999 69.8639 7.7999C70.4639 7.1999 71.1639 6.8999 72.0639 6.8999C72.9639 6.8999 73.6639 7.1999 74.2639 7.7999C74.8639 8.3999 75.1639 9.0999 75.1639 9.9999C75.1639 10.8999 74.8639 11.5999 74.2639 12.1999ZM70.4639 11.6999C70.8639 12.0999 71.4639 12.3999 72.0639 12.3999C72.6639 12.3999 73.2639 12.1999 73.6639 11.6999C74.0639 11.2999 74.3639 10.6999 74.3639 9.9999C74.3639 9.2999 74.1639 8.6999 73.6639 8.2999C73.2639 7.8999 72.6639 7.5999 72.0639 7.5999C71.4639 7.5999 70.8639 7.7999 70.4639 8.2999C70.0639 8.6999 69.7639 9.2999 69.7639 9.9999C69.7639 10.6999 69.9639 11.2999 70.4639 11.6999Z" fill="white" stroke="white" stroke-width="0.2" stroke-miterlimit="10"/>
<path d="M76.2637 13V7H77.1637L80.0637 11.7V10.5V7H80.8637V13H80.0637L76.9637 8.1V9.3V13H76.2637Z" fill="white" stroke="white" stroke-width="0.2" stroke-miterlimit="10"/>
<path d="M68.7637 21.8001C66.3637 21.8001 64.4637 23.6001 64.4637 26.1001C64.4637 28.5001 66.3637 30.4001 68.7637 30.4001C71.1637 30.4001 73.0637 28.6001 73.0637 26.1001C73.0637 23.5001 71.1637 21.8001 68.7637 21.8001ZM68.7637 28.6001C67.4637 28.6001 66.3637 27.5001 66.3637 26.0001C66.3637 24.5001 67.4637 23.4001 68.7637 23.4001C70.0637 23.4001 71.1637 24.4001 71.1637 26.0001C71.1637 27.5001 70.0637 28.6001 68.7637 28.6001ZM59.4637 21.8001C57.0637 21.8001 55.1637 23.6001 55.1637 26.1001C55.1637 28.5001 57.0637 30.4001 59.4637 30.4001C61.8637 30.4001 63.7637 28.6001 63.7637 26.1001C63.7637 23.5001 61.8637 21.8001 59.4637 21.8001ZM59.4637 28.6001C58.1637 28.6001 57.0637 27.5001 57.0637 26.0001C57.0637 24.5001 58.1637 23.4001 59.4637 23.4001C60.7637 23.4001 61.8637 24.4001 61.8637 26.0001C61.8637 27.5001 60.7637 28.6001 59.4637 28.6001ZM48.3637 23.1001V24.9001H52.6637C52.5637 25.9001 52.1637 26.7001 51.6637 27.2001C51.0637 27.8001 50.0637 28.5001 48.3637 28.5001C45.6637 28.5001 43.6637 26.4001 43.6637 23.7001C43.6637 21.0001 45.7637 18.9001 48.3637 18.9001C49.7637 18.9001 50.8637 19.5001 51.6637 20.2001L52.9637 18.9001C51.8637 17.9001 50.4637 17.1001 48.4637 17.1001C44.8637 17.1001 41.7637 20.1001 41.7637 23.7001C41.7637 27.3001 44.8637 30.3001 48.4637 30.3001C50.4637 30.3001 51.8637 29.7001 53.0637 28.4001C54.2637 27.2001 54.6637 25.5001 54.6637 24.2001C54.6637 23.8001 54.6637 23.4001 54.5637 23.1001H48.3637V23.1001ZM93.7637 24.5001C93.3637 23.5001 92.3637 21.8001 90.1637 21.8001C87.9637 21.8001 86.1637 23.5001 86.1637 26.1001C86.1637 28.5001 87.9637 30.4001 90.3637 30.4001C92.2637 30.4001 93.4637 29.2001 93.8637 28.5001L92.4637 27.5001C91.9637 28.2001 91.3637 28.7001 90.3637 28.7001C89.3637 28.7001 88.7637 28.3001 88.2637 27.4001L93.9637 25.0001L93.7637 24.5001ZM87.9637 25.9001C87.9637 24.3001 89.2637 23.4001 90.1637 23.4001C90.8637 23.4001 91.5637 23.8001 91.7637 24.3001L87.9637 25.9001ZM83.2637 30.0001H85.1637V17.5001H83.2637V30.0001ZM80.2637 22.7001C79.7637 22.2001 78.9637 21.7001 77.9637 21.7001C75.8637 21.7001 73.8637 23.6001 73.8637 26.0001C73.8637 28.4001 75.7637 30.2001 77.9637 30.2001C78.9637 30.2001 79.7637 29.7001 80.1637 29.2001H80.2637V29.8001C80.2637 31.4001 79.3637 32.3001 77.9637 32.3001C76.8637 32.3001 76.0637 31.5001 75.8637 30.8001L74.2637 31.5001C74.7637 32.6001 75.9637 34.0001 78.0637 34.0001C80.2637 34.0001 82.0637 32.7001 82.0637 29.6001V22.0001H80.2637V22.7001V22.7001ZM78.0637 28.6001C76.7637 28.6001 75.6637 27.5001 75.6637 26.0001C75.6637 24.5001 76.7637 23.4001 78.0637 23.4001C79.3637 23.4001 80.3637 24.5001 80.3637 26.0001C80.3637 27.5001 79.3637 28.6001 78.0637 28.6001ZM102.464 17.5001H97.9637V30.0001H99.8637V25.3001H102.464C104.564 25.3001 106.564 23.8001 106.564 21.4001C106.564 19.0001 104.564 17.5001 102.464 17.5001ZM102.564 23.5001H99.8637V19.2001H102.564C103.964 19.2001 104.764 20.4001 104.764 21.3001C104.664 22.4001 103.864 23.5001 102.564 23.5001ZM114.064 21.7001C112.664 21.7001 111.264 22.3001 110.764 23.6001L112.464 24.3001C112.864 23.6001 113.464 23.4001 114.164 23.4001C115.164 23.4001 116.064 24.0001 116.164 25.0001V25.1001C115.864 24.9001 115.064 24.6001 114.264 24.6001C112.464 24.6001 110.664 25.6001 110.664 27.4001C110.664 29.1001 112.164 30.2001 113.764 30.2001C115.064 30.2001 115.664 29.6001 116.164 29.0001H116.264V30.0001H118.064V25.2001C117.864 23.0001 116.164 21.7001 114.064 21.7001ZM113.864 28.6001C113.264 28.6001 112.364 28.3001 112.364 27.5001C112.364 26.5001 113.464 26.2001 114.364 26.2001C115.164 26.2001 115.564 26.4001 116.064 26.6001C115.864 27.8001 114.864 28.6001 113.864 28.6001ZM124.364 22.0001L122.264 27.4001H122.164L119.964 22.0001H117.964L121.264 29.6001L119.364 33.8001H121.264L126.364 22.0001H124.364ZM107.564 30.0001H109.464V17.5001H107.564V30.0001Z" fill="white"/>
<path d="M11.0645 7.5C10.7645 7.8 10.5645 8.3 10.5645 8.9V31C10.5645 31.6 10.7645 32.1 11.0645 32.4L11.1645 32.5L23.5645 20.1V20V19.9L11.0645 7.5Z" fill="url(#paint0_linear_2300_38322)"/>
<path d="M27.6645 24.2998L23.5645 20.1998V19.9998V19.8998L27.6645 15.7998L27.7645 15.8998L32.6645 18.6998C34.0645 19.4998 34.0645 20.7998 32.6645 21.5998L27.6645 24.2998Z" fill="url(#paint1_linear_2300_38322)"/>
<path d="M27.7645 24.2L23.5645 20L11.0645 32.5C11.5645 33 12.2645 33 13.1645 32.6L27.7645 24.2Z" fill="url(#paint2_linear_2300_38322)"/>
<path d="M27.7645 15.8001L13.1645 7.50011C12.2645 7.00011 11.5645 7.10011 11.0645 7.60011L23.5645 20.0001L27.7645 15.8001Z" fill="url(#paint3_linear_2300_38322)"/>
<path opacity="0.2" d="M27.6645 24.1001L13.1645 32.3001C12.3645 32.8001 11.6645 32.7001 11.1645 32.3001L11.0645 32.4001L11.1645 32.5001C11.6645 32.9001 12.3645 33.0001 13.1645 32.5001L27.6645 24.1001Z" fill="white"/>
<path opacity="0.12" d="M11.0641 32.2999C10.7641 31.9999 10.6641 31.4999 10.6641 30.8999V30.9999C10.6641 31.5999 10.8641 32.0999 11.1641 32.3999V32.2999H11.0641Z" fill="white"/>
<path opacity="0.12" d="M32.6641 21.3L27.6641 24.1L27.7641 24.2L32.6641 21.4C33.3641 21 33.6641 20.5 33.6641 20C33.6641 20.5 33.2641 20.9 32.6641 21.3Z" fill="white"/>
<path opacity="0.25" d="M13.1641 7.59988L32.6641 18.6999C33.2641 19.0999 33.6641 19.4999 33.6641 19.9999C33.6641 19.4999 33.3641 18.9999 32.6641 18.5999L13.1641 7.49988C11.7641 6.69988 10.6641 7.39988 10.6641 8.99988V9.09988C10.6641 7.49988 11.7641 6.79988 13.1641 7.59988Z" fill="white"/>
<defs>
<linearGradient id="paint0_linear_2300_38322" x1="22.4642" y1="8.7097" x2="5.68176" y2="25.4921" gradientUnits="userSpaceOnUse">
<stop stop-color="#00A0FF"/>
<stop offset="0.00657445" stop-color="#00A1FF"/>
<stop offset="0.2601" stop-color="#00BEFF"/>
<stop offset="0.5122" stop-color="#00D2FF"/>
<stop offset="0.7604" stop-color="#00DFFF"/>
<stop offset="1" stop-color="#00E3FF"/>
</linearGradient>
<linearGradient id="paint1_linear_2300_38322" x1="34.4989" y1="20.0012" x2="10.302" y2="20.0012" gradientUnits="userSpaceOnUse">
<stop stop-color="#FFE000"/>
<stop offset="0.4087" stop-color="#FFBD00"/>
<stop offset="0.7754" stop-color="#FFA500"/>
<stop offset="1" stop-color="#FF9C00"/>
</linearGradient>
<linearGradient id="paint2_linear_2300_38322" x1="25.4915" y1="22.2961" x2="2.73315" y2="45.0544" gradientUnits="userSpaceOnUse">
<stop stop-color="#FF3A44"/>
<stop offset="1" stop-color="#C31162"/>
</linearGradient>
<linearGradient id="paint3_linear_2300_38322" x1="7.96175" y1="0.176312" x2="18.1244" y2="10.3388" gradientUnits="userSpaceOnUse">
<stop stop-color="#32A071"/>
<stop offset="0.0685" stop-color="#2DA771"/>
<stop offset="0.4762" stop-color="#15CF74"/>
<stop offset="0.8009" stop-color="#06E775"/>
<stop offset="1" stop-color="#00F076"/>
</linearGradient>
</defs>
</svg>
