<svg width="40" height="40" viewBox="0 0 40 40" fill="none" xmlns="http://www.w3.org/2000/svg">
<path fill-rule="evenodd" clip-rule="evenodd" d="M20 40C31.0457 40 40 31.0457 40 20C40 8.95431 31.0457 0 20 0C8.95431 0 0 8.95431 0 20C0 31.0457 8.95431 40 20 40Z" fill="white"/>
<path fill-rule="evenodd" clip-rule="evenodd" d="M32 30.2213C32 31.1996 31.1999 32 30.2219 32H19.998C12.5597 32 6.70689 25.2263 8.24789 17.5188C9.1962 12.7757 12.9746 9.08497 17.731 8.21047C25.1396 6.84683 31.6296 12.2866 31.9852 19.4012H32V30.2213Z" fill="#F4B70A"/>
<path fill-rule="evenodd" clip-rule="evenodd" d="M25.5519 25.9427C25.5519 25.9427 26 26.2094 26 25.5921V19.8963C25.9466 16.6316 23.2808 14 20 14C16.6863 14 14 16.6846 14 19.9962C14 23.3079 16.6863 25.9925 20 25.9925C21.5212 25.9925 22.9102 25.4267 23.9678 24.4942L25.5519 25.9427Z" fill="white"/>
</svg>
