<svg width="40" height="40" viewBox="0 0 40 40" fill="none" xmlns="http://www.w3.org/2000/svg">
<path fill-rule="evenodd" clip-rule="evenodd" d="M0 20C0 8.95431 8.95431 0 20 0C31.0457 0 40 8.95431 40 20C40 31.0457 31.0457 40 20 40C8.95431 40 0 31.0457 0 20Z" fill="#FFE400"/>
<path fill-rule="evenodd" clip-rule="evenodd" d="M20.2051 10H20.2042C20.1858 10 20.1685 10 20.152 10.0002C20.0206 10.0015 19.8047 10.0036 19.7853 10.0039C19.3117 10.0039 18.3641 10.0706 17.3463 10.5185C16.7644 10.7745 16.2409 11.1205 15.7906 11.5472C15.2536 12.0555 14.8162 12.6822 14.4907 13.4102C14.0139 14.4761 14.1271 16.2715 14.218 17.7143L14.2183 17.7166C14.2281 17.8711 14.2383 18.0324 14.2476 18.1896C14.1777 18.2217 14.0643 18.2555 13.8972 18.2555C13.6283 18.2555 13.3085 18.1697 12.947 18.0008C12.8406 17.9514 12.7192 17.9265 12.5852 17.9265C12.37 17.9265 12.1431 17.9896 11.9463 18.105C11.6987 18.25 11.5387 18.4549 11.4952 18.6821C11.4666 18.8324 11.4679 19.1294 11.7988 19.4306C11.9808 19.5964 12.2482 19.7493 12.5933 19.8853C12.6839 19.9209 12.7913 19.9548 12.9052 19.9908C13.3002 20.116 13.8981 20.3051 14.054 20.671C14.133 20.8565 14.099 21.1006 13.9532 21.3956C13.9494 21.4037 13.9455 21.4116 13.9421 21.4198C13.9056 21.5047 13.5657 22.2724 12.8685 23.082C12.4723 23.5424 12.036 23.9272 11.5722 24.226C11.0062 24.5907 10.3937 24.8292 9.75202 24.9346C9.50003 24.9758 9.32007 25.1997 9.33411 25.4541C9.33842 25.5274 9.35567 25.6005 9.38558 25.6713C9.3858 25.6717 9.38608 25.6721 9.3863 25.6725C9.48819 25.9102 9.72443 26.112 10.1085 26.2901C10.5778 26.5075 11.2798 26.6903 12.1946 26.8334C12.2408 26.921 12.2888 27.1413 12.322 27.2921C12.3568 27.4524 12.3931 27.6172 12.4447 27.7923C12.5005 27.982 12.6452 28.2087 13.0169 28.2087C13.1578 28.2087 13.3198 28.177 13.5073 28.1408C13.7821 28.087 14.1577 28.0137 14.6266 28.0137C14.8866 28.0137 15.156 28.0365 15.4272 28.0815C15.9499 28.1682 16.4005 28.4856 16.9219 28.8532C17.6851 29.3911 18.549 30 19.8688 30C19.9048 30 19.9409 29.9988 19.9766 29.9964C20.0202 29.9984 20.0743 30 20.1313 30C21.4516 30 22.3152 29.3909 23.0775 28.8534L23.0788 28.8523C23.6003 28.4852 24.0504 28.1682 24.573 28.0815C24.844 28.0366 25.1134 28.0137 25.3735 28.0137C25.8214 28.0137 26.1761 28.0707 26.4927 28.1322C26.6994 28.1728 26.86 28.1923 26.9832 28.1923L26.9953 28.1925H27.0078C27.2796 28.1925 27.4794 28.0438 27.5556 27.7834C27.6063 27.612 27.6424 27.451 27.6781 27.288C27.7092 27.1467 27.7588 26.9201 27.805 26.8315C28.7205 26.6882 29.4221 26.5057 29.8915 26.2884C30.2747 26.1112 30.5106 25.9096 30.6131 25.6729C30.6439 25.602 30.6618 25.5284 30.6659 25.4536C30.6803 25.1996 30.5001 24.9753 30.2479 24.9341C27.396 24.4654 26.1112 21.5435 26.058 21.4193C26.0546 21.4112 26.0507 21.4031 26.0467 21.3952C25.9009 21.1001 25.8672 20.8562 25.9463 20.6704C26.1019 20.3049 26.6993 20.1157 27.0946 19.9906C27.2091 19.9547 27.3169 19.9205 27.4068 19.8851C27.796 19.7318 28.0741 19.5656 28.2576 19.3768C28.4767 19.1517 28.5194 18.936 28.5168 18.7949C28.5101 18.4535 28.2483 18.1501 27.8319 18.0015C27.6912 17.9435 27.5309 17.9129 27.3675 17.9129C27.2564 17.9129 27.0917 17.9281 26.9359 18.0007C26.6022 18.1563 26.3033 18.2415 26.0467 18.2536C25.9103 18.2467 25.8146 18.2172 25.7526 18.189C25.7604 18.0559 25.769 17.919 25.7779 17.7764L25.7816 17.7153C25.873 16.2715 25.9866 14.4748 25.5096 13.4081C25.1827 12.6775 24.7438 12.0492 24.2047 11.5398C23.7525 11.1129 23.2273 10.7669 22.6433 10.5111C21.6269 10.0664 20.6794 10 20.2051 10Z" fill="white"/>
</svg>
