<svg width="40" height="40" viewBox="0 0 40 40" fill="none" xmlns="http://www.w3.org/2000/svg">
<path fill-rule="evenodd" clip-rule="evenodd" d="M0 20C0 8.95431 8.95431 0 20 0C31.0457 0 40 8.95431 40 20C40 31.0457 31.0457 40 20 40C8.95431 40 0 31.0457 0 20Z" fill="#45B035"/>
<path fill-rule="evenodd" clip-rule="evenodd" d="M12.876 15.85C12.1374 15.85 11.5387 15.2693 11.5387 14.5547C11.5387 13.8393 12.1374 13.2607 12.876 13.2607C13.6147 13.2607 14.2147 13.8393 14.2147 14.5547C14.2147 15.2693 13.6147 15.85 12.876 15.85ZM19.504 13.2607C20.2427 13.2607 20.8407 13.8393 20.8407 14.5547C20.8407 15.2693 20.2427 15.85 19.504 15.85C18.7647 15.85 18.1673 15.2693 18.1673 14.5547C18.1673 13.8393 18.7647 13.2607 19.504 13.2607ZM25.202 16.0713C25.3367 16.0713 25.47 16.0727 25.6027 16.08C24.9013 12.258 20.954 9.33333 16.19 9.33333C10.93 9.33333 6.66667 12.8993 6.66667 17.298C6.66667 19.8773 8.13201 22.17 10.4047 23.6253C10.434 23.644 10.492 23.6807 10.492 23.6807L9.57201 26.5627L13.0147 24.8093C13.0147 24.8093 13.1227 24.84 13.1767 24.856C14.1227 25.1193 15.1373 25.262 16.19 25.262C16.4047 25.262 16.618 25.2533 16.83 25.2427C16.6347 24.6367 16.5273 24 16.5273 23.3427C16.5273 19.326 20.4127 16.0713 25.202 16.0713Z" fill="white"/>
<path fill-rule="evenodd" clip-rule="evenodd" d="M21.344 21.0714C21.344 20.4687 21.8507 19.9787 22.474 19.9787C23.0987 19.9787 23.6047 20.4687 23.6047 21.0714C23.6047 21.6767 23.0987 22.1674 22.474 22.1674C21.8507 22.1674 21.344 21.6767 21.344 21.0714ZM26.9434 21.0714C26.9434 20.4687 27.4487 19.9787 28.0727 19.9787C28.6974 19.9787 29.2027 20.4687 29.2027 21.0714C29.2027 21.6767 28.6974 22.1674 28.0727 22.1674C27.4487 22.1674 26.9434 21.6767 26.9434 21.0714ZM17.2274 23.3894C17.2274 27.1061 20.8307 30.1187 25.2747 30.1187C26.1634 30.1187 27.0207 29.9974 27.8194 29.7741C27.8654 29.7621 27.9567 29.7347 27.9567 29.7347L30.8641 31.2174L30.0867 28.7814C30.0867 28.7814 30.1361 28.7507 30.1607 28.7354C32.0801 27.5061 33.3187 25.5694 33.3187 23.3894C33.3187 19.6741 29.7167 16.6614 25.2747 16.6614C20.8307 16.6614 17.2274 19.6741 17.2274 23.3894Z" fill="white"/>
</svg>
