<svg width="181" height="47" viewBox="0 0 181 47" fill="none" xmlns="http://www.w3.org/2000/svg">
<path fill-rule="evenodd" clip-rule="evenodd" d="M79.5053 0.345015C79.0981 0.417915 78.657 0.54408 78.5249 0.625544C78.3927 0.707009 78.2256 0.677974 78.1531 0.561208C77.9847 0.28966 77.2086 0.283184 77.2086 0.553479C77.2086 0.677556 77.0023 0.66398 76.6831 0.519015C76.272 0.332064 76.037 0.344387 75.6018 0.57583C75.1837 0.797873 75.0248 0.808945 74.9613 0.62095C74.897 0.43003 74.7523 0.427106 74.3523 0.609043C73.9939 0.771763 73.7826 0.778865 73.6854 0.630975C73.6073 0.511912 73.1476 0.400577 72.6638 0.383658C71.9722 0.359427 71.7148 0.451545 71.4595 0.815211C71.2811 1.06942 71.1349 1.17929 71.1349 1.0596C71.1349 0.819388 68.7117 0.686538 68.3542 0.90691C68.2329 0.98169 67.5265 1.02075 66.7843 0.994014C65.6386 0.952655 65.3601 1.01532 64.94 1.40886C64.5556 1.76897 64.3806 1.8191 64.1561 1.6332C63.7399 1.28854 62.0745 1.39591 61.7852 1.7861C61.5911 2.04825 61.4868 2.05953 61.2296 1.84688C61.0038 1.65973 60.8907 1.652 60.8348 1.81973C60.785 1.96846 60.106 2.05598 58.9817 2.05869C58.0059 2.06099 56.689 2.21055 56.0554 2.39124C55.4219 2.57192 54.5925 2.69558 54.2124 2.66633C53.8323 2.63688 53.4038 2.7102 53.2603 2.82885C53.1168 2.9477 52.8152 3.04817 52.5901 3.05214C51.7343 3.06739 50.4907 3.34165 50.0873 3.60401C49.8565 3.7542 49.2812 3.87138 48.8091 3.86428C48.3369 3.85739 47.7714 3.94721 47.5525 4.06397C47.3334 4.18095 46.7068 4.34346 46.1595 4.42534C45.6123 4.50722 45.1647 4.65741 45.1647 4.75935C45.1647 4.86107 44.9972 4.94442 44.7926 4.94442C44.5877 4.94442 44.2183 5.08541 43.9718 5.25774C43.7251 5.43007 43.3749 5.51425 43.1935 5.44469C43.0121 5.37534 42.4896 5.513 42.0324 5.75071C41.513 6.02079 41.1517 6.10351 41.0698 5.97129C40.99 5.84261 40.8434 5.83363 40.6956 5.94873C40.5617 6.05275 39.6655 6.43375 38.7038 6.79554C37.7421 7.15712 36.723 7.63546 36.439 7.85813C36.1552 8.08101 35.7874 8.21135 35.6219 8.14806C35.4161 8.06931 35.3212 8.17981 35.3212 8.49856C35.3212 8.84698 35.2552 8.91006 35.0594 8.7486C34.8772 8.59841 34.5433 8.62139 33.9599 8.82442C33.4991 8.98464 33.0984 9.11728 33.0697 9.11895C33.041 9.12062 33.0159 9.33368 33.0142 9.59207C33.0119 9.9315 32.9615 9.98414 32.8329 9.78173C32.6842 9.54778 32.5805 9.54758 32.2077 9.77965C31.9618 9.93276 31.7608 10.1174 31.7608 10.1901C31.7608 10.2626 31.3603 10.3842 30.8707 10.4602C29.5755 10.6611 28.2003 11.2237 28.2003 11.5526C28.2003 11.7093 28.0638 11.8376 27.8971 11.8376C27.7301 11.8376 27.3412 12.0709 27.0329 12.3558C26.7244 12.6409 26.3923 12.825 26.2947 12.7648C26.1971 12.7046 25.9522 12.8473 25.7508 13.0819C25.5495 13.3167 25.17 13.5086 24.9076 13.5086C24.6196 13.5086 24.4305 13.635 24.4305 13.8272C24.4305 14.0022 24.1949 14.2349 23.9069 14.3442C23.6189 14.4534 23.3818 14.7095 23.3801 14.9134C23.3776 15.1878 23.3322 15.2137 23.2046 15.0132C23.0672 14.7974 22.8984 14.8185 22.3715 15.1177C22.0079 15.3242 21.7099 15.6106 21.709 15.7541C21.7084 15.8978 21.5193 16.0152 21.2889 16.0152C21.0585 16.0152 20.87 16.0904 20.87 16.1825C20.87 16.2745 20.4459 16.5552 19.9276 16.8065C19.4092 17.0576 18.9851 17.3584 18.9851 17.4747C18.9851 17.591 18.8437 17.6863 18.671 17.6863C18.4965 17.6863 18.3568 17.872 18.3568 18.1041C18.3568 18.3361 18.2171 18.5218 18.0426 18.5218C17.8699 18.5218 17.7285 18.6158 17.7285 18.7307C17.7285 18.8456 17.6108 18.9398 17.4667 18.94C17.0757 18.9409 15.6758 20.19 16.053 20.2017C16.2258 20.2069 16.0373 20.3297 15.6341 20.4745C15.231 20.619 14.6282 20.991 14.2946 21.3008C13.9609 21.6106 13.6076 21.864 13.5092 21.864C13.4107 21.864 13.3303 22.0025 13.3303 22.1719C13.3303 22.3413 13.0677 22.6153 12.7464 22.781C12.4253 22.9466 11.7943 23.5131 11.3442 24.0397C10.8941 24.5663 10.424 24.9972 10.2993 24.9972C10.0141 24.9972 8.93256 26.211 8.93088 26.5331C8.93005 26.6649 8.65066 26.9308 8.31011 27.1243C7.96936 27.3175 7.62986 27.7171 7.55551 28.012C7.48137 28.307 7.31822 28.5482 7.19298 28.5482C6.8252 28.5482 5.79059 29.6392 5.79059 30.0271C5.79059 30.2231 5.64922 30.4376 5.47643 30.5038C5.30365 30.5698 5.16228 30.7804 5.16228 30.9715C5.16228 31.1628 4.99745 31.4722 4.79576 31.6591C4.29521 32.1235 3.90565 32.8496 3.90565 33.3177C3.90565 33.5316 3.72302 33.9163 3.49976 34.173C3.27671 34.4298 3.14184 34.7638 3.20006 34.9152C3.26457 35.0827 3.16571 35.1786 2.94769 35.1594C2.39771 35.1113 2.36964 35.5506 2.90496 35.8312C3.16739 35.9686 3.23106 36.0392 3.04633 35.9884C2.7571 35.9086 2.02072 36.4954 2.02072 36.8056C2.02072 36.8641 1.77317 37.3032 1.47053 37.7811C1.01438 38.5017 0.962647 38.7183 1.16831 39.0467C1.34633 39.3308 1.35283 39.5194 1.19135 39.7135C0.95008 40.0032 1.10548 40.6635 1.41482 40.6635C1.51765 40.6635 1.60185 40.7487 1.60185 40.8527C1.60185 40.9569 1.41335 40.9929 1.18297 40.9329C0.902119 40.8596 0.7641 40.9264 0.7641 41.1357C0.7641 41.3074 0.623987 41.5638 0.452877 41.7054C0.180609 41.9308 0.193594 42.0285 0.557596 42.4901C1.01145 43.0654 1.1126 43.7967 0.738549 43.7967C0.569114 43.7967 0.566601 43.8727 0.729752 44.0687C0.854158 44.2182 0.902747 44.5439 0.837612 44.7922C0.680116 45.393 1.24874 45.9593 1.82574 45.7765C2.08732 45.6938 2.21529 45.5217 2.14722 45.3445C2.08418 45.1806 2.15937 45.05 2.31708 45.05C2.62327 45.05 2.84465 45.6201 2.70223 46.0422C2.65385 46.1859 2.48065 46.3033 2.31749 46.3033C1.93988 46.3033 1.93045 46.6419 2.30409 46.7848C2.45991 46.8445 2.74265 46.7125 2.9324 46.4915C3.30876 46.0531 3.39379 45.4678 3.08089 45.4678C2.8436 45.4678 2.87229 44.5771 3.11503 44.4081C3.20969 44.3421 3.33033 44.0649 3.3829 43.7919C3.43568 43.5189 3.62208 43.2156 3.79696 43.1181C3.97184 43.0203 4.11509 42.6809 4.11509 42.3638C4.11509 41.9976 4.35804 41.5393 4.78047 41.1084C5.25527 40.624 5.45046 40.2236 5.46114 39.7116C5.47266 39.1731 5.56796 38.9934 5.84295 38.993C6.177 38.9924 6.29365 38.7879 6.1571 38.442C6.1282 38.3689 6.30517 38.2352 6.55 38.145C6.89097 38.019 6.97118 37.8544 6.89222 37.4421C6.81557 37.0429 6.87652 36.9036 7.12742 36.9036C7.31382 36.9036 7.46608 36.8096 7.46608 36.6947C7.46608 36.5798 7.60745 36.4858 7.78024 36.4858C7.95302 36.4858 8.09439 36.3851 8.09439 36.2621C8.09439 36.1388 8.24183 35.8911 8.42195 35.7115C8.65359 35.4804 8.68437 35.3196 8.52667 35.1623C8.1901 34.8266 8.25901 34.5799 8.67034 34.6489C8.88376 34.6846 9.03686 34.5795 9.03686 34.397C9.03686 34.2246 9.22535 34.0283 9.45573 33.9606C9.68611 33.8931 9.85115 33.7285 9.82225 33.5951C9.79355 33.4618 9.89492 33.3525 10.0476 33.3525C10.2003 33.3525 10.5385 33.1261 10.7993 32.8493C11.2414 32.3798 11.2475 32.3393 10.8881 32.2469C10.6206 32.178 10.6736 32.1404 11.0613 32.1235C11.4523 32.1066 11.8289 31.8342 12.3179 31.2153C13.3661 29.888 13.728 29.5718 14.1232 29.6373C14.3595 29.6766 14.505 29.5365 14.5492 29.2271C14.5894 28.9436 14.7618 28.7571 14.9836 28.7571C15.1949 28.7571 15.5265 28.4246 15.7646 27.9738C15.992 27.5431 16.2679 27.1777 16.3774 27.1623C17.0845 27.0627 17.5813 26.7477 17.7783 26.2741C17.9034 25.974 17.9903 25.6577 17.9716 25.5716C17.9532 25.4856 18.0556 25.4006 18.1997 25.3832C18.3436 25.3657 18.5558 25.3295 18.671 25.3028C18.7861 25.2761 19.0563 25.2435 19.2714 25.2301C19.555 25.2128 19.6323 25.0914 19.5527 24.7883C19.4656 24.456 19.5464 24.3706 19.9473 24.3706C20.2243 24.3706 20.4512 24.2638 20.4512 24.1335C20.4512 23.8264 21.3564 22.9924 22.1126 22.6024C22.4379 22.4344 22.7598 22.1526 22.8277 21.9761C22.8957 21.7996 23.1372 21.6551 23.3644 21.6551C23.5915 21.6551 23.8223 21.5828 23.8769 21.4947C23.9316 21.4063 23.5837 21.3595 23.1039 21.3906C22.3246 21.441 22.2821 21.4211 22.7062 21.2043C23.0333 21.037 23.1429 20.8421 23.0585 20.5772C22.9089 20.107 23.125 20.0841 23.6065 20.5188C23.9366 20.8166 24.0141 20.798 24.5132 20.3003C24.8133 20.0009 25.0588 19.8545 25.0588 19.9746C25.0588 20.2599 25.6303 20.2583 25.7258 19.9727C25.7663 19.8516 25.9862 19.7246 26.2145 19.6907C26.4739 19.6521 26.6296 19.4677 26.6296 19.1986C26.6296 18.6006 26.8754 18.4143 27.2528 18.7265C27.4652 18.9022 27.572 18.9135 27.572 18.7602C27.572 18.6336 27.8076 18.4709 28.0956 18.3988C28.3836 18.3267 28.6192 18.1369 28.6192 17.9771C28.6192 17.7918 28.8525 17.6863 29.2622 17.6863C29.8861 17.6863 31.3817 16.8267 31.9537 16.1395C32.104 15.9588 32.3047 15.8588 32.3993 15.9171C32.494 15.9755 32.9074 15.835 33.3179 15.605C33.7286 15.375 34.0646 15.2346 34.0646 15.2931C34.0646 15.5095 35.4355 14.6861 35.7019 14.3095C35.854 14.095 36.0701 13.9761 36.1824 14.0453C36.2949 14.1146 36.5003 14.0797 36.6394 13.968C36.7782 13.8562 37.3161 13.6987 37.8344 13.6181C38.3528 13.5372 39.1283 13.2446 39.5579 12.9678C39.9872 12.6909 40.5322 12.4642 40.7689 12.4642C41.0053 12.4642 41.5492 12.3088 41.9775 12.1187C42.4058 11.9286 42.8398 11.7918 42.942 11.8148C43.0442 11.8378 43.3382 11.6594 43.5954 11.4185C43.9339 11.1015 44.212 11.0177 44.6024 11.1155C44.948 11.2019 45.3134 11.1307 45.6188 10.9174C45.881 10.7342 46.5018 10.5843 46.9981 10.5843C47.5852 10.5843 47.9404 10.4805 48.015 10.287C48.0778 10.1237 48.2682 9.93673 48.438 9.87176C48.6098 9.80597 48.6908 9.84419 48.6204 9.95761C48.5488 10.0733 48.6347 10.1078 48.819 10.0374C48.9978 9.9689 49.1516 9.75855 49.1606 9.56972C49.1696 9.38089 49.2175 9.32303 49.267 9.44084C49.3738 9.69505 51.029 9.57745 51.029 9.31551C51.029 9.21629 51.1774 9.19206 51.3592 9.26162C51.6372 9.36794 52.4068 9.18475 54.38 8.54243C54.8118 8.40185 55.5088 8.31538 57.0783 8.20759C57.8139 8.15725 58.4736 8.02503 58.5444 7.9139C58.6669 7.72194 59.1941 7.66596 61.6055 7.58888C62.1815 7.5705 62.716 7.46794 62.7932 7.36099C62.8705 7.25404 63.3418 7.14166 63.8404 7.11137C64.3391 7.08087 64.8032 7.051 64.8715 7.04474C64.94 7.03847 65.261 6.80619 65.5848 6.52859C66.0778 6.10602 66.2194 6.06967 66.4553 6.30487C66.61 6.45924 66.7367 6.68086 66.7367 6.79721C66.7367 7.09571 69.6705 6.83356 70.1725 6.49036C70.4628 6.29171 70.6823 6.27688 70.9799 6.43563C71.2145 6.56096 71.7134 6.59 72.1517 6.50394C72.5716 6.42164 75.2242 6.32472 78.0463 6.28879C80.8685 6.25265 83.3905 6.21652 83.6509 6.20837C83.9114 6.20001 84.3355 5.98277 84.5933 5.72564L85.0625 5.25774L85.1326 5.75217C85.1952 6.19354 85.2824 6.23364 85.944 6.1267C86.3515 6.06069 86.8619 5.84721 87.0781 5.65211C87.45 5.31644 87.471 5.31999 87.471 5.72021C87.471 6.06403 87.618 6.14905 88.2564 6.17495C90.1005 6.24973 91.1118 6.18247 91.3711 5.96774C91.5766 5.7975 91.7311 5.82131 91.9705 6.06006C92.3706 6.45903 96.2751 6.51355 96.526 6.12356C96.6244 5.97045 96.681 6.01578 96.6831 6.24994C96.6864 6.6418 97.289 6.71825 98.0473 6.4231C98.3186 6.31762 98.5399 6.35897 98.6757 6.54028C98.7911 6.69423 99.4508 6.87366 100.142 6.93904C100.833 7.00442 101.68 7.09153 102.025 7.13268C102.37 7.17383 102.71 7.1143 102.78 7.00045C102.86 6.87178 103.019 6.8981 103.201 7.07001C103.543 7.39378 105.064 7.54292 105.064 7.25258C105.064 7.14375 105.41 7.1991 105.834 7.37561C106.258 7.55211 106.953 7.66345 107.379 7.62293C107.94 7.56966 108.126 7.62251 108.053 7.81343C107.962 8.04821 108.386 8.18816 108.906 8.09563C109.004 8.07829 109.664 8.22012 110.372 8.41083C111.081 8.60154 112.132 8.78223 112.708 8.81231C113.284 8.84239 113.944 8.92886 114.174 9.0049C114.506 9.11414 114.677 8.98693 114.998 8.3912C115.325 7.7846 115.438 7.70251 115.585 7.96487C115.685 8.14367 115.71 8.38305 115.639 8.4971C115.569 8.61115 115.622 8.70432 115.758 8.70432C115.945 8.70432 115.947 8.77533 115.766 8.99216C115.577 9.21963 115.626 9.30653 116.002 9.407C116.741 9.60439 116.83 9.56951 116.692 9.13587C116.583 8.79434 116.662 8.7346 117.201 8.74985C117.726 8.76468 117.839 8.85492 117.839 9.25827C117.839 9.98143 118.565 10.6204 119.204 10.4604C119.494 10.3877 120.082 10.4727 120.533 10.653C121.135 10.8932 121.403 10.9153 121.579 10.7395C121.756 10.5636 121.926 10.6206 122.245 10.9623C122.572 11.3116 122.847 11.4002 123.397 11.3321C123.815 11.2805 124.186 11.3461 124.278 11.4879C124.365 11.6228 124.766 11.8516 125.17 11.9965C125.788 12.2186 125.938 12.2115 126.13 11.9514C126.303 11.7168 126.415 11.7014 126.601 11.8867C126.735 12.0205 126.845 12.2418 126.845 12.3786C126.845 12.7349 128.575 13.4963 129.734 13.6494C130.276 13.7211 130.906 13.9068 131.133 14.062C131.36 14.2172 131.684 14.3442 131.852 14.3442C132.021 14.3442 132.589 14.5547 133.114 14.8121C133.722 15.1093 134.46 15.2808 135.138 15.2821C135.954 15.2837 136.2 15.3577 136.185 15.5975C136.173 15.7905 136.386 15.9363 136.741 15.9768C137.058 16.0131 137.317 16.1205 137.317 16.2153C137.317 16.4512 138.886 17.0596 139.495 17.0596C139.766 17.0596 140.106 17.2006 140.249 17.373C140.533 17.7147 141.296 17.8035 141.296 17.4948C141.296 17.3895 141.179 17.256 141.034 17.1979C140.873 17.1332 140.909 17.0862 141.127 17.0761C141.322 17.0672 141.65 17.3435 141.856 17.6905C142.061 18.0374 142.349 18.2753 142.496 18.2192C142.642 18.1632 142.762 18.1989 142.762 18.2987C142.762 18.3988 143.109 18.4707 143.533 18.4587C143.966 18.4464 144.342 18.5473 144.389 18.6883C144.435 18.8264 144.595 18.9396 144.744 18.9396C144.893 18.9396 145.132 19.0806 145.276 19.2529C145.419 19.4253 145.713 19.5662 145.929 19.5662C146.146 19.5662 146.52 19.7634 146.762 20.0045C147.045 20.2869 147.378 20.4091 147.697 20.3481C147.97 20.2961 148.236 20.3575 148.289 20.4843C148.353 20.6389 148.451 20.6211 148.585 20.4304C148.754 20.19 148.806 20.19 148.915 20.4304C149.015 20.6491 149.074 20.6552 149.167 20.4559C149.26 20.2566 149.359 20.2668 149.592 20.4991C149.759 20.6656 150.057 20.75 150.256 20.6865C150.532 20.5981 150.55 20.6186 150.332 20.7738C150.093 20.9443 150.093 21.005 150.332 21.159C150.488 21.2595 150.758 21.3514 150.93 21.3631C151.103 21.3748 151.41 21.3984 151.611 21.4153C151.813 21.4322 151.978 21.5872 151.978 21.7595C151.978 21.9776 152.197 22.0728 152.7 22.0728C153.138 22.0728 153.495 22.2017 153.606 22.3993C153.707 22.5788 153.937 22.7475 154.119 22.7741C154.3 22.8006 154.595 22.9435 154.774 23.0914C154.953 23.2395 155.279 23.3038 155.498 23.2342C155.734 23.1597 156.006 23.2382 156.162 23.4258C156.308 23.6008 156.58 23.7445 156.768 23.7454C156.955 23.746 157.391 23.9334 157.737 24.1617C158.083 24.39 158.53 24.5774 158.732 24.578C158.933 24.5788 159.098 24.6534 159.098 24.7436C159.098 24.9074 159.588 24.9922 160.547 24.9947C160.826 24.9955 161.22 25.1466 161.424 25.3304C161.628 25.5144 161.878 25.6136 161.979 25.5512C162.081 25.4885 162.296 25.6203 162.458 25.844C162.619 26.0675 162.86 26.2505 162.994 26.2505C163.127 26.2505 163.353 26.3915 163.497 26.5638C163.833 26.9678 164.334 26.9678 164.334 26.5638C164.334 26.3915 164.24 26.2505 164.125 26.2505C164.01 26.2505 163.915 26.1653 163.915 26.0613C163.915 25.9572 164.144 25.9796 164.423 26.111C164.799 26.2881 164.874 26.4185 164.712 26.6136C164.591 26.7585 164.575 26.8868 164.675 26.8987C164.776 26.9106 165.216 26.9503 165.654 26.9868C166.518 27.0587 167.057 27.3877 167.057 27.8426C167.057 28.001 167.155 28.1305 167.274 28.1305C167.393 28.1305 167.737 28.2915 168.038 28.4883C168.34 28.6853 168.727 28.867 168.9 28.8923C169.073 28.9175 169.285 29.0523 169.371 29.1914C169.457 29.3307 169.68 29.3865 169.865 29.3157C170.075 29.2352 170.3 29.342 170.46 29.5985C170.602 29.8251 170.874 30.0104 171.064 30.0104C171.258 30.0104 171.467 30.2393 171.541 30.5326C171.614 30.8198 171.819 31.0548 171.998 31.0548C172.287 31.0548 172.288 31.0897 172.009 31.3682C171.836 31.5405 171.594 31.6815 171.47 31.6815C171.347 31.6815 171.246 31.778 171.246 31.8958C171.246 32.0176 170.974 31.9697 170.616 31.7849C170.163 31.5513 169.876 31.5183 169.596 31.6677C169.382 31.7822 169.142 31.8112 169.063 31.7324C168.984 31.6537 168.835 31.7247 168.732 31.8906C168.57 32.1521 168.53 32.1513 168.428 31.8845C168.329 31.6268 167.828 31.594 165.327 31.6815C163.687 31.7389 162.216 31.8684 162.059 31.9693C161.876 32.0873 161.709 32.0502 161.592 31.8649C161.446 31.6355 161.408 31.633 161.405 31.853C161.404 32.0048 161.28 32.2513 161.13 32.4007C160.907 32.6233 160.777 32.6066 160.406 32.3075C160.043 32.0142 159.779 31.9768 159.055 32.1166C158.561 32.2118 158.085 32.2939 157.999 32.2989C157.912 32.304 157.842 32.4491 157.842 32.6215C157.842 32.7938 157.745 32.9348 157.626 32.9348C157.507 32.9348 157.355 32.7938 157.289 32.6215C157.146 32.2494 156.762 32.2154 156.431 32.5454C156.154 32.8218 156.604 33.3968 157.052 33.3381C157.672 33.2567 157.87 33.3791 157.834 33.8225C157.745 34.9137 157.833 35.2229 158.192 35.0852C158.458 34.9835 158.51 35.0357 158.408 35.3006C158.328 35.5093 158.377 35.6515 158.529 35.6532C158.669 35.6547 158.996 35.7127 159.255 35.7819C159.602 35.8746 159.727 35.8184 159.727 35.5703C159.727 35.1853 160.001 35.141 160.555 35.4364C160.857 35.5976 160.96 35.5542 161.045 35.2275C161.105 35.0004 161.263 34.8147 161.397 34.8147C161.544 34.8147 161.588 34.9785 161.507 35.2312C161.403 35.5592 161.449 35.6194 161.724 35.5141C161.916 35.4405 162.145 35.4974 162.234 35.64C162.322 35.7827 162.737 35.9155 163.155 35.9352C163.756 35.9634 163.915 35.8934 163.915 35.6016C163.915 35.0978 164.469 35.1331 164.603 35.6457C164.701 36.0198 164.855 36.0505 166.235 35.9724C167.27 35.9137 167.937 35.9782 168.316 36.1735C168.789 36.4179 168.957 36.4177 169.431 36.1725C169.738 36.0137 169.989 35.9561 169.989 36.0442C169.989 36.1324 170.272 36.1631 170.617 36.1125C170.963 36.062 171.246 35.9003 171.246 35.7532C171.246 35.3534 171.821 35.211 171.961 35.5761C172.134 36.0233 172.114 36.1117 171.876 35.965C171.756 35.8905 171.724 35.9795 171.801 36.1792C171.906 36.453 171.968 36.4655 172.113 36.2422C172.26 36.0141 172.331 36.0204 172.502 36.2769C172.676 36.5368 172.743 36.5418 172.895 36.3068C173.019 36.1159 173.124 36.0966 173.217 36.2479C173.294 36.3713 173.659 36.4643 174.029 36.454C174.399 36.444 174.796 36.4582 174.911 36.4856C175.346 36.5888 175.478 36.476 175.247 36.1986C175.055 35.9682 175.109 35.9114 175.518 35.9114C175.84 35.9114 176.065 36.0553 176.13 36.303C176.272 36.8419 176.643 36.7954 176.753 36.2247L176.844 35.7547L176.872 36.2247C176.911 36.8635 177.948 36.9138 177.948 36.2769C177.948 36.0471 178.033 35.8591 178.137 35.8591C178.242 35.8591 178.283 36.0302 178.228 36.2393C178.107 36.6999 178.624 37.1734 179.142 37.0763C179.349 37.0375 179.611 36.7956 179.724 36.5389C179.838 36.2821 180.026 36.0822 180.143 36.0948C180.681 36.1522 180.836 36.0237 180.957 35.4215C181.06 34.9089 180.99 34.6967 180.617 34.3955C180.195 34.0544 180.172 33.9485 180.395 33.3576C180.616 32.7739 180.592 32.6482 180.189 32.2457C179.939 31.9961 179.76 31.6025 179.793 31.3711C179.836 31.0571 179.802 31.0225 179.659 31.2338C179.524 31.4317 179.423 31.4475 179.323 31.2861C179.244 31.1589 179.007 31.0548 178.796 31.0548C178.354 31.0548 178.157 30.6592 178.157 29.7721C178.157 29.4301 178.08 29.1979 177.985 29.2563C177.793 29.375 177.11 28.6579 177.11 28.337C177.11 28.2234 176.982 28.1305 176.825 28.1305C176.635 28.1305 176.573 27.9588 176.639 27.6143C176.715 27.2189 176.575 26.9622 176.042 26.5177C174.736 25.4263 174.157 24.7821 174.29 24.5671C174.47 24.2764 173.824 23.3261 173.447 23.3261C173.263 23.3261 173.191 23.2023 173.264 23.0128C173.345 22.8046 173.254 22.6972 172.996 22.6928C172.38 22.6824 171.874 22.1798 171.874 21.578C171.874 21.0758 171.835 21.0491 171.452 21.2877C171.082 21.5185 170.966 21.4744 170.499 20.9238C170.207 20.5793 169.83 19.9917 169.662 19.6185C169.318 18.8569 169.06 18.7669 168.759 19.3035C168.463 19.8297 168.213 19.4562 168.238 18.5254C168.254 17.9079 168.189 17.7471 167.96 17.8348C167.773 17.9063 167.616 17.7818 167.544 17.5046C167.479 17.2598 167.305 17.0596 167.157 17.0596C166.982 17.0596 166.928 17.2257 167.002 17.5296L167.118 17.9996L166.675 17.5048C166.071 16.8303 165.901 16.2174 166.249 15.9709C166.457 15.8239 166.412 15.7965 166.078 15.869C165.751 15.94 165.654 15.8859 165.734 15.6783C165.795 15.5189 165.734 15.3886 165.597 15.3886C165.46 15.3886 164.982 15.0078 164.533 14.5424C164.085 14.077 163.598 13.7123 163.451 13.7317C162.475 13.8602 162.24 13.7194 162.24 13.0061C162.24 12.4078 162.176 12.3111 161.839 12.399C161.566 12.4703 161.323 12.3289 161.077 11.9552C160.879 11.6535 160.769 11.3548 160.833 11.2913C160.979 11.146 160.331 10.4921 159.69 10.1375C159.206 9.86988 159.081 9.82497 158.68 9.77484C158.564 9.76043 158.47 9.56074 158.47 9.33097C158.47 9.09326 158.33 8.9132 158.146 8.9132C157.968 8.9132 157.662 8.63183 157.465 8.2878C157.03 7.52475 156.674 7.4859 156.499 8.18211C156.427 8.46932 156.222 8.70432 156.044 8.70432C155.815 8.70432 155.758 8.58149 155.852 8.2878C155.951 7.9774 155.906 7.90137 155.677 7.98889C155.176 8.18064 155.103 8.89962 155.555 9.1814C155.776 9.31885 155.957 9.56554 155.957 9.72931C155.957 9.89328 156.018 9.96639 156.092 9.89202C156.243 9.74184 157.408 11.1875 157.417 11.5364C157.423 11.7611 158.829 12.4642 159.273 12.4642C159.408 12.4642 159.517 12.3117 159.517 12.1254C159.517 11.8478 159.574 11.8334 159.831 12.0464C160.004 12.1895 160.147 12.4594 160.149 12.6464C160.151 12.9371 160.18 12.9419 160.347 12.6792C160.454 12.5102 160.615 12.4448 160.704 12.5338C160.906 12.7349 160.342 13.1072 160.08 12.9459C159.903 12.8371 159.528 13.2335 159.52 13.5364C159.519 13.6093 159.705 13.7177 159.935 13.7777C160.165 13.8376 160.42 14.0601 160.501 14.2721C160.731 14.8712 161.461 15.3994 161.949 15.3203C162.291 15.2649 162.369 15.3357 162.292 15.6319C162.236 15.8427 162.106 16.0152 162.001 16.0152C161.897 16.0152 161.97 16.2559 162.163 16.55C162.38 16.8808 162.568 16.9976 162.655 16.8562C162.915 16.4376 163.471 16.8742 163.537 17.5474C163.595 18.1471 163.674 18.2146 164.387 18.2735C165.113 18.3332 165.155 18.3716 164.939 18.775C164.737 19.1514 164.755 19.1926 165.068 19.0727C165.346 18.9663 165.409 19.0219 165.334 19.3083C165.212 19.7701 165.711 20.2716 166.132 20.1106C166.334 20.0333 166.513 20.1789 166.646 20.5277C166.903 21.2001 166.712 21.5586 166.286 21.2058C166.113 21.0625 165.673 20.9317 165.31 20.9152C164.237 20.8665 164.125 20.8327 164.125 20.557C164.125 20.3051 162.786 19.7751 162.149 19.7751C161.98 19.7751 161.765 19.6387 161.672 19.4723C161.573 19.2966 161.083 19.1332 160.504 19.0837C159.955 19.0367 159.449 18.9413 159.379 18.8717C159.31 18.8024 159.09 18.832 158.892 18.9379C158.588 19.1002 158.547 19.0503 158.63 18.6173C158.689 18.3077 158.631 18.1041 158.482 18.1041C158.347 18.1041 158.294 18.1981 158.365 18.3129C158.708 18.8659 157.885 18.4429 156.928 17.5743C156.647 17.3193 155.152 16.8631 154.7 16.8946C153.667 16.9667 153.025 16.8272 153.025 16.531C153.025 16.3549 152.86 16.1527 152.658 16.0814C152.457 16.01 152.15 15.8337 151.978 15.6894C151.805 15.5452 151.381 15.3967 151.035 15.3595C150.69 15.3224 150.091 15.1223 149.706 14.9148C149.321 14.7074 148.826 14.5944 148.606 14.6638C148.384 14.7341 148.208 14.6913 148.208 14.567C148.208 14.4444 147.972 14.3442 147.684 14.3442C147.396 14.3442 147.161 14.2445 147.161 14.123C147.161 14.0014 147.066 13.9602 146.95 14.0317C146.834 14.1031 146.466 13.9678 146.132 13.7307C145.798 13.4936 145.422 13.2997 145.296 13.2997C145.169 13.2997 145.066 13.2058 145.066 13.0909C145.066 12.976 144.849 12.882 144.584 12.882C144.319 12.882 144.013 12.7982 143.904 12.6957C143.794 12.5933 142.908 12.2691 141.933 11.9752C140.529 11.5516 140.097 11.4929 139.851 11.6916C139.603 11.8912 139.574 11.8858 139.707 11.6648C139.906 11.3367 139.219 10.6135 138.831 10.7424C138.69 10.7892 138.257 10.6319 137.869 10.3927C137.48 10.1533 136.902 9.95761 136.582 9.95761C136.263 9.95761 135.897 9.81829 135.769 9.64826C135.641 9.47802 135.348 9.30423 135.118 9.26182C134.887 9.21942 134.558 9.1319 134.385 9.06735C133.325 8.67131 132.684 8.54097 132.295 8.64249C132.016 8.71539 131.757 8.62766 131.594 8.40519C131.451 8.2101 131.033 8.04383 130.661 8.03317C130.29 8.02273 129.987 7.92434 129.987 7.81468C129.987 7.70502 129.856 7.66533 129.696 7.72674C129.535 7.78794 129.198 7.64674 128.947 7.41279C128.619 7.10824 128.32 7.02092 127.895 7.10573C127.499 7.18469 127.265 7.12954 127.193 6.93988C127.132 6.78342 126.393 6.49976 125.55 6.30947C124.707 6.11939 123.803 5.82444 123.541 5.6542C123.278 5.48396 122.983 5.39414 122.885 5.45451C122.787 5.51488 122.417 5.41983 122.062 5.24312C121.429 4.92854 120.233 4.93376 119.462 5.2544C119.168 5.3768 119.096 5.29973 119.096 4.86233C119.096 4.51746 118.981 4.31777 118.782 4.31777C118.609 4.31777 118.468 4.23902 118.468 4.14272C118.468 4.04643 118.127 3.95494 117.71 3.93927C117.294 3.9236 116.829 3.80851 116.678 3.68318C116.363 3.42249 115.296 3.22447 114.4 3.26082C114.063 3.27439 113.72 3.17705 113.638 3.04462C113.556 2.91198 112.983 2.762 112.365 2.71124C110.729 2.57672 110.456 2.58153 109.921 2.75469C109.54 2.87752 109.414 2.823 109.329 2.49902C109.218 2.07707 109.203 2.07394 106.53 1.9177C105.448 1.85461 104.928 1.74579 104.721 1.53878C104.641 1.45878 104.138 1.3934 103.605 1.3934C103.071 1.3934 102.545 1.30483 102.435 1.19642C102.272 1.03475 100.943 0.94827 99.1995 0.986078C99.0267 0.989838 98.4612 0.891661 97.9428 0.768002C96.543 0.433789 95.3584 0.366112 95.0658 0.603403C94.9204 0.721214 94.6444 0.740012 94.4375 0.646015C93.9434 0.422092 89.9842 0.350446 89.9842 0.565387C89.9842 0.658549 89.7218 0.604239 89.4012 0.444652C89.0405 0.265221 88.3012 0.174774 87.4634 0.20736C86.0625 0.262087 85.4924 0.446531 85.6983 0.778865C85.7637 0.884351 85.6711 0.914849 85.4922 0.846544C85.3134 0.77803 85.1672 0.62659 85.1672 0.510033C85.1672 0.387627 85.0342 0.407888 84.853 0.557866C84.5977 0.769047 84.5389 0.759857 84.5389 0.507944C84.5389 0.253315 84.2341 0.21112 82.8307 0.271278C81.8912 0.311593 81.0777 0.389298 81.0228 0.443817C80.9682 0.498544 80.7709 0.468673 80.5845 0.377809C80.3979 0.286945 79.9124 0.272115 79.5053 0.345015ZM153.915 5.51258C153.771 5.56396 153.664 5.90361 153.677 6.26727C153.694 6.71199 153.735 6.79178 153.805 6.51104C153.861 6.28127 154.005 5.97358 154.124 5.82716C154.377 5.51634 154.287 5.38015 153.915 5.51258ZM96.0579 5.98883C96.0579 6.10372 95.958 6.19772 95.8361 6.19772C95.7142 6.19772 95.6725 6.10372 95.7437 5.98883C95.8149 5.87395 95.9146 5.77995 95.9655 5.77995C96.0164 5.77995 96.0579 5.87395 96.0579 5.98883ZM154.91 6.55637C154.91 6.96536 155.28 7.45101 155.592 7.45101C155.691 7.45101 155.698 7.33362 155.608 7.18991C155.518 7.04641 155.442 6.79596 155.439 6.63345C155.43 6.18038 154.91 6.10455 154.91 6.55637ZM59.1402 6.95053C59.0707 7.01988 58.89 7.0274 58.739 6.96703C58.5718 6.9004 58.6215 6.85089 58.8655 6.84087C59.0862 6.83189 59.2098 6.88118 59.1402 6.95053ZM154.386 7.24213C154.315 7.35702 154.404 7.45101 154.583 7.45101C154.763 7.45101 154.91 7.35702 154.91 7.24213C154.91 7.12725 154.821 7.03325 154.713 7.03325C154.604 7.03325 154.457 7.12725 154.386 7.24213ZM55.6366 7.88111C55.6366 7.98931 55.5423 8.07766 55.4271 8.07766C55.3119 8.07766 55.2177 7.93103 55.2177 7.75202C55.2177 7.573 55.3119 7.48444 55.4271 7.55546C55.5423 7.62648 55.6366 7.7729 55.6366 7.88111ZM44.9553 7.9609C44.9553 8.01166 44.861 8.11109 44.7458 8.18211C44.6307 8.25313 44.5364 8.21156 44.5364 8.08999C44.5364 7.96842 44.6307 7.86878 44.7458 7.86878C44.861 7.86878 44.9553 7.91014 44.9553 7.9609ZM44.4656 10.0098C44.4076 10.1535 44.3601 10.0359 44.3601 9.74873C44.3601 9.46152 44.4076 9.34412 44.4656 9.48763C44.5238 9.63134 44.5238 9.86633 44.4656 10.0098ZM42.0232 11.6287C42.0232 11.7436 41.8581 11.8361 41.6567 11.8344C41.3433 11.8317 41.3358 11.8016 41.6043 11.6287C41.9995 11.3738 42.0232 11.3738 42.0232 11.6287ZM137.135 13.1475C136.794 13.4871 136.599 13.1692 136.929 12.8118C137.085 12.643 137.246 12.5981 137.288 12.7119C137.33 12.8256 137.261 13.0215 137.135 13.1475ZM38.1486 12.882C38.2198 12.9969 38.1781 13.0909 38.0562 13.0909C37.9343 13.0909 37.8344 12.9969 37.8344 12.882C37.8344 12.7671 37.8759 12.6731 37.9268 12.6731C37.9777 12.6731 38.0774 12.7671 38.1486 12.882ZM161.402 14.4486C161.402 14.6209 161.308 14.7619 161.193 14.7619C161.078 14.7619 160.983 14.6209 160.983 14.4486C160.983 14.2763 161.078 14.1353 161.193 14.1353C161.308 14.1353 161.402 14.2763 161.402 14.4486ZM168.523 22.0728C168.523 22.1877 168.482 22.2817 168.431 22.2817C168.38 22.2817 168.28 22.1877 168.209 22.0728C168.138 21.958 168.179 21.864 168.301 21.864C168.423 21.864 168.523 21.958 168.523 22.0728ZM167.476 32.6215C167.476 32.7938 167.382 32.9348 167.266 32.9348C167.151 32.9348 167.057 32.7938 167.057 32.6215C167.057 32.4491 167.151 32.3081 167.266 32.3081C167.382 32.3081 167.476 32.4491 167.476 32.6215ZM7.88496 33.0269C7.88496 33.0777 7.79071 33.1771 7.67552 33.2481C7.56033 33.3191 7.46608 33.2776 7.46608 33.156C7.46608 33.0344 7.56033 32.9348 7.67552 32.9348C7.79071 32.9348 7.88496 32.9761 7.88496 33.0269ZM168.732 33.2481C168.732 33.4204 168.638 33.5614 168.523 33.5614C168.408 33.5614 168.314 33.7181 168.314 33.9096C168.314 34.101 168.255 34.1994 168.184 34.1281C167.995 33.9401 168.285 32.9348 168.527 32.9348C168.64 32.9348 168.732 33.0758 168.732 33.2481ZM161.201 34.1831C160.78 34.4425 160.513 34.2265 160.828 33.8812C160.995 33.6985 161.163 33.6682 161.296 33.7964C161.432 33.9278 161.399 34.0607 161.201 34.1831ZM163.056 33.8482C163.308 34.1509 163.164 34.8147 162.846 34.8147C162.743 34.8147 162.659 34.6737 162.659 34.5014C162.659 34.3291 162.506 34.1881 162.319 34.1881C162.041 34.1881 162.026 34.1315 162.24 33.8748C162.563 33.4864 162.75 33.4804 163.056 33.8482ZM176.717 34.035C176.51 34.2397 176.486 34.2157 176.6 33.918C176.679 33.712 176.796 33.5961 176.86 33.6604C176.925 33.7246 176.86 33.8931 176.717 34.035ZM159.092 34.3447C159.087 34.8375 159.055 34.867 158.871 34.552C158.753 34.35 158.715 34.0916 158.785 33.9775C159.002 33.6281 159.099 33.744 159.092 34.3447ZM165.8 34.8271C165.8 35.0635 165.706 35.1991 165.591 35.1281C165.476 35.057 165.382 34.8636 165.382 34.698C165.382 34.5323 165.476 34.397 165.591 34.397C165.706 34.397 165.8 34.5906 165.8 34.8271ZM170.617 35.1281C170.617 35.3004 170.479 35.4414 170.31 35.4414C170.123 35.4414 170.049 35.319 170.123 35.1281C170.189 34.9557 170.328 34.8147 170.43 34.8147C170.533 34.8147 170.617 34.9557 170.617 35.1281ZM4.1109 36.1775C3.96514 36.3525 3.80282 36.4528 3.75004 36.4004C3.6049 36.2554 3.9 35.8591 4.153 35.8591C4.29207 35.8591 4.27615 35.979 4.1109 36.1775ZM6.00002 37.8312C6.00002 37.882 5.90578 37.9814 5.79059 38.0524C5.6754 38.1234 5.58115 38.0819 5.58115 37.9603C5.58115 37.8387 5.6754 37.7391 5.79059 37.7391C5.90578 37.7391 6.00002 37.7805 6.00002 37.8312Z" fill="#0076FF"/>
</svg>
