<svg width="20" height="20" viewBox="0 0 20 20" fill="none" xmlns="http://www.w3.org/2000/svg">
<path d="M16.0583 3.04166L11.8083 7.29166H2.66666C2.11666 7.29166 1.66666 6.84166 1.66666 6.29166V6.28333C1.66666 4.37499 3.20832 2.83333 5.11666 2.83333H14.875C15.2917 2.83333 15.6917 2.90833 16.0583 3.04166Z" fill="#0076FF"/>
<path d="M10.5583 8.54167L5.97499 13.125H4.99999C4.65832 13.125 4.37499 13.4083 4.37499 13.75C4.37499 14.0083 4.54166 14.2417 4.77499 14.325L2.81666 16.2833C2.10832 15.6583 1.66666 14.7417 1.66666 13.7167V9.54167C1.66666 8.99167 2.11666 8.54167 2.66666 8.54167H10.5583Z" fill="#0076FF"/>
<path d="M18.3333 9.16666V13.7167C18.3333 15.625 16.7917 17.1667 14.8833 17.1667H7.34168C6.60001 17.1667 6.22501 16.2667 6.75001 15.7417L7.87501 14.6167C8.03335 14.4583 8.24168 14.375 8.46668 14.375H12.0833C12.425 14.375 12.7083 14.0917 12.7083 13.75C12.7083 13.4083 12.425 13.125 12.0833 13.125H11.3833C10.6417 13.125 10.2667 12.225 10.7917 11.7L13.675 8.81666C13.9917 8.50833 14.4167 8.33333 14.8583 8.33333H17.5C17.9583 8.33333 18.3333 8.70833 18.3333 9.16666Z" fill="#0076FF"/>
<path d="M18.1417 1.85834C17.8917 1.60834 17.4833 1.60834 17.2333 1.85834L1.85834 17.2417C1.60834 17.4917 1.60834 17.9 1.85834 18.15C1.98334 18.2667 2.14167 18.3333 2.30834 18.3333C2.475 18.3333 2.63334 18.2667 2.75834 18.1417L18.1417 2.75834C18.4 2.50834 18.4 2.10834 18.1417 1.85834Z" fill="#0076FF"/>
<path d="M18.1417 2.75833L17.175 3.725L13.6083 7.29167L2.75833 18.1417C2.63333 18.2667 2.475 18.3333 2.30833 18.3333C2.14166 18.3333 1.98333 18.2667 1.85833 18.1417C1.6 17.8917 1.6 17.4917 1.85833 17.2417L2.81666 16.2833L4.775 14.325L16.0583 3.04166L17.2417 1.85833C17.4917 1.6 17.8917 1.6 18.1417 1.85833C18.4 2.10833 18.4 2.50833 18.1417 2.75833Z" fill="#0076FF"/>
<path d="M18.3333 6.17499C18.3333 5.43333 17.4333 5.05833 16.9083 5.58333L16.6667 5.83333L16.425 6.07499C15.9 6.59999 16.2667 7.49999 17.0083 7.49999H17.5C17.9583 7.49999 18.3333 7.12499 18.3333 6.66666V6.17499Z" fill="#0076FF"/>
</svg>
