<svg width="40" height="40" viewBox="0 0 40 40" fill="none" xmlns="http://www.w3.org/2000/svg">
<path d="M35.4166 21.25C36.1166 21.25 36.6666 20.6834 36.6666 20C36.6666 19.3 36.1166 18.75 35.4166 18.75H33.3333V15.0834H35.4166C36.1166 15.0834 36.6666 14.5334 36.6666 13.8334C36.6666 13.15 36.1166 12.5834 35.4166 12.5834H32.9499C32.1499 9.93337 30.0666 7.85004 27.4166 7.05004V4.58337C27.4166 3.90004 26.8499 3.33337 26.1666 3.33337C25.4833 3.33337 24.9166 3.90004 24.9166 4.58337V6.66671H21.2499V4.58337C21.2499 3.90004 20.6833 3.33337 19.9999 3.33337C19.3166 3.33337 18.7499 3.90004 18.7499 4.58337V6.66671H15.0999V4.58337C15.0999 3.90004 14.5333 3.33337 13.8499 3.33337C13.1499 3.33337 12.5999 3.90004 12.5999 4.58337V7.05004C9.93325 7.85004 7.84992 9.93337 7.04992 12.5834H4.58325C3.89992 12.5834 3.33325 13.15 3.33325 13.8334C3.33325 14.5334 3.89992 15.0834 4.58325 15.0834H6.66659V18.75H4.58325C3.89992 18.75 3.33325 19.3 3.33325 20C3.33325 20.6834 3.89992 21.25 4.58325 21.25H6.66659V24.9167H4.58325C3.89992 24.9167 3.33325 25.4667 3.33325 26.1667C3.33325 26.85 3.89992 27.4167 4.58325 27.4167H7.04992C7.83325 30.0667 9.93325 32.15 12.5999 32.95V35.4167C12.5999 36.1 13.1499 36.6667 13.8499 36.6667C14.5333 36.6667 15.0999 36.1 15.0999 35.4167V33.3334H18.7666V35.4167C18.7666 36.1 19.3166 36.6667 20.0166 36.6667C20.6999 36.6667 21.2666 36.1 21.2666 35.4167V33.3334H24.9166V35.4167C24.9166 36.1 25.4833 36.6667 26.1666 36.6667C26.8499 36.6667 27.4166 36.1 27.4166 35.4167V32.95C30.0666 32.15 32.1499 30.0667 32.9499 27.4167H35.4166C36.1166 27.4167 36.6666 26.85 36.6666 26.1667C36.6666 25.4667 36.1166 24.9167 35.4166 24.9167H33.3333V21.25H35.4166ZM28.7666 23.7667C28.7666 26.5167 26.5166 28.7667 23.7666 28.7667H16.2333C13.4833 28.7667 11.2333 26.5167 11.2333 23.7667V16.2334C11.2333 13.4834 13.4833 11.2334 16.2333 11.2334H23.7666C26.5166 11.2334 28.7666 13.4834 28.7666 16.2334V23.7667Z" fill="#0076FF"/>
<path d="M16.7001 27.0834H23.3167C25.4001 27.0834 27.1001 25.4 27.1001 23.3V16.6834C27.1001 14.6 25.4167 12.9 23.3167 12.9H16.7001C14.6167 12.9 12.9167 14.5834 12.9167 16.6834V23.3C12.9167 25.4 14.6001 27.0834 16.7001 27.0834Z" fill="#0076FF"/>
</svg>
