<svg width="20" height="21" viewBox="0 0 20 21" fill="none" xmlns="http://www.w3.org/2000/svg">
<g clip-path="url(#clip0_1827_50786)">
<path fill-rule="evenodd" clip-rule="evenodd" d="M15.3033 5.19673C15.969 5.8624 15.969 6.94165 15.3033 7.60732L12.4107 10.4995L15.3033 13.3928C15.969 14.0584 15.969 15.1377 15.3033 15.8033C14.6376 16.469 13.5584 16.469 12.8927 15.8033L10 12.9101L7.10728 15.8033C6.44162 16.469 5.36237 16.469 4.6967 15.8033C4.03103 15.1377 4.03104 14.0584 4.69671 13.3928L7.58936 10.4995L4.69669 7.60732C4.03102 6.94165 4.03103 5.8624 4.6967 5.19673C5.36237 4.53107 6.44162 4.53106 7.10728 5.19673L10 8.08881L12.8927 5.19674C13.5584 4.53107 14.6376 4.53107 15.3033 5.19673Z" fill="#D1362B"/>
</g>
<defs>
<clipPath id="clip0_1827_50786">
<rect width="20" height="20" fill="white" transform="translate(0 0.5)"/>
</clipPath>
</defs>
</svg>
