<svg width="14" height="14" viewBox="0 0 14 14" fill="none" xmlns="http://www.w3.org/2000/svg">
<g clip-path="url(#clip0_172_3144)">
<path fill-rule="evenodd" clip-rule="evenodd" d="M10.7123 3.28769C11.1783 3.75366 11.1783 4.50913 10.7123 4.9751L8.68746 6.99959L10.7123 9.0249C11.1783 9.49087 11.1783 10.2463 10.7123 10.7123C10.2463 11.1783 9.49087 11.1783 9.0249 10.7123L7.00001 8.68704L4.9751 10.7123C4.50913 11.1783 3.75366 11.1783 3.28769 10.7123C2.82172 10.2463 2.82173 9.49087 3.2877 9.0249L5.31255 6.99959L3.28768 4.9751C2.82172 4.50913 2.82172 3.75366 3.28769 3.28769C3.75366 2.82172 4.50913 2.82172 4.9751 3.28768L7 5.31214L9.0249 3.28769C9.49087 2.82173 10.2463 2.82172 10.7123 3.28769Z" fill="#EDF0FA"/>
</g>
<defs>
<clipPath id="clip0_172_3144">
<rect width="14" height="14" fill="white"/>
</clipPath>
</defs>
</svg>
