<svg width="120" height="40" viewBox="0 0 120 40" fill="none" xmlns="http://www.w3.org/2000/svg">
<path d="M24.7689 20.3003C24.7796 19.4657 25.0013 18.6473 25.4134 17.9213C25.8254 17.1954 26.4143 16.5854 27.1254 16.1483C26.6737 15.5031 26.0777 14.9722 25.3849 14.5976C24.6921 14.2231 23.9215 14.0152 23.1343 13.9906C21.455 13.8143 19.8271 14.9954 18.9714 14.9954C18.0991 14.9954 16.7816 14.0081 15.3629 14.0373C14.4452 14.0669 13.5509 14.3338 12.767 14.8118C11.9831 15.2899 11.3364 15.9629 10.89 16.7651C8.95595 20.1136 10.3985 25.0346 12.2511 27.7412C13.178 29.0666 14.2613 30.547 15.6788 30.4945C17.0658 30.437 17.5839 29.61 19.2582 29.61C20.9169 29.61 21.403 30.4945 22.8492 30.4611C24.3376 30.437 25.2753 29.1299 26.1697 27.792C26.8357 26.8476 27.3481 25.8039 27.6881 24.6995C26.8234 24.3338 26.0855 23.7216 25.5664 22.9393C25.0472 22.157 24.7699 21.2392 24.7689 20.3003Z" fill="white"/>
<path d="M22.0372 12.2108C22.8487 11.2366 23.2485 9.98445 23.1517 8.72021C21.9119 8.85044 20.7666 9.44299 19.9441 10.3798C19.542 10.8375 19.234 11.3699 19.0378 11.9467C18.8415 12.5235 18.7609 13.1333 18.8004 13.7412C19.4206 13.7476 20.0341 13.6132 20.5947 13.3481C21.1554 13.083 21.6486 12.6942 22.0372 12.2108Z" fill="white"/>
<path d="M42.3022 27.1397H37.5688L36.4321 30.4961H34.4272L38.9106 18.0781H40.9936L45.477 30.4961H43.438L42.3022 27.1397ZM38.0591 25.5908H41.8111L39.9615 20.1436H39.9097L38.0591 25.5908Z" fill="white"/>
<path d="M55.1597 25.9699C55.1597 28.7834 53.6538 30.591 51.3814 30.591C50.8057 30.6211 50.2332 30.4885 49.7294 30.2084C49.2256 29.9283 48.8109 29.5119 48.5327 29.007H48.4897V33.4914H46.6313V21.4426H48.4302V22.9485H48.4644C48.7553 22.446 49.1771 22.0318 49.6847 21.7499C50.1923 21.4681 50.7669 21.3291 51.3472 21.3479C53.645 21.3479 55.1597 23.1643 55.1597 25.9699ZM53.2495 25.9699C53.2495 24.1369 52.3023 22.9319 50.857 22.9319C49.437 22.9319 48.482 24.1623 48.482 25.9699C48.482 27.7942 49.437 29.0158 50.857 29.0158C52.3023 29.0158 53.2495 27.8196 53.2495 25.9699Z" fill="white"/>
<path d="M65.1245 25.9699C65.1245 28.7834 63.6187 30.591 61.3462 30.591C60.7706 30.6211 60.1981 30.4885 59.6943 30.2084C59.1905 29.9283 58.7758 29.5119 58.4976 29.007H58.4546V33.4914H56.5962V21.4426H58.395V22.9484H58.4292C58.7201 22.446 59.1419 22.0318 59.6495 21.7499C60.1571 21.4681 60.7317 21.3291 61.312 21.3479C63.6099 21.3479 65.1245 23.1643 65.1245 25.9699ZM63.2144 25.9699C63.2144 24.1369 62.2671 22.9318 60.8218 22.9318C59.4019 22.9318 58.4468 24.1623 58.4468 25.9699C58.4468 27.7942 59.4019 29.0158 60.8218 29.0158C62.2671 29.0158 63.2144 27.8195 63.2144 25.9699H63.2144Z" fill="white"/>
<path d="M71.7104 27.0362C71.8481 28.2676 73.0444 29.0762 74.6792 29.0762C76.2456 29.0762 77.3726 28.2676 77.3726 27.1572C77.3726 26.1934 76.6929 25.6162 75.0835 25.2207L73.4741 24.833C71.1939 24.2822 70.1353 23.2158 70.1353 21.4854C70.1353 19.3428 72.0024 17.8711 74.6538 17.8711C77.2778 17.8711 79.0767 19.3428 79.1372 21.4854H77.2612C77.1489 20.2461 76.1245 19.4981 74.6274 19.4981C73.1303 19.4981 72.1059 20.2549 72.1059 21.3565C72.1059 22.2344 72.7602 22.751 74.3608 23.1465L75.729 23.4824C78.2768 24.0849 79.3354 25.1084 79.3354 26.9248C79.3354 29.248 77.4848 30.7031 74.5415 30.7031C71.7876 30.7031 69.9282 29.2822 69.8081 27.0361L71.7104 27.0362Z" fill="white"/>
<path d="M83.3462 19.2998V21.4424H85.0679V22.9141H83.3462V27.9053C83.3462 28.6807 83.6909 29.042 84.4477 29.042C84.6521 29.0384 84.8562 29.0241 85.0591 28.999V30.4619C84.7188 30.5255 84.3729 30.5543 84.0268 30.5478C82.1938 30.5478 81.479 29.8593 81.479 28.1035V22.9141H80.1626V21.4424H81.479V19.2998H83.3462Z" fill="white"/>
<path d="M86.065 25.9697C86.065 23.1211 87.7427 21.3311 90.3589 21.3311C92.9839 21.3311 94.6538 23.1211 94.6538 25.9697C94.6538 28.8262 92.9927 30.6084 90.3589 30.6084C87.7261 30.6084 86.065 28.8262 86.065 25.9697ZM92.7603 25.9697C92.7603 24.0156 91.8648 22.8623 90.3589 22.8623C88.853 22.8623 87.9585 24.0244 87.9585 25.9697C87.9585 27.9316 88.853 29.0762 90.3589 29.0762C91.8648 29.0762 92.7602 27.9316 92.7602 25.9697H92.7603Z" fill="white"/>
<path d="M96.186 21.4425H97.9585V22.9835H98.0015C98.1214 22.5022 98.4034 22.0769 98.8 21.779C99.1966 21.4811 99.6836 21.3288 100.179 21.3478C100.393 21.347 100.607 21.3703 100.816 21.4171V23.1554C100.546 23.0728 100.264 23.0348 99.981 23.0431C99.711 23.0321 99.4418 23.0797 99.192 23.1826C98.9421 23.2855 98.7175 23.4412 98.5335 23.6391C98.3496 23.837 98.2106 24.0724 98.1262 24.3291C98.0417 24.5857 98.0139 24.8576 98.0444 25.1261V30.4962H96.186L96.186 21.4425Z" fill="white"/>
<path d="M109.384 27.8369C109.134 29.4805 107.534 30.6084 105.486 30.6084C102.852 30.6084 101.217 28.8437 101.217 26.0127C101.217 23.1729 102.861 21.3311 105.408 21.3311C107.913 21.3311 109.488 23.0518 109.488 25.7969V26.4336H103.093V26.5459C103.064 26.8791 103.105 27.2148 103.216 27.5306C103.326 27.8464 103.502 28.1352 103.732 28.3778C103.963 28.6203 104.242 28.8111 104.552 28.9374C104.861 29.0637 105.195 29.1226 105.529 29.1103C105.968 29.1515 106.409 29.0498 106.785 28.8203C107.162 28.5909 107.455 28.246 107.62 27.8369L109.384 27.8369ZM103.102 25.1348H107.628C107.645 24.8352 107.6 24.5354 107.495 24.2541C107.39 23.9729 107.229 23.7164 107.02 23.5006C106.812 23.2849 106.561 23.1145 106.283 23.0003C106.006 22.8861 105.708 22.8305 105.408 22.8369C105.105 22.8351 104.805 22.8933 104.525 23.008C104.245 23.1227 103.99 23.2918 103.776 23.5054C103.562 23.7191 103.392 23.973 103.276 24.2527C103.16 24.5323 103.101 24.8321 103.102 25.1348V25.1348Z" fill="white"/>
<path d="M37.8262 8.73138C38.2158 8.70342 38.6067 8.76228 38.9709 8.90371C39.335 9.04515 39.6632 9.26563 39.9317 9.54925C40.2003 9.83288 40.4026 10.1726 40.524 10.5438C40.6454 10.9151 40.6829 11.3087 40.6338 11.6962C40.6338 13.6025 39.6035 14.6982 37.8262 14.6982H35.6709V8.73138H37.8262ZM36.5976 13.8544H37.7226C38.0011 13.871 38.2797 13.8254 38.5382 13.7208C38.7967 13.6161 39.0287 13.4552 39.2172 13.2496C39.4057 13.0441 39.546 12.7991 39.6278 12.5324C39.7097 12.2658 39.7311 11.9843 39.6904 11.7084C39.7281 11.4335 39.7046 11.1538 39.6215 10.8891C39.5383 10.6244 39.3977 10.3814 39.2096 10.1775C39.0216 9.97358 38.7907 9.81378 38.5337 9.70954C38.2766 9.6053 37.9996 9.55922 37.7226 9.57459H36.5976V13.8544Z" fill="white"/>
<path d="M41.6807 12.4443C41.6524 12.1484 41.6862 11.8498 41.7801 11.5677C41.8739 11.2857 42.0257 11.0263 42.2256 10.8063C42.4256 10.5864 42.6693 10.4106 42.9411 10.2903C43.213 10.17 43.507 10.1079 43.8042 10.1079C44.1015 10.1079 44.3955 10.17 44.6673 10.2903C44.9392 10.4106 45.1829 10.5864 45.3828 10.8063C45.5828 11.0263 45.7345 11.2857 45.8284 11.5677C45.9222 11.8498 45.9561 12.1484 45.9278 12.4443C45.9566 12.7405 45.9232 13.0395 45.8296 13.322C45.736 13.6045 45.5843 13.8644 45.3843 14.0848C45.1843 14.3052 44.9404 14.4813 44.6683 14.6019C44.3962 14.7224 44.1019 14.7847 43.8042 14.7847C43.5066 14.7847 43.2123 14.7224 42.9402 14.6019C42.668 14.4813 42.4241 14.3052 42.2241 14.0848C42.0242 13.8644 41.8725 13.6045 41.7789 13.322C41.6853 13.0395 41.6519 12.7405 41.6807 12.4443ZM45.0137 12.4443C45.0137 11.4682 44.5752 10.8974 43.8057 10.8974C43.0332 10.8974 42.5987 11.4682 42.5987 12.4443C42.5987 13.4282 43.0333 13.9946 43.8057 13.9946C44.5752 13.9946 45.0137 13.4243 45.0137 12.4443H45.0137Z" fill="white"/>
<path d="M51.5732 14.6978H50.6514L49.7207 11.3813H49.6504L48.7236 14.6978H47.8105L46.5693 10.1948H47.4707L48.2773 13.6308H48.3438L49.2695 10.1948H50.1221L51.0479 13.6308H51.1182L51.9209 10.1948H52.8096L51.5732 14.6978Z" fill="white"/>
<path d="M53.8535 10.1949H54.709V10.9102H54.7754C54.888 10.6533 55.0781 10.4379 55.3189 10.2941C55.5598 10.1503 55.8395 10.0852 56.1191 10.1079C56.3382 10.0915 56.5582 10.1245 56.7628 10.2046C56.9674 10.2847 57.1514 10.4098 57.3011 10.5707C57.4508 10.7315 57.5623 10.924 57.6275 11.1338C57.6927 11.3436 57.7099 11.5654 57.6777 11.7827V14.6977H56.7891V12.0059C56.7891 11.2823 56.4746 10.9224 55.8174 10.9224C55.6686 10.9155 55.5201 10.9408 55.3821 10.9966C55.244 11.0525 55.1197 11.1375 55.0175 11.2459C54.9154 11.3543 54.8379 11.4834 54.7904 11.6246C54.7429 11.7657 54.7264 11.9154 54.7422 12.0635V14.6978H53.8535L53.8535 10.1949Z" fill="white"/>
<path d="M59.0938 8.43701H59.9825V14.6978H59.0938V8.43701Z" fill="white"/>
<path d="M61.2178 12.4444C61.1895 12.1484 61.2234 11.8499 61.3172 11.5678C61.4111 11.2857 61.5629 11.0263 61.7628 10.8064C61.9628 10.5864 62.2065 10.4106 62.4784 10.2903C62.7503 10.17 63.0443 10.1079 63.3416 10.1079C63.6389 10.1079 63.9329 10.17 64.2047 10.2903C64.4766 10.4106 64.7203 10.5864 64.9203 10.8064C65.1203 11.0263 65.272 11.2857 65.3659 11.5678C65.4598 11.8499 65.4936 12.1484 65.4653 12.4444C65.4942 12.7406 65.4607 13.0396 65.3671 13.3221C65.2734 13.6046 65.1217 13.8645 64.9217 14.0849C64.7217 14.3053 64.4778 14.4814 64.2057 14.6019C63.9335 14.7225 63.6392 14.7847 63.3416 14.7847C63.0439 14.7847 62.7496 14.7225 62.4775 14.6019C62.2053 14.4814 61.9614 14.3053 61.7614 14.0849C61.5614 13.8645 61.4097 13.6046 61.3161 13.3221C61.2225 13.0396 61.189 12.7406 61.2178 12.4444ZM64.5508 12.4444C64.5508 11.4683 64.1123 10.8975 63.3428 10.8975C62.5703 10.8975 62.1358 11.4683 62.1358 12.4444C62.1358 13.4283 62.5704 13.9947 63.3428 13.9947C64.1123 13.9947 64.5508 13.4244 64.5508 12.4444H64.5508Z" fill="white"/>
<path d="M66.4009 13.4243C66.4009 12.6138 67.0044 12.1465 68.0757 12.0801L69.2954 12.0098V11.6211C69.2954 11.1455 68.981 10.877 68.3736 10.877C67.8775 10.877 67.5337 11.0591 67.4351 11.3774H66.5747C66.6656 10.604 67.3931 10.1079 68.4146 10.1079C69.5435 10.1079 70.1802 10.6699 70.1802 11.6211V14.6978H69.3247V14.0649H69.2544C69.1117 14.2919 68.9113 14.477 68.6737 14.6012C68.4361 14.7254 68.1697 14.7843 67.9019 14.7719C67.7129 14.7916 67.5218 14.7714 67.341 14.7127C67.1603 14.654 66.9938 14.5581 66.8524 14.4311C66.711 14.3042 66.5977 14.149 66.52 13.9756C66.4422 13.8021 66.4017 13.6144 66.4009 13.4243ZM69.2954 13.0395V12.6631L68.1958 12.7334C67.5757 12.7749 67.2945 12.9858 67.2945 13.3828C67.2945 13.7881 67.646 14.0239 68.1295 14.0239C68.2711 14.0382 68.4142 14.0239 68.5502 13.9819C68.6862 13.9398 68.8123 13.8707 68.9211 13.7789C69.0299 13.6871 69.1191 13.5743 69.1834 13.4473C69.2477 13.3202 69.2858 13.1816 69.2954 13.0395Z" fill="white"/>
<path d="M71.3482 12.4444C71.3482 11.0215 72.0796 10.1201 73.2173 10.1201C73.4987 10.1072 73.778 10.1746 74.0226 10.3145C74.2671 10.4544 74.4667 10.661 74.5982 10.9101H74.6646V8.43701H75.5533V14.6978H74.7017V13.9863H74.6314C74.4898 14.2338 74.2832 14.4378 74.0339 14.5763C73.7847 14.7148 73.5023 14.7825 73.2173 14.772C72.0718 14.772 71.3482 13.8706 71.3482 12.4444ZM72.2662 12.4444C72.2662 13.3994 72.7164 13.9741 73.4693 13.9741C74.2183 13.9741 74.6812 13.3911 74.6812 12.4483C74.6812 11.5098 74.2134 10.9185 73.4693 10.9185C72.7212 10.9185 72.2661 11.4971 72.2661 12.4444H72.2662Z" fill="white"/>
<path d="M79.23 12.4443C79.2017 12.1484 79.2356 11.8498 79.3294 11.5677C79.4232 11.2857 79.575 11.0263 79.7749 10.8063C79.9749 10.5864 80.2186 10.4106 80.4904 10.2903C80.7623 10.17 81.0563 10.1079 81.3536 10.1079C81.6508 10.1079 81.9448 10.17 82.2167 10.2903C82.4885 10.4106 82.7322 10.5864 82.9322 10.8063C83.1321 11.0263 83.2839 11.2857 83.3777 11.5677C83.4715 11.8498 83.5054 12.1484 83.4771 12.4443C83.5059 12.7405 83.4725 13.0395 83.3789 13.322C83.2853 13.6045 83.1336 13.8644 82.9336 14.0848C82.7336 14.3052 82.4897 14.4813 82.2176 14.6019C81.9455 14.7224 81.6512 14.7847 81.3536 14.7847C81.0559 14.7847 80.7616 14.7224 80.4895 14.6019C80.2173 14.4813 79.9735 14.3052 79.7735 14.0848C79.5735 13.8644 79.4218 13.6045 79.3282 13.322C79.2346 13.0395 79.2012 12.7405 79.23 12.4443ZM82.563 12.4443C82.563 11.4682 82.1245 10.8974 81.355 10.8974C80.5826 10.8974 80.148 11.4682 80.148 12.4443C80.148 13.4282 80.5826 13.9946 81.355 13.9946C82.1245 13.9946 82.563 13.4243 82.563 12.4443Z" fill="white"/>
<path d="M84.6695 10.1949H85.5249V10.9102H85.5913C85.704 10.6533 85.894 10.4379 86.1349 10.2941C86.3757 10.1503 86.6555 10.0852 86.9351 10.1079C87.1542 10.0915 87.3742 10.1245 87.5788 10.2046C87.7834 10.2847 87.9673 10.4098 88.117 10.5707C88.2667 10.7315 88.3783 10.924 88.4435 11.1338C88.5087 11.3436 88.5258 11.5654 88.4937 11.7827V14.6977H87.605V12.0059C87.605 11.2823 87.2906 10.9224 86.6333 10.9224C86.4846 10.9155 86.3361 10.9408 86.198 10.9966C86.06 11.0525 85.9356 11.1375 85.8335 11.2459C85.7314 11.3543 85.6539 11.4834 85.6064 11.6246C85.5588 11.7657 85.5424 11.9154 85.5581 12.0635V14.6978H84.6695V10.1949Z" fill="white"/>
<path d="M93.5152 9.07373V10.2153H94.4908V10.9639H93.5152V13.2793C93.5152 13.751 93.7095 13.9575 94.1519 13.9575C94.2651 13.9572 94.3783 13.9503 94.4908 13.937V14.6772C94.3312 14.7058 94.1695 14.721 94.0074 14.7226C93.0191 14.7226 92.6255 14.375 92.6255 13.5068V10.9638H91.9107V10.2153H92.6255V9.07373H93.5152Z" fill="white"/>
<path d="M95.7046 8.43701H96.5855V10.9185H96.6558C96.7739 10.6591 96.9691 10.4425 97.2148 10.2982C97.4605 10.1539 97.7448 10.0888 98.0288 10.1118C98.2467 10.1 98.4646 10.1364 98.6669 10.2184C98.8692 10.3004 99.0509 10.4261 99.199 10.5864C99.3471 10.7468 99.458 10.9378 99.5238 11.146C99.5896 11.3541 99.6086 11.5742 99.5796 11.7905V14.6978H98.69V12.0098C98.69 11.2905 98.355 10.9263 97.7271 10.9263C97.5744 10.9137 97.4207 10.9347 97.277 10.9878C97.1332 11.0408 97.0027 11.1247 96.8948 11.2334C96.7868 11.3421 96.7038 11.4732 96.6518 11.6173C96.5997 11.7614 96.5798 11.9152 96.5933 12.0679V14.6977H95.7047L95.7046 8.43701Z" fill="white"/>
<path d="M104.761 13.482C104.641 13.8935 104.379 14.2495 104.022 14.4877C103.666 14.7258 103.236 14.831 102.81 14.7847C102.513 14.7926 102.219 14.7357 101.946 14.6182C101.674 14.5007 101.43 14.3253 101.232 14.1041C101.034 13.883 100.887 13.6214 100.8 13.3376C100.713 13.0538 100.689 12.7545 100.73 12.4605C100.691 12.1656 100.715 11.8657 100.801 11.581C100.888 11.2964 101.034 11.0336 101.231 10.8105C101.428 10.5874 101.671 10.4093 101.942 10.2881C102.214 10.1669 102.509 10.1054 102.806 10.108C104.059 10.108 104.815 10.964 104.815 12.378V12.6881H101.635V12.7379C101.621 12.9031 101.642 13.0695 101.696 13.2262C101.75 13.383 101.837 13.5267 101.95 13.6481C102.062 13.7696 102.2 13.8661 102.352 13.9315C102.504 13.9969 102.669 14.0297 102.835 14.0279C103.047 14.0534 103.262 14.0151 103.453 13.9179C103.644 13.8207 103.802 13.669 103.906 13.482L104.761 13.482ZM101.635 12.0308H103.91C103.921 11.8797 103.9 11.7279 103.849 11.5852C103.798 11.4425 103.718 11.312 103.614 11.2021C103.509 11.0923 103.383 11.0055 103.243 10.9473C103.103 10.8891 102.953 10.8609 102.801 10.8643C102.648 10.8624 102.495 10.8913 102.353 10.9492C102.21 11.0072 102.081 11.093 101.972 11.2017C101.864 11.3104 101.778 11.4398 101.72 11.5822C101.662 11.7246 101.633 11.8771 101.635 12.0308H101.635Z" fill="white"/>
</svg>
