<svg width="136" height="40" viewBox="0 0 136 40" fill="none" xmlns="http://www.w3.org/2000/svg">
<path d="M48.0641 10.1999C48.0641 10.9999 47.8641 11.6999 47.3641 12.1999C46.7641 12.7999 46.0641 13.0999 45.1641 13.0999C44.2641 13.0999 43.5641 12.7999 42.9641 12.1999C42.3641 11.5999 42.0641 10.8999 42.0641 9.9999C42.0641 9.0999 42.3641 8.3999 42.9641 7.7999C43.5641 7.1999 44.2641 6.8999 45.1641 6.8999C45.5641 6.8999 45.9641 6.9999 46.3641 7.1999C46.7641 7.3999 47.0641 7.5999 47.2641 7.8999L46.7641 8.3999C46.3641 7.8999 45.8641 7.6999 45.1641 7.6999C44.5641 7.6999 43.9641 7.8999 43.5641 8.3999C43.0641 8.7999 42.8641 9.3999 42.8641 10.0999C42.8641 10.7999 43.0641 11.3999 43.5641 11.7999C44.0641 12.1999 44.5641 12.4999 45.1641 12.4999C45.8641 12.4999 46.3641 12.2999 46.8641 11.7999C47.1641 11.4999 47.3641 11.0999 47.3641 10.5999H45.1641V9.8999H48.0641C48.0641 9.8999 48.0641 10.0999 48.0641 10.1999Z" fill="white" stroke="white" stroke-width="0.2" stroke-miterlimit="10"/>
<path d="M52.6641 7.7H49.9641V9.6H52.4641V10.3H49.9641V12.2H52.6641V13H49.1641V7H52.6641V7.7Z" fill="white" stroke="white" stroke-width="0.2" stroke-miterlimit="10"/>
<path d="M55.9641 13H55.1641V7.7H53.4641V7H57.6641V7.7H55.9641V13Z" fill="white" stroke="white" stroke-width="0.2" stroke-miterlimit="10"/>
<path d="M60.5641 13V7H61.3641V13H60.5641Z" fill="white" stroke="white" stroke-width="0.2" stroke-miterlimit="10"/>
<path d="M64.764 13H63.964V7.7H62.264V7H66.364V7.7H64.664V13H64.764Z" fill="white" stroke="white" stroke-width="0.2" stroke-miterlimit="10"/>
<path d="M74.264 12.1999C73.664 12.7999 72.964 13.0999 72.064 13.0999C71.164 13.0999 70.464 12.7999 69.864 12.1999C69.264 11.5999 68.9641 10.8999 68.9641 9.9999C68.9641 9.0999 69.264 8.3999 69.864 7.7999C70.464 7.1999 71.164 6.8999 72.064 6.8999C72.964 6.8999 73.664 7.1999 74.264 7.7999C74.864 8.3999 75.164 9.0999 75.164 9.9999C75.164 10.8999 74.864 11.5999 74.264 12.1999ZM70.4641 11.6999C70.8641 12.0999 71.464 12.3999 72.064 12.3999C72.664 12.3999 73.264 12.1999 73.664 11.6999C74.064 11.2999 74.364 10.6999 74.364 9.9999C74.364 9.2999 74.164 8.6999 73.664 8.2999C73.264 7.8999 72.664 7.5999 72.064 7.5999C71.464 7.5999 70.8641 7.7999 70.4641 8.2999C70.0641 8.6999 69.764 9.2999 69.764 9.9999C69.764 10.6999 69.9641 11.2999 70.4641 11.6999Z" fill="white" stroke="white" stroke-width="0.2" stroke-miterlimit="10"/>
<path d="M76.264 13V7H77.164L80.064 11.7V10.5V7H80.864V13H80.064L76.964 8.1V9.3V13H76.264Z" fill="white" stroke="white" stroke-width="0.2" stroke-miterlimit="10"/>
<path d="M68.764 21.8001C66.364 21.8001 64.464 23.6001 64.464 26.1001C64.464 28.5001 66.364 30.4001 68.764 30.4001C71.164 30.4001 73.064 28.6001 73.064 26.1001C73.064 23.5001 71.164 21.8001 68.764 21.8001ZM68.764 28.6001C67.464 28.6001 66.364 27.5001 66.364 26.0001C66.364 24.5001 67.464 23.4001 68.764 23.4001C70.064 23.4001 71.164 24.4001 71.164 26.0001C71.164 27.5001 70.064 28.6001 68.764 28.6001ZM59.464 21.8001C57.064 21.8001 55.164 23.6001 55.164 26.1001C55.164 28.5001 57.064 30.4001 59.464 30.4001C61.864 30.4001 63.764 28.6001 63.764 26.1001C63.764 23.5001 61.864 21.8001 59.464 21.8001ZM59.464 28.6001C58.164 28.6001 57.064 27.5001 57.064 26.0001C57.064 24.5001 58.164 23.4001 59.464 23.4001C60.764 23.4001 61.864 24.4001 61.864 26.0001C61.864 27.5001 60.764 28.6001 59.464 28.6001ZM48.364 23.1001V24.9001H52.664C52.564 25.9001 52.164 26.7001 51.664 27.2001C51.064 27.8001 50.064 28.5001 48.364 28.5001C45.664 28.5001 43.664 26.4001 43.664 23.7001C43.664 21.0001 45.764 18.9001 48.364 18.9001C49.764 18.9001 50.864 19.5001 51.664 20.2001L52.964 18.9001C51.864 17.9001 50.464 17.1001 48.464 17.1001C44.864 17.1001 41.764 20.1001 41.764 23.7001C41.764 27.3001 44.864 30.3001 48.464 30.3001C50.464 30.3001 51.864 29.7001 53.064 28.4001C54.264 27.2001 54.664 25.5001 54.664 24.2001C54.664 23.8001 54.664 23.4001 54.564 23.1001H48.364ZM93.764 24.5001C93.364 23.5001 92.364 21.8001 90.164 21.8001C87.964 21.8001 86.164 23.5001 86.164 26.1001C86.164 28.5001 87.964 30.4001 90.364 30.4001C92.264 30.4001 93.464 29.2001 93.864 28.5001L92.464 27.5001C91.964 28.2001 91.364 28.7001 90.364 28.7001C89.364 28.7001 88.764 28.3001 88.264 27.4001L93.964 25.0001L93.764 24.5001ZM87.964 25.9001C87.964 24.3001 89.264 23.4001 90.164 23.4001C90.864 23.4001 91.564 23.8001 91.764 24.3001L87.964 25.9001ZM83.264 30.0001H85.164V17.5001H83.264V30.0001ZM80.264 22.7001C79.764 22.2001 78.964 21.7001 77.964 21.7001C75.864 21.7001 73.864 23.6001 73.864 26.0001C73.864 28.4001 75.764 30.2001 77.964 30.2001C78.964 30.2001 79.764 29.7001 80.164 29.2001H80.264V29.8001C80.264 31.4001 79.364 32.3001 77.964 32.3001C76.864 32.3001 76.064 31.5001 75.864 30.8001L74.264 31.5001C74.764 32.6001 75.964 34.0001 78.064 34.0001C80.264 34.0001 82.064 32.7001 82.064 29.6001V22.0001H80.264V22.7001ZM78.064 28.6001C76.764 28.6001 75.664 27.5001 75.664 26.0001C75.664 24.5001 76.764 23.4001 78.064 23.4001C79.364 23.4001 80.364 24.5001 80.364 26.0001C80.364 27.5001 79.364 28.6001 78.064 28.6001ZM102.464 17.5001H97.964V30.0001H99.864V25.3001H102.464C104.564 25.3001 106.564 23.8001 106.564 21.4001C106.564 19.0001 104.564 17.5001 102.464 17.5001ZM102.564 23.5001H99.864V19.2001H102.564C103.964 19.2001 104.764 20.4001 104.764 21.3001C104.664 22.4001 103.864 23.5001 102.564 23.5001ZM114.064 21.7001C112.664 21.7001 111.264 22.3001 110.764 23.6001L112.464 24.3001C112.864 23.6001 113.464 23.4001 114.164 23.4001C115.164 23.4001 116.064 24.0001 116.164 25.0001V25.1001C115.864 24.9001 115.064 24.6001 114.264 24.6001C112.464 24.6001 110.664 25.6001 110.664 27.4001C110.664 29.1001 112.164 30.2001 113.764 30.2001C115.064 30.2001 115.664 29.6001 116.164 29.0001H116.264V30.0001H118.064V25.2001C117.864 23.0001 116.164 21.7001 114.064 21.7001ZM113.864 28.6001C113.264 28.6001 112.364 28.3001 112.364 27.5001C112.364 26.5001 113.464 26.2001 114.364 26.2001C115.164 26.2001 115.564 26.4001 116.064 26.6001C115.864 27.8001 114.864 28.6001 113.864 28.6001ZM124.364 22.0001L122.264 27.4001H122.164L119.964 22.0001H117.964L121.264 29.6001L119.364 33.8001H121.264L126.364 22.0001H124.364ZM107.564 30.0001H109.464V17.5001H107.564V30.0001Z" fill="white"/>
<path d="M11.0641 7.5C10.7641 7.8 10.5641 8.3 10.5641 8.9V31C10.5641 31.6 10.7641 32.1 11.0641 32.4L11.1641 32.5L23.5641 20.1V20V19.9L11.0641 7.5Z" fill="url(#paint0_linear_64_239)"/>
<path d="M27.6641 24.2998L23.5641 20.1998V19.9998V19.8998L27.6641 15.7998L27.7641 15.8998L32.6641 18.6998C34.0641 19.4998 34.0641 20.7998 32.6641 21.5998L27.6641 24.2998Z" fill="url(#paint1_linear_64_239)"/>
<path d="M27.7641 24.2L23.5641 20L11.0641 32.5C11.5641 33 12.2641 33 13.1641 32.6L27.7641 24.2Z" fill="url(#paint2_linear_64_239)"/>
<path d="M27.7641 15.8001L13.1641 7.50011C12.2641 7.00011 11.5641 7.10011 11.0641 7.60011L23.5641 20.0001L27.7641 15.8001Z" fill="url(#paint3_linear_64_239)"/>
<path opacity="0.2" d="M27.6641 24.1001L13.1641 32.3001C12.3641 32.8001 11.6641 32.7001 11.1641 32.3001L11.0641 32.4001L11.1641 32.5001C11.6641 32.9001 12.3641 33.0001 13.1641 32.5001L27.6641 24.1001Z" fill="white"/>
<path opacity="0.12" d="M11.0641 32.2999C10.7641 31.9999 10.6641 31.4999 10.6641 30.8999V30.9999C10.6641 31.5999 10.8641 32.0999 11.1641 32.3999V32.2999H11.0641Z" fill="white"/>
<path opacity="0.12" d="M32.6641 21.3L27.6641 24.1L27.7641 24.2L32.6641 21.4C33.3641 21 33.6641 20.5 33.6641 20C33.6641 20.5 33.2641 20.9 32.6641 21.3Z" fill="white"/>
<path opacity="0.25" d="M13.1641 7.59988L32.6641 18.6999C33.2641 19.0999 33.6641 19.4999 33.6641 19.9999C33.6641 19.4999 33.3641 18.9999 32.6641 18.5999L13.1641 7.49988C11.7641 6.69988 10.6641 7.39988 10.6641 8.99988V9.09988C10.6641 7.49988 11.7641 6.79988 13.1641 7.59988Z" fill="white"/>
<defs>
<linearGradient id="paint0_linear_64_239" x1="22.4638" y1="8.7097" x2="5.68139" y2="25.4921" gradientUnits="userSpaceOnUse">
<stop stop-color="#00A0FF"/>
<stop offset="0.00657445" stop-color="#00A1FF"/>
<stop offset="0.2601" stop-color="#00BEFF"/>
<stop offset="0.5122" stop-color="#00D2FF"/>
<stop offset="0.7604" stop-color="#00DFFF"/>
<stop offset="1" stop-color="#00E3FF"/>
</linearGradient>
<linearGradient id="paint1_linear_64_239" x1="34.4985" y1="20.0012" x2="10.3016" y2="20.0012" gradientUnits="userSpaceOnUse">
<stop stop-color="#FFE000"/>
<stop offset="0.4087" stop-color="#FFBD00"/>
<stop offset="0.7754" stop-color="#FFA500"/>
<stop offset="1" stop-color="#FF9C00"/>
</linearGradient>
<linearGradient id="paint2_linear_64_239" x1="25.4911" y1="22.2961" x2="2.73279" y2="45.0544" gradientUnits="userSpaceOnUse">
<stop stop-color="#FF3A44"/>
<stop offset="1" stop-color="#C31162"/>
</linearGradient>
<linearGradient id="paint3_linear_64_239" x1="7.96139" y1="0.176312" x2="18.124" y2="10.3388" gradientUnits="userSpaceOnUse">
<stop stop-color="#32A071"/>
<stop offset="0.0685" stop-color="#2DA771"/>
<stop offset="0.4762" stop-color="#15CF74"/>
<stop offset="0.8009" stop-color="#06E775"/>
<stop offset="1" stop-color="#00F076"/>
</linearGradient>
</defs>
</svg>
