<svg width="375" height="309" viewBox="0 0 375 309" fill="none" xmlns="http://www.w3.org/2000/svg">
<g id="No Results">
<g id="circle">
<path id="Stroke 1" d="M14.4741 142.101V145.252" stroke="#D2D8DF" stroke-width="1.02273" stroke-linecap="round"/>
<g id="Group 8">
<path id="Stroke 2" d="M7.396 143.808L9.97095 146.458" stroke="#D2D8DF" stroke-width="1.02273" stroke-linecap="round"/>
<path id="Stroke 4" d="M4.38428 150.864H8.02522" stroke="#D2D8DF" stroke-width="1.02273" stroke-linecap="round"/>
<path id="Stroke 6" d="M7.1001 158.045L9.67505 155.395" stroke="#D2D8DF" stroke-width="1.02273" stroke-linecap="round"/>
</g>
<path id="Stroke 9" d="M14.4741 158.907V155.756" stroke="#D2D8DF" stroke-width="1.02273" stroke-linecap="round"/>
<path id="Stroke 10" d="M19.7258 156.806L17.625 154.705" stroke="#D2D8DF" stroke-width="1.02273" stroke-linecap="round"/>
<path id="Stroke 11" d="M23.9285 151.554H20.7773" stroke="#D2D8DF" stroke-width="1.02273" stroke-linecap="round"/>
<path id="Stroke 12" d="M21.8278 144.201L19.7271 146.302" stroke="#D2D8DF" stroke-width="1.02273" stroke-linecap="round"/>
<path id="Stroke 13" d="M183.587 4.5V6.60077" stroke="#D2D8DF" stroke-width="1.02273" stroke-linecap="round"/>
<path id="Stroke 15" d="M177.283 10.8025H179.383" stroke="#D2D8DF" stroke-width="1.02273" stroke-linecap="round"/>
<path id="Stroke 16" d="M183.587 17.1048V15.004" stroke="#D2D8DF" stroke-width="1.02273" stroke-linecap="round"/>
<path id="Stroke 17" d="M188.838 10.8025H186.737" stroke="#D2D8DF" stroke-width="1.02273" stroke-linecap="round"/>
<path id="Stroke 18" d="M61.7402 92.7327V95.8838" stroke="#D2D8DF" stroke-width="1.02273" stroke-linecap="round"/>
<path id="Stroke 19" d="M52.2891 102.186H55.4402" stroke="#D2D8DF" stroke-width="1.02273" stroke-linecap="round"/>
<path id="Stroke 20" d="M61.7402 110.589V107.438" stroke="#D2D8DF" stroke-width="1.02273" stroke-linecap="round"/>
<path id="Stroke 21" d="M70.1443 102.186H66.9932" stroke="#D2D8DF" stroke-width="1.02273" stroke-linecap="round"/>
<g id="Group 42">
<path id="Stroke 22" d="M287.842 207.266C290.353 207.266 292.389 209.302 292.389 211.813C292.389 214.325 290.353 216.36 287.842 216.36C285.332 216.36 283.296 214.325 283.296 211.813" stroke="#D2D8DF" stroke-width="1.02273" stroke-linecap="round"/>
<path id="Fill 26" fill-rule="evenodd" clip-rule="evenodd" d="M308.647 166.011C311.346 165.169 315.484 161.868 316.442 158.316C317.31 161.456 320.951 165.169 324.236 165.45C320.538 166.76 317.003 170.65 316.442 173.705C316.06 170.591 311.17 166.465 308.647 166.011" fill="#EBECEE"/>
<path id="Fill 28" fill-rule="evenodd" clip-rule="evenodd" d="M31.5659 205.865C32.916 205.444 34.9839 203.794 35.4628 202.018C35.8971 203.587 37.7171 205.444 39.3597 205.585C37.5111 206.239 35.7437 208.184 35.4628 209.712C35.272 208.155 32.8268 206.092 31.5659 205.865" fill="#EBECEE"/>
<path id="Fill 30" fill-rule="evenodd" clip-rule="evenodd" d="M56.6204 59.7474C56.6204 61.6954 55.042 63.2733 53.0953 63.2733C51.1478 63.2733 49.5703 61.6954 49.5703 59.7474C49.5703 57.8002 51.1478 56.2214 53.0953 56.2214C55.042 56.2214 56.6204 57.8002 56.6204 59.7474" fill="#D1D8DF"/>
<path id="Fill 32" fill-rule="evenodd" clip-rule="evenodd" d="M292.007 69.2151C292.007 72.4699 289.369 75.1084 286.116 75.1084C282.861 75.1084 280.223 72.4699 280.223 69.2151C280.223 65.9603 282.861 63.3219 286.116 63.3219C289.369 63.3219 292.007 65.9603 292.007 69.2151" fill="#EBECEE"/>
<path id="Fill 34" fill-rule="evenodd" clip-rule="evenodd" d="M373.616 53.2483C373.616 55.8305 371.524 57.9231 368.944 57.9231C366.362 57.9231 364.27 55.8305 364.27 53.2483C364.27 50.666 366.362 48.5735 368.944 48.5735C371.524 48.5735 373.616 50.666 373.616 53.2483" fill="#EBECEE"/>
<path id="Stroke 36" fill-rule="evenodd" clip-rule="evenodd" d="M122.501 271.58C122.501 273.207 121.182 274.527 119.554 274.527C117.928 274.527 116.609 273.207 116.609 271.58C116.609 269.952 117.928 268.633 119.554 268.633C121.182 268.633 122.501 269.952 122.501 271.58Z" stroke="#D2D8DF" stroke-width="1.02273" stroke-linecap="round"/>
<path id="Stroke 38" fill-rule="evenodd" clip-rule="evenodd" d="M120.747 37.0954C120.747 39.0435 119.168 40.6214 117.222 40.6214C115.275 40.6214 113.697 39.0435 113.697 37.0954C113.697 35.1482 115.275 33.5695 117.222 33.5695C119.168 33.5695 120.747 35.1482 120.747 37.0954Z" stroke="#D2D8DF" stroke-width="1.02273" stroke-linecap="round"/>
<path id="Stroke 40" fill-rule="evenodd" clip-rule="evenodd" d="M210.664 304.214C208.411 305.071 205.89 303.939 205.034 301.687C204.177 299.434 205.307 296.911 207.561 296.055C209.812 295.198 212.333 296.329 213.19 298.582C214.048 300.835 212.916 303.357 210.664 304.214Z" stroke="#D2D8DF" stroke-width="1.02273" stroke-linecap="round"/>
</g>
</g>
<g id="search">
<g id="documents">
<path id="Fill 1" fill-rule="evenodd" clip-rule="evenodd" d="M209.319 220.88H123.183C117.12 220.88 112.157 215.903 112.157 209.82V86.9845C112.157 80.9013 117.12 75.9265 123.183 75.9265H209.319C215.384 75.9265 220.347 80.9013 220.347 86.9845V209.82C220.347 215.903 215.384 220.88 209.319 220.88" fill="#E0E2EE"/>
<path id="Fill 3" fill-rule="evenodd" clip-rule="evenodd" d="M201.966 226.132H115.829C109.766 226.132 104.804 221.155 104.804 215.072V92.2367C104.804 86.1535 109.766 81.1787 115.829 81.1787H201.966C208.031 81.1787 212.994 86.1535 212.994 92.2367V215.072C212.994 221.155 208.031 226.132 201.966 226.132" fill="#E8EBF2"/>
<path id="Fill 5" fill-rule="evenodd" clip-rule="evenodd" d="M194.815 230.278H108.5C102.425 230.278 97.4517 225.321 97.4517 219.263V96.937C97.4517 90.879 102.425 85.9248 108.5 85.9248H194.815C200.892 85.9248 205.865 90.879 205.865 96.937V219.263C205.865 225.321 200.892 230.278 194.815 230.278" fill="#D8DBEA"/>
<path id="Fill 8" fill-rule="evenodd" clip-rule="evenodd" d="M194.815 230.278H108.5C102.425 230.278 97.4517 225.321 97.4517 219.263V96.937C97.4517 90.879 102.425 85.9248 108.5 85.9248H194.815C200.892 85.9248 205.865 90.879 205.865 96.937V219.263C205.865 225.321 200.892 230.278 194.815 230.278" fill="#F1F2F7"/>
<path id="Fill 11" fill-rule="evenodd" clip-rule="evenodd" d="M182.372 123.194H118.618C116.797 123.194 115.307 121.776 115.307 120.044C115.307 118.309 116.797 116.892 118.618 116.892H182.372C184.192 116.892 185.683 118.309 185.683 120.044C185.683 121.776 184.192 123.194 182.372 123.194" fill="#E0E2EE"/>
<path id="Fill 13" fill-rule="evenodd" clip-rule="evenodd" d="M182.372 142.101H118.618C116.797 142.101 115.307 140.683 115.307 138.951C115.307 137.217 116.797 135.799 118.618 135.799H182.372C184.192 135.799 185.683 137.217 185.683 138.951C185.683 140.683 184.192 142.101 182.372 142.101" fill="#E0E2EE"/>
<path id="Fill 15" fill-rule="evenodd" clip-rule="evenodd" d="M182.372 161.008H118.618C116.797 161.008 115.307 159.59 115.307 157.858C115.307 156.126 116.797 154.706 118.618 154.706H182.372C184.192 154.706 185.683 156.126 185.683 157.858C185.683 159.59 184.192 161.008 182.372 161.008" fill="#E0E2EE"/>
<path id="Fill 17" fill-rule="evenodd" clip-rule="evenodd" d="M182.372 179.915H118.618C116.797 179.915 115.307 178.497 115.307 176.765C115.307 175.03 116.797 173.613 118.618 173.613H182.372C184.192 173.613 185.683 175.03 185.683 176.765C185.683 178.497 184.192 179.915 182.372 179.915" fill="#E0E2EE"/>
<path id="Fill 19" fill-rule="evenodd" clip-rule="evenodd" d="M151.896 198.822H118.632C116.803 198.822 115.307 197.404 115.307 195.672C115.307 193.937 116.803 192.52 118.632 192.52H151.896C153.725 192.52 155.221 193.937 155.221 195.672C155.221 197.404 153.725 198.822 151.896 198.822" fill="#E0E2EE"/>
</g>
<g id="search_2">
<path id="Fill 21" fill-rule="evenodd" clip-rule="evenodd" d="M219.04 174.387C206.292 187.133 186.556 188.57 172.228 178.73C170.397 177.449 168.654 176.012 167.028 174.387C166.192 173.553 165.403 172.692 164.66 171.786C163.174 169.977 161.872 168.047 160.805 166.053C158.926 162.685 157.648 159.112 156.951 155.418C154.7 143.835 158.065 131.367 167.028 122.408C176.013 113.422 188.483 110.079 200.068 112.308C203.76 113.027 207.337 114.304 210.705 116.162C212.702 117.252 214.605 118.554 216.417 120.04C217.321 120.78 218.182 121.571 219.016 122.408C220.644 124.033 222.103 125.773 223.36 127.606C233.205 141.929 231.764 161.665 219.04 174.387" fill="white" fill-opacity="0.1"/>
<path id="Fill 23" fill-rule="evenodd" clip-rule="evenodd" d="M215.473 171.876C202.21 185.141 180.716 185.139 167.451 171.876C154.203 158.628 154.203 137.132 167.468 123.869C180.716 110.621 202.21 110.621 215.458 123.869C228.721 137.132 228.721 158.628 215.473 171.876ZM222.28 117.055C205.256 100.031 177.669 100.031 160.645 117.055C143.624 134.077 143.609 161.681 160.63 178.705C176.124 194.194 200.409 195.59 217.49 182.873C219.158 181.629 220.765 180.235 222.297 178.705C223.827 177.172 225.222 175.565 226.463 173.897C239.18 156.814 237.771 132.546 222.28 117.055Z" fill="#E0E2EE"/>
<path id="Fill 25" fill-rule="evenodd" clip-rule="evenodd" d="M289.277 242.877L288.562 243.592C283.834 248.322 276.091 248.322 271.36 243.592L227.701 199.932L245.618 182.016L289.277 225.675C294.008 230.406 294.008 238.146 289.277 242.877" fill="#0076FF"/>
<path id="Fill 27" fill-rule="evenodd" clip-rule="evenodd" d="M227.402 172.562L240.304 185.464L231.145 194.62L218.246 181.719C219.948 180.45 221.585 179.027 223.151 177.465C224.713 175.904 226.136 174.265 227.402 172.562" fill="#E0E2EE"/>
<path id="Fill 29" fill-rule="evenodd" clip-rule="evenodd" d="M288.622 225.138L270.819 242.938L267.614 239.731L285.414 221.93L288.622 225.138Z" fill="#4698F8"/>
<path id="Fill 31" fill-rule="evenodd" clip-rule="evenodd" d="M246.608 182.632L228.318 200.923L225.601 198.206L243.891 179.915L246.608 182.632Z" fill="#4698F8"/>
<path id="Fill 33" fill-rule="evenodd" clip-rule="evenodd" d="M206.692 119.306L161.837 164.159C160.148 161.132 158.999 157.919 158.375 154.598L197.131 115.841C200.45 116.49 203.665 117.636 206.692 119.306" fill="white" fill-opacity="0.5"/>
<path id="Fill 35" fill-rule="evenodd" clip-rule="evenodd" d="M221.397 129.967L172.904 175.713C171.167 174.57 169.514 173.283 167.973 171.829C167.179 171.081 166.429 170.313 165.727 169.502L214.811 123.194C215.67 123.859 216.486 124.567 217.277 125.316C218.819 126.77 220.206 128.327 221.397 129.967" fill="white" fill-opacity="0.5"/>
</g>
</g>
</g>
</svg>
