<svg width="20" height="21" viewBox="0 0 20 21" fill="none" xmlns="http://www.w3.org/2000/svg">
<path d="M17.9417 13.775C17.8083 13.55 17.4333 13.2 16.5 13.3667C15.9833 13.4583 15.4583 13.5 14.9333 13.475C12.9917 13.3917 11.2333 12.5 10.0083 11.125C8.925 9.91666 8.25833 8.34166 8.25 6.64166C8.25 5.69166 8.43333 4.775 8.80833 3.90833C9.175 3.06666 8.91667 2.625 8.73333 2.44166C8.54167 2.25 8.09167 1.98333 7.20833 2.35C3.8 3.78333 1.69167 7.2 1.94167 10.8583C2.19167 14.3 4.60833 17.2417 7.80833 18.35C8.575 18.6167 9.38333 18.775 10.2167 18.8083C10.35 18.8167 10.4833 18.825 10.6167 18.825C13.4083 18.825 16.025 17.5083 17.675 15.2667C18.2333 14.4917 18.0833 14 17.9417 13.775Z" fill="white"/>
</svg>
