<svg width="21" height="21" viewBox="0 0 21 21" fill="none" xmlns="http://www.w3.org/2000/svg">
<path d="M18.2915 13.775C18.1582 13.55 17.7832 13.2 16.8499 13.3667C16.3332 13.4583 15.8082 13.5 15.2832 13.475C13.3415 13.3917 11.5832 12.5 10.3582 11.125C9.27486 9.91666 8.60819 8.34166 8.59985 6.64166C8.59985 5.69166 8.78319 4.775 9.15819 3.90833C9.52485 3.06666 9.26652 2.625 9.08319 2.44166C8.89152 2.25 8.44152 1.98333 7.55819 2.35C4.14985 3.78333 2.04152 7.2 2.29152 10.8583C2.54152 14.3 4.95819 17.2417 8.15819 18.35C8.92485 18.6167 9.73319 18.775 10.5665 18.8083C10.6999 18.8167 10.8332 18.825 10.9665 18.825C13.7582 18.825 16.3749 17.5083 18.0249 15.2667C18.5832 14.4917 18.4332 14 18.2915 13.775Z" fill="#AFE786"/>
</svg>
