<svg width="350" height="196" viewBox="0 0 350 196" fill="none" xmlns="http://www.w3.org/2000/svg">
<rect width="350" height="196" rx="10" fill="#E9ECF2"/>
<path d="M191 87.3333C191 90.2788 188.612 92.6666 185.667 92.6666C182.721 92.6666 180.333 90.2788 180.333 87.3333C180.333 84.3877 182.721 81.9999 185.667 81.9999C188.612 81.9999 191 84.3877 191 87.3333Z" fill="white"/>
<path fill-rule="evenodd" clip-rule="evenodd" d="M175.153 69.3333H174.847C168.691 69.3332 163.867 69.3332 160.103 69.8392C156.251 70.3572 153.211 71.4381 150.824 73.8243C148.438 76.2104 147.357 79.2505 146.839 83.1031C146.333 86.8671 146.333 91.6912 146.333 97.8469V98.1529C146.333 104.309 146.333 109.133 146.839 112.897C147.357 116.749 148.438 119.789 150.824 122.176C153.211 124.562 156.251 125.643 160.103 126.161C163.867 126.667 168.691 126.667 174.847 126.667H175.153C181.309 126.667 186.133 126.667 189.897 126.161C193.749 125.643 196.789 124.562 199.176 122.176C201.562 119.789 202.643 116.749 203.161 112.897C203.667 109.133 203.667 104.309 203.667 98.1529V97.8469C203.667 91.6912 203.667 86.8671 203.161 83.1031C202.643 79.2505 201.562 76.2104 199.176 73.8243C196.789 71.4381 193.749 70.3572 189.897 69.8392C186.133 69.3332 181.309 69.3332 175.153 69.3333ZM153.653 76.6527C155.172 75.1336 157.227 74.2619 160.636 73.8036C164.103 73.3375 168.658 73.3333 175 73.3333C181.342 73.3333 185.897 73.3375 189.364 73.8036C192.773 74.2619 194.828 75.1336 196.347 76.6527C197.866 78.1718 198.738 80.227 199.196 83.6361C199.662 87.1027 199.667 91.658 199.667 97.9999C199.667 99.2005 199.667 100.337 199.663 101.414L199.071 101.332C191.488 100.282 184.548 104.225 181.014 110.167C176.456 98.6336 164.409 90.7681 150.949 92.7009L150.347 92.7877C150.377 89.0397 150.476 86.0697 150.804 83.6361C151.262 80.227 152.134 78.1718 153.653 76.6527Z" fill="white"/>
</svg>
