<svg width="21" height="20" viewBox="0 0 21 20" fill="none" xmlns="http://www.w3.org/2000/svg">
<path d="M10.6831 15.8333C13.9048 15.8333 16.5164 13.2217 16.5164 9.99999C16.5164 6.77833 13.9048 4.16666 10.6831 4.16666C7.46144 4.16666 4.84977 6.77833 4.84977 9.99999C4.84977 13.2217 7.46144 15.8333 10.6831 15.8333Z" fill="#FFC046"/>
<path d="M10.6831 19.1333C10.2248 19.1333 9.84977 18.7917 9.84977 18.3333V18.2667C9.84977 17.8083 10.2248 17.4333 10.6831 17.4333C11.1414 17.4333 11.5164 17.8083 11.5164 18.2667C11.5164 18.725 11.1414 19.1333 10.6831 19.1333ZM16.6331 16.7833C16.4164 16.7833 16.2081 16.7 16.0414 16.5417L15.9331 16.4333C15.6081 16.1083 15.6081 15.5833 15.9331 15.2583C16.2581 14.9333 16.7831 14.9333 17.1081 15.2583L17.2164 15.3667C17.5414 15.6917 17.5414 16.2167 17.2164 16.5417C17.0581 16.7 16.8498 16.7833 16.6331 16.7833ZM4.73311 16.7833C4.51644 16.7833 4.30811 16.7 4.14144 16.5417C3.81644 16.2167 3.81644 15.6917 4.14144 15.3667L4.24977 15.2583C4.57477 14.9333 5.09977 14.9333 5.42477 15.2583C5.74977 15.5833 5.74977 16.1083 5.42477 16.4333L5.31644 16.5417C5.15811 16.7 4.94144 16.7833 4.73311 16.7833ZM19.0164 10.8333H18.9498C18.4914 10.8333 18.1164 10.4583 18.1164 10C18.1164 9.54168 18.4914 9.16668 18.9498 9.16668C19.4081 9.16668 19.8164 9.54168 19.8164 10C19.8164 10.4583 19.4748 10.8333 19.0164 10.8333ZM2.41644 10.8333H2.34977C1.89144 10.8333 1.51644 10.4583 1.51644 10C1.51644 9.54168 1.89144 9.16668 2.34977 9.16668C2.80811 9.16668 3.21644 9.54168 3.21644 10C3.21644 10.4583 2.87477 10.8333 2.41644 10.8333ZM16.5248 4.99168C16.3081 4.99168 16.0998 4.90834 15.9331 4.75001C15.6081 4.42501 15.6081 3.90001 15.9331 3.57501L16.0414 3.46668C16.3664 3.14168 16.8914 3.14168 17.2164 3.46668C17.5414 3.79168 17.5414 4.31668 17.2164 4.64168L17.1081 4.75001C16.9498 4.90834 16.7414 4.99168 16.5248 4.99168ZM4.84144 4.99168C4.62477 4.99168 4.41644 4.90834 4.24977 4.75001L4.14144 4.63334C3.81644 4.30834 3.81644 3.78334 4.14144 3.45834C4.46644 3.13334 4.99144 3.13334 5.31644 3.45834L5.42477 3.56668C5.74977 3.89168 5.74977 4.41668 5.42477 4.74168C5.26644 4.90834 5.04977 4.99168 4.84144 4.99168ZM10.6831 2.53334C10.2248 2.53334 9.84977 2.19168 9.84977 1.73334V1.66668C9.84977 1.20834 10.2248 0.833344 10.6831 0.833344C11.1414 0.833344 11.5164 1.20834 11.5164 1.66668C11.5164 2.12501 11.1414 2.53334 10.6831 2.53334Z" fill="#FFC046"/>
</svg>
