<svg width="40" height="40" viewBox="0 0 40 40" fill="none" xmlns="http://www.w3.org/2000/svg">
<path fill-rule="evenodd" clip-rule="evenodd" d="M20 40C31.0457 40 40 31.0457 40 20C40 8.95431 31.0457 0 20 0C8.95431 0 0 8.95431 0 20C0 31.0457 8.95431 40 20 40Z" fill="url(#paint0_linear_220_6984)"/>
<path fill-rule="evenodd" clip-rule="evenodd" d="M16.3333 29.1663C15.6854 29.1663 15.7955 28.9217 15.572 28.3048L13.6666 22.034L28.3333 13.333" fill="#C8DAEA"/>
<path fill-rule="evenodd" clip-rule="evenodd" d="M16.3333 29.1662C16.8333 29.1662 17.0542 28.9375 17.3333 28.6662L19.9999 26.0732L16.6736 24.0674" fill="#A9C9DD"/>
<path fill-rule="evenodd" clip-rule="evenodd" d="M16.6733 24.0681L24.7333 30.0229C25.653 30.5304 26.3168 30.2676 26.5459 29.169L29.8268 13.7085C30.1627 12.3618 29.3134 11.751 28.4335 12.1505L9.16855 19.579C7.85353 20.1064 7.8612 20.8401 8.92885 21.167L13.8727 22.71L25.3182 15.4892C25.8585 15.1615 26.3544 15.3377 25.9474 15.6989" fill="url(#paint1_linear_220_6984)"/>
<defs>
<linearGradient id="paint0_linear_220_6984" x1="15.002" y1="1.668" x2="5.002" y2="25" gradientUnits="userSpaceOnUse">
<stop stop-color="#37AEE2"/>
<stop offset="1" stop-color="#1E96C8"/>
</linearGradient>
<linearGradient id="paint1_linear_220_6984" x1="17.4963" y1="21.2283" x2="19.6332" y2="28.1407" gradientUnits="userSpaceOnUse">
<stop stop-color="#EFF7FC"/>
<stop offset="1" stop-color="white"/>
</linearGradient>
</defs>
</svg>
