<svg width="129" height="24" viewBox="0 0 129 24" fill="none" xmlns="http://www.w3.org/2000/svg">
<path fill-rule="evenodd" clip-rule="evenodd" d="M23 11.8163C23 15.5809 19.954 18.6327 16.1965 18.6327C12.4391 18.6327 9.39307 15.5809 9.39307 11.8163C9.39307 8.05178 12.4391 5 16.1965 5C19.954 5 23 8.05178 23 11.8163Z" fill="#F79F1A"/>
<path fill-rule="evenodd" clip-rule="evenodd" d="M14.6069 11.8163C14.6069 15.5809 11.5609 18.6327 7.80345 18.6327C4.04601 18.6327 1 15.5809 1 11.8163C1 8.05178 4.04601 5 7.80345 5C11.5609 5 14.6069 8.05178 14.6069 11.8163Z" fill="#EA001B"/>
<path fill-rule="evenodd" clip-rule="evenodd" d="M11.9999 6.45068C10.4125 7.69853 9.39355 9.63762 9.39355 11.8159C9.39355 13.9942 10.4125 15.9348 11.9999 17.1826C13.5874 15.9348 14.6063 13.9942 14.6063 11.8159C14.6063 9.63762 13.5874 7.69853 11.9999 6.45068Z" fill="#FF5F01"/>
<mask id="mask0_220_7147" style="mask-type:alpha" maskUnits="userSpaceOnUse" x="36" y="8" width="22" height="8">
<path fill-rule="evenodd" clip-rule="evenodd" d="M47.3779 10.2895C47.3653 11.2871 48.2598 11.8438 48.9336 12.1748C49.626 12.5144 49.8585 12.7322 49.8559 13.0359C49.8506 13.5007 49.3036 13.7058 48.7916 13.7138C47.8984 13.7278 47.3792 13.4708 46.9663 13.2763L46.6446 14.794C47.0588 14.9865 47.8258 15.1543 48.6212 15.1616C50.4881 15.1616 51.7096 14.2326 51.7162 12.7921C51.7234 10.9641 49.2078 10.8629 49.225 10.0457C49.2309 9.79798 49.4654 9.5336 49.9794 9.46634C50.2337 9.43237 50.936 9.4064 51.732 9.77601L52.0445 8.30757C51.6164 8.1504 51.0661 7.99989 50.3811 7.99989C48.6238 7.99989 47.3878 8.94156 47.3779 10.2895ZM55.047 8.12638C54.7061 8.12638 54.4188 8.32683 54.2906 8.6345L51.6237 15.0537H53.4893L53.8605 14.0194H56.1404L56.3557 15.0537H58L56.5651 8.12638H55.047ZM55.308 9.99771L55.8464 12.5989H54.3719L55.308 9.99771ZM45.1159 8.12638L43.6454 15.0537H45.4231L46.893 8.12638H45.1159ZM42.486 8.12638L40.6356 12.8414L39.8871 8.83229C39.7992 8.38477 39.4524 8.12638 39.0673 8.12638H36.0423L36 8.3275C36.621 8.46335 37.3265 8.68245 37.7539 8.91687C38.0156 9.06005 38.0902 9.18525 38.1761 9.52556L39.5938 15.0537H41.4726L44.3529 8.12638H42.486Z" fill="white"/>
</mask>
<g mask="url(#mask0_220_7147)">
<path fill-rule="evenodd" clip-rule="evenodd" d="M47.3779 10.2895C47.3653 11.2871 48.2598 11.8438 48.9336 12.1748C49.626 12.5144 49.8585 12.7322 49.8559 13.0359C49.8506 13.5007 49.3036 13.7058 48.7916 13.7138C47.8984 13.7278 47.3792 13.4708 46.9663 13.2763L46.6446 14.794C47.0588 14.9865 47.8258 15.1543 48.6212 15.1616C50.4881 15.1616 51.7096 14.2326 51.7162 12.7921C51.7234 10.9641 49.2078 10.8629 49.225 10.0457C49.2309 9.79798 49.4654 9.5336 49.9794 9.46634C50.2337 9.43237 50.936 9.4064 51.732 9.77601L52.0445 8.30757C51.6164 8.1504 51.0661 7.99989 50.3811 7.99989C48.6238 7.99989 47.3878 8.94156 47.3779 10.2895ZM55.047 8.12638C54.7061 8.12638 54.4188 8.32683 54.2906 8.6345L51.6237 15.0537H53.4893L53.8605 14.0194H56.1404L56.3557 15.0537H58L56.5651 8.12638H55.047ZM55.308 9.99771L55.8464 12.5989H54.3719L55.308 9.99771ZM45.1159 8.12638L43.6454 15.0537H45.4231L46.893 8.12638H45.1159ZM42.486 8.12638L40.6356 12.8414L39.8871 8.83229C39.7992 8.38477 39.4524 8.12638 39.0673 8.12638H36.0423L36 8.3275C36.621 8.46335 37.3265 8.68245 37.7539 8.91687C38.0156 9.06005 38.0902 9.18525 38.1761 9.52556L39.5938 15.0537H41.4726L44.3529 8.12638H42.486Z" fill="url(#paint0_linear_220_7147)"/>
</g>
<path fill-rule="evenodd" clip-rule="evenodd" d="M76.1618 5.08545L72.515 12.7456C72.5011 12.7741 72.4967 12.8063 72.5024 12.8374C72.5082 12.8686 72.5237 12.8971 72.5468 12.9188L82.396 22.3567C82.424 22.3836 82.4612 22.3985 82.5 22.3985C82.5388 22.3985 82.576 22.3836 82.604 22.3567L92.4532 12.9194C92.4763 12.8977 92.4918 12.8692 92.4976 12.838C92.5033 12.8069 92.4989 12.7747 92.485 12.7462L88.8382 5.08604C88.8264 5.06031 88.8075 5.03852 88.7837 5.02327C88.7598 5.00801 88.7321 4.99994 88.7038 5.00001H76.2973C76.2689 4.99966 76.241 5.00754 76.2169 5.0227C76.1929 5.03786 76.1738 5.05965 76.1618 5.08545Z" fill="#50AF95"/>
<path fill-rule="evenodd" clip-rule="evenodd" d="M83.7654 13.5323C83.6947 13.5376 83.3294 13.5594 82.5145 13.5594C81.8663 13.5594 81.4061 13.54 81.2447 13.5323C78.7398 13.4221 76.8701 12.9861 76.8701 12.464C76.8701 11.9419 78.7398 11.5065 81.2447 11.3945V13.098C81.4085 13.1098 81.8775 13.1375 82.5257 13.1375C83.3035 13.1375 83.693 13.1051 83.7631 13.0986V11.3957C86.2626 11.5071 88.1282 11.9431 88.1282 12.464C88.1282 12.9849 86.2632 13.4209 83.7631 13.5317L83.7654 13.5323ZM83.7654 11.2195V9.69517H87.2538V7.37061H77.7563V9.69517H81.2441V11.2189C78.4092 11.3492 76.2773 11.9107 76.2773 12.5836C76.2773 13.2565 78.4092 13.8175 81.2441 13.9483V18.8331H83.7648V13.9466C86.5932 13.8163 88.7216 13.2554 88.7216 12.583C88.7216 11.9107 86.595 11.3498 83.7648 11.2189L83.7654 11.2195Z" fill="white"/>
<path fill-rule="evenodd" clip-rule="evenodd" d="M125.577 9.84441C125.923 7.53273 124.163 6.29003 121.756 5.46102L122.537 2.32957L120.631 1.85453L119.871 4.90346C119.369 4.77859 118.855 4.66078 118.343 4.54406L119.109 1.47504L117.204 1L116.423 4.13037C116.008 4.03591 115.601 3.94253 115.205 3.84426L115.208 3.83449L112.579 3.17812L112.072 5.214C112.072 5.214 113.486 5.53811 113.456 5.5582C114.228 5.75093 114.368 6.2618 114.344 6.66681L113.455 10.2342C113.508 10.2478 113.577 10.2673 113.653 10.2977C113.59 10.282 113.522 10.2646 113.452 10.2478L112.205 15.2452C112.111 15.4797 111.871 15.8315 111.332 15.698C111.351 15.7257 109.946 15.3521 109.946 15.3521L109 17.5341L111.481 18.1524C111.942 18.2681 112.394 18.3891 112.839 18.5031L112.051 21.6704L113.955 22.1455L114.736 19.0118C115.256 19.153 115.761 19.2833 116.255 19.406L115.476 22.525L117.382 23L118.171 19.8387C121.422 20.4538 123.866 20.2057 124.895 17.2659C125.724 14.8988 124.853 13.5334 123.143 12.6431C124.389 12.3559 125.327 11.5366 125.577 9.84441ZM121.222 15.9516C120.633 18.3186 116.647 17.039 115.355 16.7182L116.402 12.5221C117.694 12.8446 121.837 13.483 121.222 15.9516ZM121.811 9.81016C121.274 11.9633 117.957 10.8694 116.881 10.6012L117.83 6.79542C118.906 7.06362 122.371 7.56417 121.811 9.81016Z" fill="#F7931A"/>
<defs>
<linearGradient id="paint0_linear_220_7147" x1="36.0383" y1="10.2026" x2="42.2568" y2="1.44477" gradientUnits="userSpaceOnUse">
<stop stop-color="#222357"/>
<stop offset="1" stop-color="#254AA5"/>
</linearGradient>
</defs>
</svg>
