<svg width="21" height="20" viewBox="0 0 21 20" fill="none" xmlns="http://www.w3.org/2000/svg">
<g opacity="0.2">
<path d="M10.5 10.625C7.85831 10.625 5.70831 8.47502 5.70831 5.83335C5.70831 3.19169 7.85831 1.04169 10.5 1.04169C13.1416 1.04169 15.2916 3.19169 15.2916 5.83335C15.2916 8.47502 13.1416 10.625 10.5 10.625ZM10.5 2.29169C8.54998 2.29169 6.95831 3.88335 6.95831 5.83335C6.95831 7.78335 8.54998 9.37502 10.5 9.37502C12.45 9.37502 14.0416 7.78335 14.0416 5.83335C14.0416 3.88335 12.45 2.29169 10.5 2.29169Z" fill="#101010"/>
<path d="M17.6585 18.9583C17.3168 18.9583 17.0335 18.675 17.0335 18.3333C17.0335 15.4583 14.1001 13.125 10.5001 13.125C6.90013 13.125 3.9668 15.4583 3.9668 18.3333C3.9668 18.675 3.68346 18.9583 3.3418 18.9583C3.00013 18.9583 2.7168 18.675 2.7168 18.3333C2.7168 14.775 6.20846 11.875 10.5001 11.875C14.7918 11.875 18.2835 14.775 18.2835 18.3333C18.2835 18.675 18.0001 18.9583 17.6585 18.9583Z" fill="#101010"/>
</g>
</svg>
