<svg width="64" height="64" viewBox="0 0 64 64" fill="none" xmlns="http://www.w3.org/2000/svg">
<path d="M48 21.3335C48 24.279 45.6122 26.6668 42.6667 26.6668C39.7212 26.6668 37.3334 24.279 37.3334 21.3335C37.3334 18.388 39.7212 16.0002 42.6667 16.0002C45.6122 16.0002 48 18.388 48 21.3335Z" fill="#cccccc"/>
<path fill-rule="evenodd" clip-rule="evenodd" d="M32.153 3.3335H31.847C25.6913 3.33346 20.8672 3.33344 17.1033 3.83949C13.2506 4.35746 10.2106 5.43837 7.82441 7.82453C5.43825 10.2107 4.35734 13.2507 3.83937 17.1034C3.33332 20.8673 3.33334 25.6914 3.33337 31.8471V32.1532C3.33334 38.3089 3.33332 43.133 3.83937 46.8969C4.35734 50.7496 5.43825 53.7896 7.82441 56.1758C10.2106 58.562 13.2506 59.6429 17.1033 60.1608C20.8672 60.6669 25.6913 60.6669 31.847 60.6668H32.153C38.3088 60.6669 43.1329 60.6669 46.8968 60.1608C50.7495 59.6429 53.7895 58.562 56.1757 56.1758C58.5618 53.7896 59.6427 50.7496 60.1607 46.8969C60.6668 43.133 60.6667 38.3089 60.6667 32.1532V31.8472C60.6667 25.6914 60.6668 20.8673 60.1607 17.1034C59.6427 13.2507 58.5618 10.2107 56.1757 7.82453C53.7895 5.43837 50.7495 4.35746 46.8968 3.83949C43.1329 3.33344 38.3087 3.33346 32.153 3.3335ZM10.6528 10.653C12.1719 9.13387 14.2272 8.26216 17.6362 7.80382C21.1029 7.33775 25.6581 7.3335 32 7.3335C38.342 7.3335 42.8972 7.33775 46.3638 7.80382C49.7729 8.26216 51.8282 9.13387 53.3472 10.653C54.8663 12.172 55.738 14.2273 56.1964 17.6364C56.6625 21.103 56.6667 25.6582 56.6667 32.0002C56.6667 33.2008 56.6666 34.3374 56.6631 35.4146L56.0709 35.3326C48.4876 34.2826 41.548 38.2249 38.0143 44.167C33.4557 32.6338 21.4092 24.7683 7.94866 26.7011L7.34662 26.7879C7.37692 23.0399 7.47652 20.0699 7.8037 17.6364C8.26203 14.2273 9.13375 12.172 10.6528 10.653Z" fill="#cccccc"/>
</svg>

