<svg width="1982" height="815" viewBox="0 0 1982 815" fill="none" xmlns="http://www.w3.org/2000/svg">
<path d="M1041.16 355H1077.44L1024.76 525.115H985L1041.16 355Z" fill="#0FA8E0"/>
<path d="M1041.16 355H1077.44L1024.76 525.115H985L1041.16 355Z" fill="#0FA8E0"/>
<path d="M1088.15 355H1053.37L1103.87 525.115H1141.99L1088.15 355Z" fill="#0FA8E0"/>
<path d="M1088.15 355H1053.37L1103.87 525.115H1141.99L1088.15 355Z" fill="#0FA8E0"/>
<rect x="1015.08" y="497.765" width="36.6485" height="101.194" transform="rotate(-90 1015.08 497.765)" fill="#0FA8E0"/>
<path d="M1308.99 497.111C1296.98 510.115 1281.09 519.338 1263.43 523.551C1245.77 527.764 1227.17 526.766 1210.12 520.692C1193.07 514.618 1178.37 503.756 1167.99 489.552C1157.61 475.348 1152.03 458.477 1152 441.188C1151.97 423.899 1157.49 407.012 1167.83 392.778C1178.17 378.544 1192.83 367.638 1209.86 361.514C1226.89 355.391 1245.49 354.339 1263.16 358.501C1280.84 362.662 1290.45 370.46 1302.72 379.816L1277.12 411.327C1270.75 404.473 1262.34 399.623 1253 397.423C1243.65 395.224 1233.83 395.78 1224.82 399.016C1215.82 402.253 1208.07 408.017 1202.61 415.54C1197.15 423.063 1194.23 431.988 1194.24 441.126C1194.26 450.264 1197.21 459.181 1202.69 466.688C1208.18 474.195 1215.95 479.937 1224.96 483.147C1233.97 486.357 1243.8 486.884 1253.14 484.658C1262.47 482.431 1276.22 475.148 1282.56 468.276L1308.99 497.111Z" fill="#0FA8E0"/>
<path d="M1475.99 496.111C1463.98 509.115 1448.09 518.338 1430.43 522.551C1412.77 526.764 1394.17 525.766 1377.12 519.692C1360.07 513.618 1345.37 502.756 1334.99 488.552C1324.61 474.348 1319.03 457.477 1319 440.188C1318.97 422.899 1324.49 406.012 1334.83 391.778C1345.17 377.544 1359.83 366.638 1376.86 360.514C1393.89 354.391 1412.49 353.339 1430.16 357.501C1447.84 361.662 1457.45 369.46 1469.72 378.816L1444.12 410.327C1437.75 403.473 1429.34 398.623 1420 396.423C1410.65 394.224 1400.83 394.78 1391.82 398.016C1382.82 401.253 1375.07 407.017 1369.61 414.54C1364.15 422.063 1361.23 430.988 1361.24 440.126C1361.26 449.264 1364.21 458.181 1369.69 465.688C1375.18 473.195 1382.95 478.937 1391.96 482.147C1400.97 485.357 1410.8 485.884 1420.14 483.658C1429.47 481.431 1443.22 474.148 1449.56 467.276L1475.99 496.111Z" fill="#0FA8E0"/>
<path d="M170 259V529.488H258.066V370.039H264.356L313.312 529.488H379.224L429.548 370.039H435.838V529.488H523.083V259H425.719C425.719 259 397.275 259 387.976 291.273C378.677 323.545 350.234 418.995 350.234 418.995H342.576C342.576 418.995 311.397 304.127 307.568 294.281C303.74 284.435 297.449 259 264.356 259H170Z" fill="#22B351"/>
<path fill-rule="evenodd" clip-rule="evenodd" d="M861.763 256H675C679.445 316.12 730.534 367.586 783.421 367.586H958.268C968.358 317.62 933.623 256 861.763 256Z" fill="#00A9E4"/>
<path d="M679.923 526.281V384.336C679.923 384.336 954.778 383.571 956.154 384.336C957.53 385.102 945.214 406.762 934.548 416.882C923.881 427.001 903.369 436.847 903.369 436.847L956.154 526.281H866.174L819.406 445.599H765.801V526.281H679.923Z" fill="#22B351"/>
<rect x="555" y="255" width="87.5187" height="270.214" fill="#22B351"/>
<path d="M1878 538V388.5H1821V349H1982V388.5H1923.5V538H1878Z" fill="#0FA8E0"/>
<path fill-rule="evenodd" clip-rule="evenodd" d="M1740.88 358H1619C1621.9 397.234 1655.24 430.82 1689.75 430.82H1803.86C1810.44 398.212 1787.78 358 1740.88 358Z" fill="#21A049"/>
<path d="M1632 526V438H1805C1800.79 449.762 1786 462.5 1786 462.5C1786 462.5 1772.57 472.809 1757 474.5H1674.5V526H1632Z" fill="#0FA8E0"/>
<path d="M1602 358V392.5H1535V423H1588V457.5H1535V492.5H1602V525H1496V358H1602Z" fill="#0FA8E0"/>
<path d="M1882.68 571H679L718.5 669H1945.69C1945.69 669 1949.19 632.571 1932.69 606.916C1916.18 581.262 1902.18 571 1882.68 571Z" fill="#0FA8E0"/>
<path d="M756.554 617.779C711.295 692.908 643.003 751.429 561.828 784.646C480.653 817.863 390.927 824.003 305.983 802.152C221.04 780.302 145.414 731.629 90.3423 663.365C35.2709 595.102 3.69421 510.891 0.304564 423.249C-3.08509 335.606 21.8933 249.208 71.5277 176.895C121.162 104.582 192.803 50.2125 275.805 21.8671C358.807 -6.47827 448.739 -7.2871 532.238 19.5608C615.736 46.4088 712.5 107.838 773 223.638H665.307C625.734 168.149 569.313 126.909 504.429 106.046C439.546 85.1834 369.662 85.8119 305.165 107.838C240.667 129.864 184.997 172.113 146.428 228.305C107.858 284.497 88.4486 351.633 91.0826 419.738C93.7166 487.842 118.254 553.279 161.048 606.324C203.842 659.369 262.609 697.192 328.615 714.171C394.621 731.15 464.344 726.379 527.423 700.567C590.501 674.755 643.568 629.281 678.738 570.901L756.554 617.779Z" fill="#0FA8E0"/>
</svg>
