<svg width="734" height="200" viewBox="0 0 734 200" fill="none" xmlns="http://www.w3.org/2000/svg">
<path fill-rule="evenodd" clip-rule="evenodd" d="M67.8019 0.034129C74.3523 -0.00505778 93.8196 -1.75839 102.066 26.0718C107.62 44.8186 116.468 75.5266 128.61 118.196H133.555C146.576 73.211 155.52 42.5029 160.389 26.0718C168.721 -2.04829 189.55 0.0346801 197.882 0.0346801L262.165 0.0347603V200H196.646V82.157H192.253L155.73 200H106.435L69.912 82.0696H65.5185V200H0V0.0347603L67.8019 0.034129ZM356.248 0.0347603V117.965H361.475L405.902 20.9918C414.526 1.69386 432.907 0.0347603 432.907 0.0347603H496.309V200H429.422V82.0696H424.196L380.64 179.043C372.015 198.254 352.764 200 352.764 200H289.361V0.0347603H356.248ZM727.5 95.0596C718.17 121.499 688.87 140.434 656.431 140.434H586.287V200H522.682V95.0596H727.5Z" fill="#0F754E"/>
<path fill-rule="evenodd" clip-rule="evenodd" d="M659.498 0.03479H519.345C522.681 44.5538 561.02 82.665 600.708 82.665H731.919C739.491 45.6645 713.425 0.03479 659.498 0.03479Z" fill="url(#paint0_linear_607_209)"/>
<defs>
<linearGradient id="paint0_linear_607_209" x1="733.206" y1="52.0128" x2="519.345" y2="52.0128" gradientUnits="userSpaceOnUse">
<stop stop-color="#1F5CD7"/>
<stop offset="1" stop-color="#02AEFF"/>
</linearGradient>
</defs>
</svg>
