<svg width="64" height="64" viewBox="0 0 64 64" fill="none" xmlns="http://www.w3.org/2000/svg">
<path d="M37.3333 10.6667H26.6667C16.61 10.6667 11.5817 10.6667 8.45752 13.7909C6.20808 16.0403 5.57825 19.2768 5.40191 24.6667H58.5981C58.4217 19.2768 57.7919 16.0403 55.5425 13.7909C52.4183 10.6667 47.39 10.6667 37.3333 10.6667Z" fill="white"/>
<path d="M26.6667 53.3333H37.3333C47.39 53.3333 52.4183 53.3333 55.5425 50.2091C58.6667 47.0849 58.6667 42.0566 58.6667 32C58.6667 30.8215 58.6667 29.7121 58.6616 28.6667H5.33836C5.33333 29.7121 5.33333 30.8215 5.33333 32C5.33333 42.0566 5.33333 47.0849 8.45752 50.2091C11.5817 53.3333 16.61 53.3333 26.6667 53.3333Z" fill="white"/>
<path fill-rule="evenodd" clip-rule="evenodd" d="M14 42.6667C14 41.5621 14.8954 40.6667 16 40.6667H26.6667C27.7712 40.6667 28.6667 41.5621 28.6667 42.6667C28.6667 43.7712 27.7712 44.6667 26.6667 44.6667H16C14.8954 44.6667 14 43.7712 14 42.6667Z" fill="#0076FF"/>
<path fill-rule="evenodd" clip-rule="evenodd" d="M31.3333 42.6667C31.3333 41.5621 32.2288 40.6667 33.3333 40.6667H37.3333C38.4379 40.6667 39.3333 41.5621 39.3333 42.6667C39.3333 43.7712 38.4379 44.6667 37.3333 44.6667H33.3333C32.2288 44.6667 31.3333 43.7712 31.3333 42.6667Z" fill="#0076FF"/>
</svg>
