<svg width="54" height="56" viewBox="0 0 54 56" fill="none" xmlns="http://www.w3.org/2000/svg">
<path d="M3 11C3 8.23858 5.23858 6 8 6H9V12H3V11Z" fill="url(#paint0_linear_832_13067)"/>
<g filter="url(#filter0_d_832_13067)">
<path d="M8 6H38C42.4183 6 46 9.58172 46 14V35.3702C46 36.8273 45.1346 38.1452 43.7976 38.7243L28.4528 45.3707C27.5259 45.7722 26.4741 45.7722 25.5472 45.3707L10.2024 38.7243C8.86537 38.1452 8 36.8273 8 35.3702V6Z" fill="url(#paint1_linear_832_13067)"/>
</g>
<path d="M14.9521 23H18.0723C19.5762 23 20.5088 22.2285 20.5088 20.9932V20.9834C20.5088 20.0605 19.8008 19.3672 18.8193 19.2939V19.2646C19.5957 19.1621 20.1816 18.5029 20.1816 17.7314V17.7217C20.1816 16.6377 19.3467 15.9541 18.0186 15.9541H14.9521V23ZM17.6377 17.0479C18.3262 17.0479 18.7314 17.3701 18.7314 17.9316V17.9414C18.7314 18.5518 18.2871 18.8984 17.457 18.8984H16.4268V17.0479H17.6377ZM17.6328 19.8994C18.5361 19.8994 19.0049 20.2461 19.0049 20.8906V20.9004C19.0049 21.5547 18.541 21.9014 17.6963 21.9014H16.4268V19.8994H17.6328ZM21.3486 23H26.0166V21.7842H22.8232V20.0117H25.8359V18.8594H22.8232V17.1699H26.0166V15.9541H21.3486V23ZM29.6543 23.1221C31.4316 23.1221 32.4961 22.2627 32.4961 20.9102V20.9053C32.4961 19.7969 31.832 19.1963 30.3574 18.9033L29.6104 18.752C28.7998 18.5908 28.4385 18.332 28.4385 17.8877V17.8828C28.4385 17.3799 28.8926 17.0332 29.6494 17.0283C30.377 17.0283 30.8848 17.3652 30.958 17.917L30.9629 17.9756H32.3545L32.3496 17.8828C32.2812 16.6475 31.2803 15.832 29.6494 15.832C28.0869 15.832 26.9639 16.6816 26.9639 17.9707V17.9756C26.9639 19.0352 27.667 19.6992 29.0586 19.9775L29.8008 20.124C30.6748 20.3047 31.0215 20.5439 31.0215 21.0225V21.0273C31.0215 21.5645 30.5088 21.9209 29.6934 21.9209C28.8877 21.9209 28.3066 21.5791 28.2139 21.0322L28.2041 20.9785H26.8125L26.8174 21.0566C26.9004 22.3555 27.9795 23.1221 29.6543 23.1221ZM34.8887 23H36.3633V17.1699H38.4043V15.9541H32.8525V17.1699H34.8887V23ZM13.0381 33H14.5127V30.7783H15.8701C17.3545 30.7783 18.3457 29.8213 18.3457 28.3711V28.3613C18.3457 26.9111 17.3545 25.9541 15.8701 25.9541H13.0381V33ZM15.5088 27.1211C16.3535 27.1211 16.8516 27.5654 16.8516 28.3662V28.376C16.8516 29.1768 16.3535 29.626 15.5088 29.626H14.5127V27.1211H15.5088ZM19.2197 33H20.6943V30.4463H21.876L23.1895 33H24.8594L23.375 30.2266C24.1562 29.9189 24.6494 29.1475 24.6494 28.2197V28.21C24.6494 26.7939 23.7119 25.9541 22.1299 25.9541H19.2197V33ZM20.6943 29.3281V27.1064H21.9492C22.6768 27.1064 23.1406 27.5361 23.1406 28.21V28.2197C23.1406 28.9131 22.7012 29.3281 21.9688 29.3281H20.6943ZM25.626 33H27.1006V25.9541H25.626V33ZM31.4072 33.1221C33.1113 33.1221 34.3467 32.0527 34.4834 30.5537L34.4883 30.5H33.0527L33.043 30.5488C32.8525 31.3838 32.2568 31.8721 31.4072 31.8721C30.2793 31.8721 29.5566 30.9541 29.5566 29.4697V29.4648C29.5566 27.9902 30.2793 27.082 31.4072 27.082C32.2861 27.082 32.8623 27.5898 33.0283 28.3662L33.0479 28.4492H34.4834L34.4785 28.4053C34.3418 26.9111 33.1162 25.832 31.4072 25.832C29.3516 25.832 28.0527 27.1992 28.0527 29.4697V29.4746C28.0527 31.7451 29.3467 33.1221 31.4072 33.1221ZM35.4014 33H40.0693V31.7842H36.876V30.0117H39.8887V28.8594H36.876V27.1699H40.0693V25.9541H35.4014V33Z" fill="white"/>
<defs>
<filter id="filter0_d_832_13067" x="0" y="0" width="54" height="55.6719" filterUnits="userSpaceOnUse" color-interpolation-filters="sRGB">
<feFlood flood-opacity="0" result="BackgroundImageFix"/>
<feColorMatrix in="SourceAlpha" type="matrix" values="0 0 0 0 0 0 0 0 0 0 0 0 0 0 0 0 0 0 127 0" result="hardAlpha"/>
<feOffset dy="2"/>
<feGaussianBlur stdDeviation="4"/>
<feComposite in2="hardAlpha" operator="out"/>
<feColorMatrix type="matrix" values="0 0 0 0 0 0 0 0 0 0 0 0 0 0 0 0 0 0 0.25 0"/>
<feBlend mode="normal" in2="BackgroundImageFix" result="effect1_dropShadow_832_13067"/>
<feBlend mode="normal" in="SourceGraphic" in2="effect1_dropShadow_832_13067" result="shape"/>
</filter>
<linearGradient id="paint0_linear_832_13067" x1="3" y1="11.5" x2="9" y2="11.5" gradientUnits="userSpaceOnUse">
<stop stop-color="#FF2851"/>
<stop offset="1" stop-color="#9C0824"/>
</linearGradient>
<linearGradient id="paint1_linear_832_13067" x1="27" y1="6" x2="27" y2="46" gradientUnits="userSpaceOnUse">
<stop stop-color="#FF2851"/>
<stop offset="1" stop-color="#9C0824"/>
</linearGradient>
</defs>
</svg>
